<svg width="230" height="230" viewBox="0 0 230 230" fill="none" xmlns="http://www.w3.org/2000/svg">
<mask id="mask0_122_7991" style="mask-type:luminance" maskUnits="userSpaceOnUse" x="0" y="0" width="230" height="230">
<path d="M230 0H0V230H230V0Z" fill="white"/>
</mask>
<g mask="url(#mask0_122_7991)">
<path d="M115 230C178.512 230 230 178.512 230 115C230 51.4885 178.512 0 115 0C51.4885 0 0 51.4885 0 115C0 178.512 51.4885 230 115 230Z" fill="#36C6F4"/>
<path d="M115.001 213.575C169.438 213.575 213.576 169.446 213.576 115C213.576 60.5543 169.447 16.4249 115.001 16.4249C60.5552 16.4249 16.4258 60.5543 16.4258 115C16.4258 169.446 60.5552 213.575 115.001 213.575Z" fill="#F3F3F3"/>
<path d="M115 191.396C157.194 191.396 191.396 157.195 191.396 115C191.396 72.8055 157.194 38.6037 115 38.6037C72.8053 38.6037 38.6035 72.8055 38.6035 115C38.6035 157.195 72.8053 191.396 115 191.396Z" fill="#36C6F4"/>
<path d="M115.001 170.696C145.755 170.696 170.697 145.763 170.697 115C170.697 84.237 145.764 59.3039 115.001 59.3039C84.2378 59.3039 59.3047 84.237 59.3047 115C59.3047 145.763 84.2378 170.696 115.001 170.696Z" fill="#F3F3F3"/>
<path d="M115.001 145.501C131.848 145.501 145.502 131.847 145.502 115C145.502 98.1526 131.848 84.4989 115.001 84.4989C98.1537 84.4989 84.5 98.1526 84.5 115C84.5 131.847 98.1537 145.501 115.001 145.501Z" fill="#36C6F4"/>
</g>
</svg>
