<svg width="180" height="150" viewBox="0 0 180 150" fill="none" xmlns="http://www.w3.org/2000/svg">
<g clip-path="url(#clip0_121_4494)">
<path d="M114.968 131.061C114.968 136.681 110.388 141.266 104.703 141.266H18.477C12.7917 141.266 8.212 136.681 8.212 131.061V30.8819C8.212 25.2618 12.7918 20.6767 18.477 20.6767H28.742V29.0842C28.742 33.6196 32.4186 37.2963 36.954 37.2963H86.2262C90.7617 37.2963 94.4383 33.6197 94.4383 29.0842V20.6767H104.703C108.165 20.6767 111.209 22.3819 113.067 24.9799L118.925 19.1258C115.533 15.0548 110.418 12.4647 104.703 12.4647H94.4383V8.21209C94.4383 3.67669 90.7618 0 86.2262 0H36.954C32.4186 0 28.742 3.6766 28.742 8.21209V12.4647H18.477C8.28861 12.4646 0 20.6942 0 30.8819V131.061C0 141.249 8.28861 149.478 18.477 149.478H104.703C114.892 149.478 123.18 141.249 123.18 131.061V82.7347H114.968L114.968 131.061ZM36.954 8.212H86.2262V29.0842H36.954V8.212Z" fill="#1C304A"/>
<path d="M99.2978 55.738H23.1017C21.8361 55.738 20.8105 54.7124 20.8105 53.4469C20.8105 52.1813 21.8361 51.1557 23.1017 51.1557H99.2978C100.563 51.1557 101.589 52.1813 101.589 53.4469C101.589 54.7124 100.563 55.738 99.2978 55.738Z" fill="#1C304A"/>
<path d="M99.2978 69.4847H23.1017C21.8361 69.4847 20.8105 68.4591 20.8105 67.1936C20.8105 65.928 21.8361 64.9024 23.1017 64.9024H99.2978C100.563 64.9024 101.589 65.928 101.589 67.1936C101.589 68.4591 100.563 69.4847 99.2978 69.4847Z" fill="#1C304A"/>
<path d="M99.2978 83.2314H23.1017C21.8361 83.2314 20.8105 82.2058 20.8105 80.9402C20.8105 79.6747 21.8361 78.6491 23.1017 78.6491H99.2978C100.563 78.6491 101.589 79.6747 101.589 80.9402C101.589 82.2058 100.563 83.2314 99.2978 83.2314Z" fill="#1C304A"/>
<path d="M85.5511 96.978H23.1017C21.8361 96.978 20.8105 95.9524 20.8105 94.6869C20.8105 93.4214 21.8361 92.3958 23.1017 92.3958H85.5511C86.8167 92.3958 87.8423 93.4214 87.8423 94.6869C87.8423 95.9524 86.8167 96.978 85.5511 96.978Z" fill="#1C304A"/>
<path d="M171.236 9.1355C159.571 -2.52811 140.59 -2.52673 128.922 9.13413L118.925 19.1258L113.067 24.9799L98.4732 39.5653C97.9408 40.0991 97.6413 40.8215 97.6413 41.5746V78.7189L84.2734 92.0867C83.1641 93.1961 83.1641 94.9932 84.2734 96.1026C84.8281 96.6572 85.5547 96.9346 86.2814 96.9346C87.008 96.9346 87.7347 96.6572 88.2893 96.1026L101.657 82.7347H138.823C139.578 82.7347 140.302 82.4352 140.834 81.8999L171.239 51.423C176.889 45.7749 180 38.2673 180 30.2799C180 22.2925 176.889 14.7836 171.236 9.1355ZM131.721 14.3682V44.3536C131.721 44.4376 131.761 44.5086 131.769 44.5907L123.181 53.1782L120.361 55.9979V25.7216L121.901 24.1822L131.721 14.3682ZM103.321 42.7519L114.681 31.3985V61.6803L103.321 73.0389V42.7519ZM137.645 77.0549H107.337L114.969 69.4233L118.261 66.1308C118.595 66.0386 118.891 65.8938 119.164 65.695H148.977L137.645 77.0549ZM154.646 60.015H124.377L135.759 48.6343H165.997L154.646 60.015ZM170.748 42.9544H141.439L150.769 33.6233C151.878 32.5139 151.878 30.7167 150.769 29.6073C149.659 28.498 147.862 28.498 146.753 29.6073L137.401 38.9589V9.66035C146.74 3.92633 159.142 5.07675 167.221 13.1528C171.799 17.7275 174.32 23.811 174.32 30.28C174.32 34.8257 173.075 39.1798 170.748 42.9544Z" fill="#046B99"/>
</g>
<defs>
<clipPath id="clip0_121_4494">
<rect width="180" height="149.478" fill="white"/>
</clipPath>
</defs>
</svg>
