<svg width="186" height="155" viewBox="0 0 186 155" fill="none" xmlns="http://www.w3.org/2000/svg">
<path fill-rule="evenodd" clip-rule="evenodd" d="M103.468 38.7727C102.175 38.7727 101.127 39.8162 101.127 41.1034V57.4181H180.691V41.1034C180.691 39.8162 179.644 38.7727 178.351 38.7727H103.468ZM185.372 41.1034C185.372 37.2418 182.229 34.1113 178.351 34.1113H103.468C99.5904 34.1113 96.4473 37.2418 96.4473 41.1034V92.3783C96.4473 96.2399 99.5904 99.3703 103.468 99.3703H178.351C182.229 99.3703 185.372 96.2399 185.372 92.3783V41.1034ZM180.691 62.0795H101.127V92.3783C101.127 93.6655 102.175 94.709 103.468 94.709H178.351C179.644 94.709 180.691 93.6655 180.691 92.3783V62.0795Z" fill="#1C304A"/>
<path d="M59.7924 55.8981C65.9939 55.8981 71.0212 50.8708 71.0212 44.6694C71.0212 38.4679 65.9939 33.4406 59.7924 33.4406C53.5909 33.4406 48.5636 38.4679 48.5636 44.6694C48.5636 50.8708 53.5909 55.8981 59.7924 55.8981ZM88.4973 56.3065C87.4408 58.7002 87.9477 61.4959 89.7773 63.3663L90.0101 63.599C91.4669 65.0542 92.2854 67.0288 92.2854 69.0879C92.2854 71.1469 91.4669 73.1215 90.0101 74.5767C88.5549 76.0335 86.5803 76.852 84.5212 76.852C82.4622 76.852 80.4876 76.0335 79.0324 74.5767L78.7997 74.344C76.9292 72.5143 74.1335 72.0074 71.7398 73.0639C69.3951 74.0688 67.871 76.3702 67.8608 78.9212V79.5806C67.8608 83.8653 64.3874 87.3387 60.1027 87.3387C55.8181 87.3387 52.3447 83.8653 52.3447 79.5806V79.2315C52.2832 76.6041 50.6219 74.2814 48.1553 73.3742C45.7616 72.3177 42.9659 72.8247 41.0955 74.6543L40.8627 74.887C39.4076 76.3438 37.433 77.1624 35.3739 77.1624C33.3148 77.1624 31.3402 76.3438 29.8851 74.887C28.4283 73.4318 27.6097 71.4572 27.6097 69.3982C27.6097 67.3391 28.4283 65.3645 29.8851 63.9093L30.1178 63.6766C31.9474 61.8062 32.4543 59.0105 31.3979 56.6168C30.393 54.272 28.0916 52.7479 25.5405 52.7377H24.8811C20.5965 52.7377 17.123 49.2643 17.123 44.9797C17.123 40.695 20.5965 37.2216 24.8811 37.2216H25.2302C27.8576 37.1602 30.1804 35.4988 31.0876 33.0323C32.144 30.6385 31.6371 27.8428 29.8075 25.9724L29.5747 25.7397C28.118 24.2845 27.2994 22.3099 27.2994 20.2508C27.2994 18.1918 28.118 16.2172 29.5747 14.762C31.0299 13.3052 33.0045 12.4867 35.0636 12.4867C37.1226 12.4867 39.0972 13.3052 40.5524 14.762L40.7851 14.9948C42.6556 16.8244 45.4513 17.3313 47.845 16.2748H48.1553C50.5001 15.2699 52.0242 12.9685 52.0343 10.4175V9.75806C52.0343 5.4734 55.5078 2 59.7924 2C64.0771 2 67.5505 5.4734 67.5505 9.75806V10.1072C67.5607 12.6582 69.0847 14.9596 71.4295 15.9645C73.8232 17.021 76.6189 16.514 78.4893 14.6844L78.7221 14.4517C80.1772 12.9949 82.1518 12.1764 84.2109 12.1764C86.27 12.1764 88.2446 12.9949 89.6997 14.4517C91.1565 15.9069 91.9751 17.8815 91.9751 19.9405C91.9751 21.9996 91.1565 23.9742 89.6997 25.4294L89.467 25.6621C87.6374 27.5325 87.1305 30.3282 88.1869 32.7219V33.0323C89.1919 35.377 91.4932 36.9011 94.0443 36.9113H94.7037C98.9884 36.9113 102.462 40.3847 102.462 44.6694C102.462 48.954 98.9884 52.4274 94.7037 52.4274H94.3546C91.8036 52.4376 89.5022 53.9617 88.4973 56.3065Z" fill="#B3EFFF" stroke="#046B99" stroke-width="4" stroke-linecap="round" stroke-linejoin="round"/>
<path d="M30.2862 110.445C33.5063 111.924 37.316 110.513 38.7955 107.293C40.2749 104.073 38.8638 100.263 35.6437 98.7837C32.4236 97.3043 28.6139 98.7154 27.1344 101.935C25.655 105.156 27.0661 108.965 30.2862 110.445ZM45.0937 117.505C43.9741 118.496 43.5703 120.068 44.0742 121.476L44.1395 121.652C44.5488 122.755 44.5027 123.976 44.0115 125.045C43.5203 126.114 42.6242 126.944 41.5206 127.352C40.4175 127.762 39.1969 127.716 38.1277 127.224C37.0586 126.733 36.2286 125.837 35.8205 124.733L35.7552 124.557C35.2204 123.161 33.8897 122.231 32.3947 122.208C30.9375 122.171 29.5971 123.002 28.9832 124.324L28.8259 124.667C27.8037 126.891 25.1716 127.866 22.9468 126.844C20.722 125.822 19.747 123.19 20.7692 120.965L20.8525 120.784C21.4474 119.405 21.1388 117.802 20.0745 116.743C19.0836 115.623 17.511 115.22 16.1033 115.723L15.9269 115.789C14.8238 116.198 13.6032 116.152 12.5341 115.661C11.4649 115.17 10.6349 114.273 10.2268 113.17C9.81752 112.067 9.86356 110.846 10.3548 109.777C10.846 108.708 11.7421 107.878 12.8457 107.47L13.022 107.404C14.4183 106.87 15.3484 105.539 15.3709 104.044C15.4085 102.587 14.5771 101.246 13.2549 100.633L12.9125 100.475C10.6877 99.453 9.71277 96.8208 10.7349 94.596C11.7571 92.3712 14.3893 91.3963 16.6141 92.4185L16.7954 92.5018C18.1743 93.0966 19.7767 92.7881 20.8362 91.7238C21.9558 90.7329 22.3595 89.1603 21.8557 87.7526L21.7904 87.5762C21.3811 86.4731 21.4271 85.2525 21.9184 84.1834C22.4096 83.1142 23.3057 82.2842 24.4093 81.8761C25.5124 81.4668 26.733 81.5129 27.8021 82.0041C28.8713 82.4953 29.7013 83.3914 30.1094 84.495L30.1747 84.6713C30.7094 86.0676 32.0402 86.9977 33.5351 87.0202L33.6963 87.0943C35.1535 87.1318 36.4939 86.3004 37.1078 84.9782L37.2651 84.6358C38.2873 82.411 40.9195 81.4361 43.1443 82.4583C45.3691 83.4804 46.344 86.1126 45.3218 88.3374L45.2386 88.5187C44.6353 89.8457 44.8776 91.4043 45.8554 92.4855C46.8463 93.6051 48.4189 94.0088 49.8266 93.505L50.0029 93.4397C51.1061 93.0304 52.3267 93.0764 53.3958 93.5677C54.465 94.0589 55.295 94.955 55.7031 96.0585C56.1124 97.1617 56.0663 98.3823 55.5751 99.4514C55.0839 100.521 54.1878 101.351 53.0842 101.759L52.9078 101.824C51.5116 102.359 50.5814 103.689 50.5589 105.184L50.4849 105.346C50.4474 106.803 51.2788 108.143 52.6009 108.757L52.9433 108.914C55.1681 109.937 56.1431 112.569 55.1209 114.794C54.0988 117.018 51.4666 117.993 49.2418 116.971L49.0605 116.888C47.7335 116.285 46.1749 116.527 45.0937 117.505Z" fill="#B3EFFF" stroke="#046B99" stroke-width="4" stroke-linecap="round" stroke-linejoin="round"/>
<path d="M88.8918 121.918C93.5191 123.287 98.3804 120.646 99.7498 116.019C101.119 111.392 98.4781 106.53 93.8508 105.161C89.2235 103.792 84.3622 106.433 82.9928 111.06C81.6234 115.687 84.2645 120.549 88.8918 121.918ZM110.22 128.561C108.903 130.114 108.664 132.312 109.616 134.112L109.739 134.337C110.504 135.744 110.679 137.398 110.224 138.935C109.77 140.471 108.723 141.764 107.315 142.528C105.907 143.293 104.253 143.468 102.717 143.014C101.18 142.559 99.8875 141.512 99.1234 140.104L99.0012 139.879C98.0095 138.1 96.0354 137.105 94.016 137.365C92.0445 137.597 90.3991 138.977 89.8282 140.879L89.6826 141.371C88.7365 144.568 85.3777 146.392 82.1807 145.446C78.9836 144.5 77.1589 141.141 78.105 137.944L78.1821 137.684C78.7164 135.71 77.9897 133.61 76.3496 132.388C74.7968 131.071 72.5988 130.832 70.7991 131.784L70.5741 131.907C69.1666 132.672 67.5124 132.847 65.976 132.392C64.4396 131.938 63.147 130.891 62.3829 129.483C61.6172 128.075 61.4425 126.421 61.8972 124.885C62.3518 123.348 63.3986 122.056 64.807 121.292L65.032 121.169C66.8102 120.178 67.8058 118.204 67.5461 116.184C67.314 114.213 65.9334 112.567 64.0321 111.996L63.5401 111.851C60.343 110.905 58.5183 107.546 59.4644 104.349C60.4105 101.152 63.7693 99.327 66.9663 100.273L67.2268 100.35C69.2008 100.885 71.3009 100.158 72.5224 98.5177C73.8393 96.9649 74.0784 94.7669 73.1262 92.9672L73.0039 92.7422C72.2383 91.3347 72.0635 89.6806 72.5182 88.1442C72.9729 86.6078 74.0197 85.3152 75.428 84.551C76.8355 83.7854 78.4896 83.6106 80.026 84.0653C81.5624 84.52 82.855 85.5668 83.6191 86.9751L83.7414 87.2002C84.733 88.9784 86.7072 89.974 88.7265 89.7142L88.9581 89.7828C90.9296 89.5507 92.575 88.17 93.1459 86.2688L93.2915 85.7767C94.2376 82.5797 97.5964 80.7549 100.793 81.7011C103.99 82.6472 105.815 86.0059 104.869 89.203L104.792 89.4635C104.236 91.3692 104.865 93.423 106.393 94.6906C107.946 96.0074 110.144 96.2465 111.943 95.2943L112.169 95.1721C113.576 94.4064 115.23 94.2317 116.767 94.6863C118.303 95.141 119.596 96.1878 120.36 97.5961C121.125 99.0036 121.3 100.658 120.845 102.194C120.391 103.731 119.344 105.023 117.936 105.787L117.711 105.91C115.932 106.901 114.937 108.875 115.196 110.895L115.128 111.126C115.36 113.098 116.741 114.743 118.642 115.314L119.134 115.46C122.331 116.406 124.156 119.764 123.21 122.962C122.263 126.159 118.905 127.983 115.708 127.037L115.447 126.96C113.541 126.404 111.488 127.033 110.22 128.561Z" fill="#B3EFFF" stroke="#046B99" stroke-width="4" stroke-linecap="round" stroke-linejoin="round"/>
</svg>
