<svg width="314" height="234" viewBox="0 0 314 234" fill="none" xmlns="http://www.w3.org/2000/svg">
<mask id="mask0_121_1511" style="mask-type:luminance" maskUnits="userSpaceOnUse" x="0" y="0" width="314" height="234">
<path d="M313.31 0H0.69043V233.41H313.31V0Z" fill="white"/>
</mask>
<g mask="url(#mask0_121_1511)">
<path d="M238.361 68.52C225.471 67.17 216.121 55.62 217.471 42.73C218.821 29.84 230.371 20.49 243.261 21.85C256.151 23.2 265.501 34.75 264.151 47.64C262.801 60.53 251.251 69.88 238.361 68.52ZM276.681 50.19L286.421 48.01C286.401 44.59 286.401 45.21 286.381 41.79L276.621 39.73C276.001 37.1 275.921 36.75 275.301 34.12L283.131 27.93C281.631 24.86 281.901 25.42 280.401 22.35L270.711 24.73C269.021 22.63 268.781 22.35 267.091 20.25L271.461 11.28C268.771 9.16 269.261 9.55 266.581 7.43L258.881 13.78C256.441 12.62 256.111 12.47 253.681 11.31L253.731 1.33C250.391 0.589998 251.001 0.72 247.661 -0.0200005L243.481 9.04C240.781 9.06 240.421 9.06 237.721 9.07L233.431 0.0600014C230.101 0.840001 230.711 0.7 227.381 1.48L227.551 11.46C225.131 12.64 224.801 12.81 222.371 13.99L214.601 7.73C211.941 9.88 212.421 9.49 209.761 11.64L214.241 20.56C212.571 22.68 212.341 22.97 210.671 25.09L200.951 22.83C199.481 25.92 199.751 25.36 198.291 28.45L206.191 34.54C205.611 37.17 205.531 37.53 204.941 40.17L195.201 42.34C195.221 45.76 195.221 45.14 195.241 48.56L205.001 50.62C205.621 53.25 205.701 53.6 206.321 56.23L198.491 62.41C199.991 65.48 199.721 64.92 201.221 68L210.911 65.62C212.601 67.72 212.841 68 214.531 70.1L210.161 79.07C212.851 81.19 212.361 80.8 215.041 82.92L222.741 76.57C225.181 77.72 225.511 77.88 227.941 79.04L227.891 89.02C231.231 89.76 230.621 89.63 233.961 90.37L238.141 81.31C240.841 81.29 241.201 81.29 243.901 81.28L248.191 90.29C251.521 89.51 250.911 89.65 254.241 88.87L254.071 78.89C256.491 77.71 256.821 77.54 259.251 76.36L267.021 82.62C269.681 80.47 269.201 80.86 271.861 78.71L267.381 69.79C269.051 67.67 269.281 67.38 270.941 65.26L280.661 67.53C282.131 64.44 281.861 65 283.321 61.91L275.421 55.82C276.001 53.19 276.081 52.83 276.671 50.2" fill="#F3F3F3"/>
<path d="M48.1204 210.73C32.4504 209.08 21.0704 195.04 22.7204 179.37C24.3704 163.7 38.4104 152.32 54.0804 153.97C69.7504 155.62 81.1304 169.66 79.4804 185.33C77.8304 201 63.7904 212.38 48.1204 210.73ZM88.0004 197.84L101.92 193.65C102.5 186.72 102.53 186.36 103.11 179.43L90.0804 172.98C88.6504 169.24 87.7904 166.99 86.3604 163.25L91.7604 149.76C86.7004 144.98 86.4404 144.74 81.3804 139.96L68.2104 146.12C64.4004 144.91 62.1004 144.18 58.2904 142.96L51.1104 130.32C44.2204 131.3 43.8704 131.35 36.9804 132.32L33.5904 146.46C30.2604 148.68 28.2604 150.02 24.9304 152.25L10.5704 149.99C7.04043 155.99 6.86043 156.29 3.32043 162.29L12.2604 173.75C11.9304 177.74 11.7204 180.14 11.3904 184.13L0.69043 193.94C3.18043 200.44 3.30043 200.77 5.79043 207.27L20.3304 207.43C23.2404 210.18 24.9904 211.83 27.9004 214.58L28.8904 229.08C35.5204 231.19 35.8604 231.3 42.4904 233.41L51.6804 222.14C55.6404 221.58 58.0304 221.24 61.9904 220.68L73.9404 228.95C79.7204 225.08 80.0204 224.88 85.8004 221.02L82.7204 206.81C84.7504 203.36 85.9704 201.29 88.0104 197.84" fill="#F3F3F3"/>
<path d="M287.01 114.02C280.43 113.33 275.66 107.44 276.35 100.86C277.04 94.28 282.93 89.51 289.51 90.2C296.09 90.89 300.86 96.78 300.17 103.36C299.48 109.94 293.59 114.71 287.01 114.02ZM304.73 109.51L312.81 107.08C313.05 104.2 313.06 104.05 313.31 101.17L305.75 97.43C305.16 95.88 304.8 94.94 304.2 93.38L307.34 85.55C305.24 83.56 305.13 83.46 303.03 81.47L295.39 85.05C293.8 84.55 292.85 84.24 291.26 83.74L287.09 76.41C284.22 76.82 284.08 76.84 281.21 77.24L279.24 85.44C277.86 86.37 277.02 86.92 275.64 87.85L267.31 86.54C265.84 89.03 265.77 89.16 264.3 91.65L269.49 98.3C269.35 99.96 269.27 100.96 269.13 102.62L262.91 108.32C263.94 111.02 264 111.16 265.03 113.86L273.47 113.95C274.68 115.09 275.41 115.78 276.62 116.92L277.19 125.34C279.95 126.22 280.09 126.26 282.85 127.14L288.18 120.6C289.83 120.37 290.82 120.23 292.47 119.99L299.41 124.79C301.82 123.18 301.94 123.1 304.34 121.49L302.55 113.25C303.39 111.82 303.9 110.95 304.75 109.52" fill="#00CFFF"/>
<path d="M88.4806 76.37C80.6206 71.71 78.0205 61.55 82.6805 53.69C87.3405 45.83 97.5005 43.23 105.361 47.89C113.221 52.55 115.821 62.71 111.161 70.57C106.501 78.43 96.3406 81.03 88.4806 76.37ZM111.341 78.64L121.481 80.05C123.211 76.99 123.301 76.83 125.021 73.78L118.581 65.82C118.711 63.8 118.791 62.59 118.921 60.57L126.351 53.52C125.041 50.26 124.971 50.1 123.651 46.84L113.411 46.92C111.921 45.56 111.021 44.74 109.521 43.38L108.641 33.18C105.271 32.18 105.101 32.12 101.731 31.12L95.4006 39.17C93.4006 39.49 92.2005 39.68 90.2105 40L81.6805 34.33C78.8005 36.34 78.6506 36.44 75.7706 38.44L78.1206 48.41C77.1306 50.17 76.5305 51.23 75.5305 52.99L65.7805 56.12C65.5505 59.63 65.5405 59.8 65.3105 63.31L74.5705 67.69C75.3305 69.56 75.7806 70.69 76.5406 72.57L72.9106 82.14C75.5106 84.51 75.6405 84.63 78.2405 86.99L87.4305 82.48C89.3706 83.06 90.5306 83.4 92.4706 83.98L97.6906 92.79C101.161 92.23 101.341 92.21 104.801 91.65L107.001 81.65C108.661 80.5 109.661 79.8 111.321 78.65" fill="#00CFFF"/>
<path d="M161.87 171.92C142.06 169.84 127.69 152.09 129.77 132.28C131.85 112.47 149.6 98.1 169.41 100.18C189.22 102.26 203.59 120.01 201.51 139.82C199.43 159.63 181.68 174 161.87 171.92ZM220.06 140.47L236.32 134.18C235.68 128.1 235.75 128.76 235.11 122.68L217.9 119.91C216.2 115.78 215.72 114.6 214.02 110.47L224.3 96.39C220.48 91.62 220.89 92.14 217.07 87.37L201.09 94.34C197.43 91.78 196.38 91.06 192.72 88.5L193.75 71.1C187.96 69.16 188.58 69.37 182.79 67.42L173.12 81.92C168.65 81.75 167.38 81.7 162.92 81.53L154.38 66.33C148.46 67.83 149.1 67.66 143.17 69.16L142.87 86.59C139.02 88.86 137.93 89.51 134.08 91.78L118.68 83.61C114.51 88.07 114.96 87.59 110.78 92.05L119.95 106.87C117.94 110.86 117.37 112 115.36 115.99L97.9902 117.44C96.8902 123.45 97.0102 122.8 95.9102 128.81L111.64 136.32C112.11 140.77 112.24 142.03 112.71 146.47L98.8801 157.08C101.2 162.73 100.95 162.12 103.28 167.77L120.57 165.58C123.37 169.07 124.16 170.06 126.96 173.55L121.07 189.95C126.08 193.45 125.54 193.07 130.55 196.57L143.91 185.38C148.15 186.8 149.35 187.21 153.59 188.63L157.5 205.62C163.6 205.85 162.95 205.83 169.05 206.06L174.24 189.42C178.57 188.32 179.8 188.01 184.14 186.92L196.61 199.09C201.87 195.99 201.3 196.32 206.57 193.22L201.94 176.42C204.99 173.16 205.86 172.23 208.92 168.97L225.99 172.47C228.74 167.01 228.44 167.6 231.19 162.15L218.21 150.51C219.01 146.11 219.24 144.86 220.05 140.47" fill="#00CFFF"/>
</g>
</svg>
