<svg width="320" height="317" viewBox="0 0 320 317" fill="none" xmlns="http://www.w3.org/2000/svg">
<g clip-path="url(#clip0_54_4812)">
<path d="M160 316.26C245.891 316.26 315.52 246.631 315.52 160.74C315.52 74.8487 245.891 5.22 160 5.22C74.1087 5.22 4.48 74.8487 4.48 160.74C4.48 246.631 74.1087 316.26 160 316.26Z" fill="#00CFFF"/>
<mask id="mask0_54_4812" style="mask-type:alpha" maskUnits="userSpaceOnUse" x="4" y="-1" width="312" height="317">
<path fill-rule="evenodd" clip-rule="evenodd" d="M315.52 -0.259995H4.48V159.74C4.48 245.631 74.1088 315.26 160 315.26C245.891 315.26 315.52 245.631 315.52 159.74V-0.259995Z" fill="#D9D9D9"/>
</mask>
<g mask="url(#mask0_54_4812)">
<path d="M256.64 74.1H63.36V369.78H256.64V74.1Z" fill="white" stroke="black" stroke-width="8"/>
<path d="M84.9178 129.468H87.9642C88.4576 129.468 88.9363 129.388 89.4003 129.228C89.8643 129.069 90.2778 128.808 90.6406 128.445C91.0035 128.068 91.2934 127.582 91.511 126.987C91.7286 126.392 91.8374 125.667 91.8374 124.811C91.8374 124.028 91.7574 123.324 91.5981 122.7C91.4528 122.062 91.2064 121.518 90.8582 121.068C90.5101 120.618 90.0461 120.278 89.4656 120.046C88.8998 119.799 88.1965 119.676 87.3549 119.676H84.9178V129.468ZM81.5014 116.803H88.2035C89.2045 116.803 90.1331 116.963 90.9888 117.282C91.8592 117.601 92.6061 118.08 93.2301 118.718C93.8682 119.356 94.3616 120.154 94.7098 121.112C95.0726 122.069 95.2538 123.194 95.2538 124.485C95.2538 125.616 95.1085 126.661 94.8186 127.618C94.5286 128.576 94.0858 129.402 93.4912 130.099C92.9107 130.795 92.1786 131.346 91.2934 131.752C90.423 132.144 89.3933 132.34 88.2035 132.34H81.5014V116.803ZM105.203 125.507C105.058 124.724 104.797 124.129 104.419 123.723C104.057 123.317 103.498 123.114 102.744 123.114C102.251 123.114 101.837 123.201 101.503 123.375C101.185 123.534 100.924 123.738 100.72 123.984C100.532 124.231 100.394 124.492 100.307 124.768C100.234 125.043 100.191 125.29 100.176 125.507H105.203ZM100.176 127.466C100.22 128.467 100.474 129.192 100.938 129.642C101.402 130.092 102.069 130.316 102.94 130.316C103.564 130.316 104.1 130.164 104.55 129.859C105 129.54 105.276 129.207 105.377 128.858H108.097C107.661 130.208 106.995 131.172 106.095 131.752C105.196 132.333 104.108 132.623 102.831 132.623C101.946 132.623 101.148 132.485 100.437 132.209C99.7267 131.92 99.1245 131.513 98.631 130.991C98.1382 130.469 97.7536 129.845 97.4778 129.12C97.2166 128.394 97.0861 127.596 97.0861 126.726C97.0861 125.884 97.2243 125.101 97.4995 124.376C97.7754 123.651 98.167 123.027 98.6746 122.504C99.1827 121.968 99.7843 121.547 100.481 121.242C101.192 120.938 101.975 120.785 102.831 120.785C103.788 120.785 104.623 120.974 105.333 121.351C106.044 121.714 106.625 122.207 107.074 122.831C107.539 123.455 107.872 124.165 108.075 124.963C108.278 125.761 108.351 126.595 108.292 127.466H100.176ZM110.43 125.072H116.98V127.727H110.43V125.072ZM119.639 121.09H122.577V123.179H122.62C122.765 122.831 122.961 122.512 123.208 122.222C123.455 121.917 123.738 121.663 124.056 121.46C124.376 121.242 124.717 121.075 125.079 120.96C125.442 120.844 125.819 120.785 126.211 120.785C126.414 120.785 126.639 120.822 126.885 120.894V123.767C126.74 123.738 126.566 123.716 126.363 123.701C126.16 123.672 125.964 123.658 125.775 123.658C125.21 123.658 124.731 123.752 124.339 123.941C123.948 124.129 123.629 124.391 123.382 124.724C123.15 125.043 122.983 125.42 122.881 125.856C122.78 126.291 122.729 126.762 122.729 127.27V132.34H119.639V121.09ZM131.6 119.349H128.51V116.803H131.6V119.349ZM128.51 121.09H131.6V132.34H128.51V121.09ZM136.753 128.684C136.753 129.018 136.819 129.308 136.949 129.555C137.094 129.787 137.276 129.983 137.493 130.142C137.711 130.288 137.957 130.396 138.233 130.469C138.523 130.541 138.82 130.577 139.125 130.577C139.343 130.577 139.567 130.556 139.8 130.512C140.046 130.454 140.264 130.375 140.452 130.273C140.655 130.157 140.822 130.012 140.953 129.838C141.084 129.649 141.149 129.417 141.149 129.141C141.149 128.677 140.836 128.329 140.213 128.097C139.604 127.864 138.748 127.633 137.645 127.4C137.196 127.299 136.753 127.183 136.318 127.052C135.897 126.907 135.52 126.726 135.187 126.508C134.852 126.276 134.584 125.993 134.381 125.66C134.178 125.312 134.077 124.891 134.077 124.398C134.077 123.672 134.214 123.077 134.49 122.613C134.78 122.149 135.157 121.786 135.622 121.525C136.086 121.249 136.608 121.061 137.188 120.96C137.768 120.844 138.364 120.785 138.973 120.785C139.582 120.785 140.17 120.844 140.735 120.96C141.315 121.075 141.83 121.271 142.28 121.547C142.73 121.823 143.1 122.193 143.39 122.657C143.695 123.107 143.876 123.68 143.934 124.376H140.996C140.953 123.781 140.728 123.382 140.322 123.179C139.916 122.961 139.437 122.853 138.886 122.853C138.712 122.853 138.523 122.867 138.32 122.896C138.116 122.911 137.928 122.954 137.754 123.027C137.594 123.099 137.457 123.208 137.341 123.353C137.224 123.484 137.167 123.665 137.167 123.897C137.167 124.173 137.268 124.398 137.471 124.572C137.674 124.746 137.935 124.891 138.255 125.007C138.588 125.109 138.965 125.203 139.386 125.29C139.807 125.377 140.235 125.471 140.67 125.573C141.119 125.674 141.555 125.797 141.976 125.943C142.411 126.088 142.795 126.284 143.129 126.53C143.462 126.762 143.731 127.059 143.934 127.422C144.137 127.77 144.239 128.206 144.239 128.728C144.239 129.468 144.086 130.092 143.782 130.599C143.491 131.093 143.107 131.491 142.628 131.796C142.15 132.101 141.598 132.311 140.975 132.427C140.365 132.558 139.741 132.623 139.103 132.623C138.451 132.623 137.812 132.558 137.188 132.427C136.564 132.296 136.006 132.079 135.513 131.774C135.034 131.47 134.635 131.071 134.316 130.577C134.012 130.07 133.844 129.439 133.816 128.684H136.753ZM146.656 116.803H149.746V125.137L153.641 121.09H157.297L153.053 125.224L157.775 132.34H154.033L150.943 127.313L149.746 128.467V132.34H146.656V116.803ZM162.372 119.349H159.282V116.803H162.372V119.349ZM159.282 121.09H162.372V132.34H159.282V121.09ZM165.132 121.09H168.069V122.657H168.134C168.526 122.004 169.034 121.532 169.658 121.242C170.281 120.938 170.92 120.785 171.572 120.785C172.399 120.785 173.074 120.901 173.596 121.134C174.132 121.351 174.554 121.663 174.858 122.069C175.163 122.461 175.373 122.947 175.489 123.527C175.62 124.093 175.685 124.724 175.685 125.42V132.34H172.595V125.986C172.595 125.057 172.45 124.369 172.16 123.919C171.869 123.455 171.355 123.223 170.615 123.223C169.773 123.223 169.164 123.477 168.787 123.984C168.41 124.478 168.221 125.297 168.221 126.443V132.34H165.132V121.09ZM183.601 129.685C184.036 129.685 184.42 129.598 184.754 129.424C185.087 129.25 185.363 129.018 185.581 128.728C185.798 128.438 185.958 128.112 186.06 127.749C186.175 127.372 186.234 126.98 186.234 126.574C186.234 126.11 186.19 125.674 186.103 125.268C186.016 124.848 185.871 124.478 185.668 124.158C185.465 123.839 185.196 123.585 184.863 123.397C184.529 123.208 184.108 123.114 183.601 123.114C183.165 123.114 182.788 123.201 182.469 123.375C182.164 123.549 181.903 123.788 181.686 124.093C181.483 124.383 181.331 124.724 181.229 125.116C181.142 125.493 181.098 125.892 181.098 126.312C181.098 126.719 181.135 127.125 181.207 127.531C181.294 127.923 181.432 128.278 181.62 128.597C181.823 128.917 182.084 129.178 182.404 129.381C182.723 129.584 183.122 129.685 183.601 129.685ZM189.171 131.622C189.171 132.072 189.106 132.586 188.975 133.167C188.86 133.747 188.598 134.284 188.192 134.777C187.786 135.285 187.198 135.713 186.429 136.061C185.661 136.409 184.63 136.583 183.34 136.583C182.788 136.583 182.223 136.511 181.642 136.366C181.076 136.235 180.554 136.024 180.076 135.735C179.612 135.445 179.22 135.067 178.9 134.603C178.596 134.153 178.422 133.609 178.378 132.971H181.446C181.592 133.552 181.875 133.95 182.295 134.168C182.716 134.4 183.202 134.516 183.753 134.516C184.623 134.516 185.254 134.255 185.646 133.733C186.052 133.21 186.248 132.551 186.234 131.752V130.273H186.19C185.857 130.867 185.378 131.31 184.754 131.6C184.145 131.876 183.499 132.014 182.817 132.014C181.976 132.014 181.251 131.868 180.641 131.578C180.032 131.274 179.532 130.867 179.14 130.36C178.748 129.838 178.458 129.235 178.269 128.554C178.095 127.857 178.008 127.125 178.008 126.356C178.008 125.631 178.11 124.935 178.313 124.267C178.531 123.585 178.842 122.99 179.249 122.483C179.655 121.96 180.156 121.547 180.75 121.242C181.359 120.938 182.056 120.785 182.839 120.785C183.579 120.785 184.225 120.923 184.776 121.199C185.341 121.475 185.813 121.939 186.19 122.592H186.234V121.09H189.171V131.622ZM92.7296 157.457C92.1203 158.241 91.4458 158.792 90.7059 159.111C89.9661 159.416 89.2192 159.568 88.4646 159.568C87.2749 159.568 86.2016 159.365 85.2442 158.959C84.3014 158.538 83.5034 157.965 82.8506 157.24C82.1978 156.515 81.6973 155.666 81.3491 154.694C81.001 153.708 80.8269 152.648 80.8269 151.517C80.8269 150.357 81.001 149.283 81.3491 148.296C81.6973 147.296 82.1978 146.425 82.8506 145.685C83.5034 144.945 84.3014 144.365 85.2442 143.944C86.2016 143.524 87.2749 143.313 88.4646 143.313C89.2627 143.313 90.0314 143.437 90.7712 143.683C91.5258 143.916 92.2003 144.264 92.7949 144.728C93.4042 145.192 93.9046 145.765 94.2963 146.447C94.688 147.128 94.9274 147.912 95.0144 148.797H91.7504C91.5475 147.927 91.1558 147.274 90.5754 146.839C89.9949 146.403 89.2915 146.186 88.4646 146.186C87.696 146.186 87.0432 146.338 86.5062 146.643C85.9693 146.933 85.5341 147.332 85.2006 147.84C84.8672 148.333 84.6202 148.899 84.4608 149.537C84.3155 150.175 84.2432 150.835 84.2432 151.517C84.2432 152.17 84.3155 152.808 84.4608 153.432C84.6202 154.041 84.8672 154.592 85.2006 155.086C85.5341 155.579 85.9693 155.978 86.5062 156.282C87.0432 156.572 87.696 156.718 88.4646 156.718C89.5962 156.718 90.4666 156.435 91.0758 155.869C91.6998 155.288 92.0621 154.455 92.1638 153.367H88.7258V150.821H95.2538V159.22H93.0778L92.7296 157.457ZM100.755 153.606C100.755 154.056 100.798 154.498 100.885 154.933C100.972 155.354 101.117 155.738 101.32 156.087C101.538 156.42 101.821 156.689 102.169 156.892C102.517 157.095 102.952 157.196 103.475 157.196C103.997 157.196 104.432 157.095 104.78 156.892C105.142 156.689 105.425 156.42 105.629 156.087C105.846 155.738 105.999 155.354 106.086 154.933C106.173 154.498 106.216 154.056 106.216 153.606C106.216 153.156 106.173 152.714 106.086 152.279C105.999 151.843 105.846 151.459 105.629 151.125C105.425 150.792 105.142 150.523 104.78 150.32C104.432 150.103 103.997 149.994 103.475 149.994C102.952 149.994 102.517 150.103 102.169 150.32C101.821 150.523 101.538 150.792 101.32 151.125C101.117 151.459 100.972 151.843 100.885 152.279C100.798 152.714 100.755 153.156 100.755 153.606ZM97.6646 153.606C97.6646 152.707 97.8022 151.894 98.0781 151.169C98.3533 150.429 98.745 149.805 99.2531 149.297C99.7606 148.775 100.37 148.376 101.081 148.101C101.791 147.811 102.589 147.665 103.475 147.665C104.359 147.665 105.157 147.811 105.868 148.101C106.593 148.376 107.21 148.775 107.718 149.297C108.225 149.805 108.617 150.429 108.893 151.169C109.168 151.894 109.306 152.707 109.306 153.606C109.306 154.505 109.168 155.318 108.893 156.043C108.617 156.768 108.225 157.392 107.718 157.914C107.21 158.422 106.593 158.814 105.868 159.089C105.157 159.365 104.359 159.503 103.475 159.503C102.589 159.503 101.791 159.365 101.081 159.089C100.37 158.814 99.7606 158.422 99.2531 157.914C98.745 157.392 98.3533 156.768 98.0781 156.043C97.8022 155.318 97.6646 154.505 97.6646 153.606ZM117.865 159.22H114.427L110.575 147.97H113.818L116.189 155.651H116.233L118.605 147.97H121.673L117.865 159.22ZM130.845 152.387C130.7 151.604 130.439 151.009 130.062 150.603C129.699 150.197 129.141 149.994 128.387 149.994C127.893 149.994 127.48 150.081 127.146 150.255C126.827 150.414 126.566 150.618 126.363 150.864C126.174 151.111 126.036 151.372 125.949 151.648C125.877 151.923 125.834 152.17 125.819 152.387H130.845ZM125.819 154.346C125.862 155.347 126.116 156.072 126.58 156.522C127.044 156.972 127.712 157.196 128.582 157.196C129.206 157.196 129.743 157.044 130.193 156.739C130.643 156.42 130.918 156.087 131.02 155.738H133.74C133.304 157.088 132.637 158.052 131.738 158.632C130.838 159.213 129.75 159.503 128.474 159.503C127.588 159.503 126.791 159.365 126.08 159.089C125.369 158.8 124.767 158.393 124.274 157.871C123.78 157.349 123.396 156.725 123.121 156C122.86 155.274 122.729 154.476 122.729 153.606C122.729 152.764 122.867 151.981 123.142 151.256C123.418 150.531 123.81 149.907 124.317 149.384C124.825 148.848 125.427 148.427 126.124 148.122C126.835 147.818 127.618 147.665 128.474 147.665C129.431 147.665 130.265 147.854 130.976 148.231C131.687 148.594 132.267 149.087 132.717 149.711C133.181 150.335 133.515 151.045 133.718 151.843C133.921 152.641 133.994 153.475 133.935 154.346H125.819ZM136.094 147.97H139.032V150.059H139.075C139.22 149.711 139.416 149.392 139.663 149.102C139.91 148.797 140.193 148.543 140.511 148.34C140.831 148.122 141.172 147.955 141.534 147.84C141.897 147.724 142.274 147.665 142.666 147.665C142.869 147.665 143.094 147.702 143.34 147.774V150.647C143.196 150.618 143.021 150.596 142.818 150.581C142.615 150.552 142.419 150.538 142.23 150.538C141.665 150.538 141.186 150.632 140.794 150.821C140.403 151.009 140.084 151.271 139.837 151.604C139.605 151.923 139.438 152.3 139.336 152.736C139.235 153.171 139.184 153.642 139.184 154.15V159.22H136.094V147.97ZM145.261 147.97H148.198V149.537H148.264C148.655 148.884 149.163 148.412 149.787 148.122C150.411 147.818 151.049 147.665 151.702 147.665C152.529 147.665 153.203 147.781 153.725 148.014C154.262 148.231 154.683 148.543 154.988 148.949C155.292 149.341 155.503 149.827 155.619 150.407C155.749 150.973 155.814 151.604 155.814 152.3V159.22H152.724V152.866C152.724 151.937 152.579 151.249 152.289 150.799C151.999 150.335 151.484 150.103 150.744 150.103C149.903 150.103 149.293 150.357 148.916 150.864C148.54 151.358 148.351 152.177 148.351 153.323V159.22H145.261V147.97ZM158.573 147.97H161.489V149.493H161.532C161.939 148.913 162.424 148.464 162.99 148.144C163.571 147.825 164.23 147.665 164.97 147.665C165.681 147.665 166.327 147.803 166.907 148.079C167.502 148.355 167.951 148.84 168.256 149.537C168.59 149.043 169.039 148.608 169.605 148.231C170.186 147.854 170.867 147.665 171.651 147.665C172.246 147.665 172.797 147.738 173.304 147.883C173.812 148.028 174.248 148.26 174.61 148.579C174.973 148.899 175.256 149.319 175.459 149.841C175.662 150.349 175.763 150.966 175.763 151.691V159.22H172.673V152.844C172.673 152.467 172.659 152.112 172.63 151.778C172.601 151.445 172.521 151.154 172.39 150.908C172.26 150.661 172.064 150.465 171.803 150.32C171.556 150.175 171.215 150.103 170.78 150.103C170.345 150.103 169.99 150.19 169.714 150.364C169.453 150.523 169.243 150.741 169.083 151.016C168.938 151.278 168.836 151.582 168.778 151.93C168.735 152.264 168.713 152.605 168.713 152.953V159.22H165.623V152.91C165.623 152.576 165.616 152.25 165.601 151.93C165.587 151.597 165.522 151.292 165.405 151.016C165.304 150.741 165.123 150.523 164.861 150.364C164.615 150.19 164.245 150.103 163.752 150.103C163.607 150.103 163.411 150.139 163.164 150.211C162.932 150.27 162.7 150.392 162.468 150.581C162.25 150.755 162.062 151.016 161.902 151.365C161.743 151.698 161.663 152.141 161.663 152.692V159.22H158.573V147.97ZM186.105 152.387C185.96 151.604 185.699 151.009 185.322 150.603C184.959 150.197 184.4 149.994 183.646 149.994C183.153 149.994 182.739 150.081 182.406 150.255C182.086 150.414 181.825 150.618 181.622 150.864C181.434 151.111 181.296 151.372 181.209 151.648C181.136 151.923 181.092 152.17 181.078 152.387H186.105ZM181.078 154.346C181.122 155.347 181.375 156.072 181.84 156.522C182.304 156.972 182.972 157.196 183.842 157.196C184.465 157.196 185.002 157.044 185.452 156.739C185.901 156.42 186.177 156.087 186.279 155.738H188.999C188.564 157.088 187.896 158.052 186.997 158.632C186.097 159.213 185.009 159.503 183.733 159.503C182.848 159.503 182.05 159.365 181.34 159.089C180.628 158.8 180.026 158.393 179.533 157.871C179.04 157.349 178.655 156.725 178.38 156C178.119 155.274 177.988 154.476 177.988 153.606C177.988 152.764 178.126 151.981 178.402 151.256C178.677 150.531 179.069 149.907 179.577 149.384C180.084 148.848 180.687 148.427 181.383 148.122C182.093 147.818 182.877 147.665 183.733 147.665C184.691 147.665 185.524 147.854 186.236 148.231C186.946 148.594 187.526 149.087 187.976 149.711C188.44 150.335 188.774 151.045 188.977 151.843C189.18 152.641 189.252 153.475 189.195 154.346H181.078ZM191.354 147.97H194.291V149.537H194.356C194.748 148.884 195.256 148.412 195.88 148.122C196.504 147.818 197.142 147.665 197.795 147.665C198.621 147.665 199.296 147.781 199.818 148.014C200.355 148.231 200.776 148.543 201.08 148.949C201.385 149.341 201.596 149.827 201.711 150.407C201.842 150.973 201.907 151.604 201.907 152.3V159.22H198.817V152.866C198.817 151.937 198.673 151.249 198.382 150.799C198.092 150.335 197.577 150.103 196.837 150.103C195.996 150.103 195.387 150.357 195.009 150.864C194.632 151.358 194.444 152.177 194.444 153.323V159.22H191.354V147.97ZM208.496 147.97H210.759V150.037H208.496V155.608C208.496 156.13 208.583 156.478 208.757 156.652C208.931 156.826 209.279 156.913 209.802 156.913C209.976 156.913 210.142 156.906 210.302 156.892C210.461 156.877 210.614 156.855 210.759 156.826V159.22C210.498 159.264 210.207 159.292 209.889 159.307C209.569 159.322 209.258 159.329 208.953 159.329C208.474 159.329 208.017 159.292 207.582 159.22C207.161 159.162 206.784 159.039 206.451 158.85C206.131 158.661 205.877 158.393 205.689 158.045C205.5 157.697 205.406 157.24 205.406 156.674V150.037H203.535V147.97H205.406V144.597H208.496V147.97ZM84.9395 173.436H80.2829V170.563H93.0125V173.436H88.3558V186.1H84.9395V173.436ZM99.9539 179.267C99.8086 178.484 99.5475 177.889 99.1706 177.483C98.8077 177.077 98.2496 176.874 97.495 176.874C97.0016 176.874 96.5882 176.961 96.2547 177.135C95.9354 177.294 95.6742 177.498 95.4714 177.744C95.2826 177.991 95.145 178.252 95.0579 178.528C94.9856 178.803 94.9421 179.05 94.9274 179.267H99.9539ZM94.9274 181.226C94.9709 182.227 95.225 182.952 95.689 183.402C96.153 183.852 96.8205 184.076 97.6909 184.076C98.3149 184.076 98.8512 183.924 99.3011 183.619C99.751 183.3 100.026 182.967 100.128 182.618H102.848C102.413 183.968 101.745 184.932 100.846 185.512C99.9469 186.093 98.8589 186.383 97.5821 186.383C96.697 186.383 95.8995 186.245 95.1885 185.969C94.4774 185.68 93.8758 185.273 93.3824 184.751C92.889 184.229 92.505 183.605 92.2291 182.88C91.968 182.154 91.8374 181.356 91.8374 180.486C91.8374 179.644 91.975 178.861 92.2509 178.136C92.5267 177.411 92.9184 176.787 93.4259 176.264C93.9334 175.728 94.5357 175.307 95.232 175.002C95.943 174.698 96.7264 174.545 97.5821 174.545C98.5395 174.545 99.3734 174.734 100.084 175.111C100.796 175.474 101.375 175.967 101.825 176.591C102.289 177.215 102.623 177.925 102.826 178.723C103.029 179.521 103.102 180.355 103.044 181.226H94.9274ZM112.862 178.81C112.659 177.52 111.898 176.874 110.577 176.874C110.084 176.874 109.671 176.99 109.337 177.222C109.004 177.44 108.728 177.729 108.51 178.092C108.307 178.44 108.162 178.832 108.075 179.267C107.988 179.688 107.944 180.109 107.944 180.529C107.944 180.936 107.988 181.349 108.075 181.77C108.162 182.19 108.3 182.575 108.488 182.923C108.692 183.256 108.96 183.532 109.293 183.75C109.628 183.968 110.033 184.076 110.512 184.076C111.252 184.076 111.818 183.873 112.209 183.467C112.616 183.047 112.87 182.488 112.971 181.792H115.952C115.749 183.286 115.169 184.424 114.211 185.208C113.254 185.991 112.028 186.383 110.534 186.383C109.693 186.383 108.916 186.245 108.205 185.969C107.509 185.68 106.915 185.28 106.421 184.773C105.928 184.265 105.544 183.663 105.268 182.967C104.993 182.256 104.854 181.48 104.854 180.638C104.854 179.768 104.978 178.963 105.224 178.223C105.485 177.468 105.863 176.823 106.356 176.286C106.849 175.735 107.452 175.307 108.162 175.002C108.873 174.698 109.685 174.545 110.599 174.545C111.267 174.545 111.905 174.632 112.514 174.807C113.138 174.981 113.689 175.249 114.168 175.612C114.661 175.96 115.06 176.402 115.364 176.939C115.669 177.461 115.843 178.085 115.887 178.81H112.862ZM118.024 170.563H121.114V176.417H121.18C121.571 175.764 122.072 175.292 122.681 175.002C123.29 174.698 123.885 174.545 124.465 174.545C125.292 174.545 125.967 174.661 126.489 174.894C127.026 175.111 127.446 175.423 127.751 175.829C128.056 176.221 128.266 176.707 128.382 177.287C128.513 177.853 128.578 178.484 128.578 179.18V186.1H125.488V179.746C125.488 178.817 125.343 178.129 125.053 177.679C124.763 177.215 124.248 176.983 123.508 176.983C122.666 176.983 122.057 177.237 121.68 177.744C121.303 178.238 121.114 179.057 121.114 180.203V186.1H118.024V170.563ZM131.249 174.85H134.187V176.417H134.252C134.644 175.764 135.152 175.292 135.775 175.002C136.399 174.698 137.037 174.545 137.69 174.545C138.517 174.545 139.192 174.661 139.714 174.894C140.251 175.111 140.671 175.423 140.976 175.829C141.281 176.221 141.491 176.707 141.607 177.287C141.738 177.853 141.803 178.484 141.803 179.18V186.1H138.713V179.746C138.713 178.817 138.568 178.129 138.278 177.679C137.988 177.215 137.473 176.983 136.733 176.983C135.892 176.983 135.283 177.237 134.905 177.744C134.528 178.238 134.339 179.057 134.339 180.203V186.1H131.249V174.85ZM147.216 180.486C147.216 180.936 147.26 181.378 147.347 181.813C147.434 182.234 147.579 182.618 147.782 182.967C147.999 183.3 148.282 183.569 148.63 183.772C148.979 183.975 149.414 184.076 149.936 184.076C150.458 184.076 150.893 183.975 151.242 183.772C151.604 183.569 151.887 183.3 152.09 182.967C152.308 182.618 152.46 182.234 152.547 181.813C152.634 181.378 152.678 180.936 152.678 180.486C152.678 180.036 152.634 179.594 152.547 179.159C152.46 178.723 152.308 178.339 152.09 178.005C151.887 177.672 151.604 177.403 151.242 177.2C150.893 176.983 150.458 176.874 149.936 176.874C149.414 176.874 148.979 176.983 148.63 177.2C148.282 177.403 147.999 177.672 147.782 178.005C147.579 178.339 147.434 178.723 147.347 179.159C147.26 179.594 147.216 180.036 147.216 180.486ZM144.126 180.486C144.126 179.587 144.264 178.774 144.54 178.049C144.815 177.309 145.207 176.685 145.715 176.177C146.223 175.655 146.832 175.256 147.542 174.981C148.253 174.691 149.052 174.545 149.936 174.545C150.821 174.545 151.619 174.691 152.33 174.981C153.055 175.256 153.672 175.655 154.179 176.177C154.687 176.685 155.079 177.309 155.354 178.049C155.63 178.774 155.768 179.587 155.768 180.486C155.768 181.385 155.63 182.198 155.354 182.923C155.079 183.648 154.687 184.272 154.179 184.794C153.672 185.302 153.055 185.694 152.33 185.969C151.619 186.245 150.821 186.383 149.936 186.383C149.052 186.383 148.253 186.245 147.542 185.969C146.832 185.694 146.223 185.302 145.715 184.794C145.207 184.272 144.815 183.648 144.54 182.923C144.264 182.198 144.126 181.385 144.126 180.486ZM158.191 170.563H161.281V186.1H158.191V170.563ZM166.781 180.486C166.781 180.936 166.825 181.378 166.912 181.813C166.999 182.234 167.144 182.618 167.347 182.967C167.565 183.3 167.848 183.569 168.196 183.772C168.544 183.975 168.979 184.076 169.501 184.076C170.024 184.076 170.459 183.975 170.807 183.772C171.17 183.569 171.453 183.3 171.656 182.967C171.873 182.618 172.026 182.234 172.113 181.813C172.2 181.378 172.243 180.936 172.243 180.486C172.243 180.036 172.2 179.594 172.113 179.159C172.026 178.723 171.873 178.339 171.656 178.005C171.453 177.672 171.17 177.403 170.807 177.2C170.459 176.983 170.024 176.874 169.501 176.874C168.979 176.874 168.544 176.983 168.196 177.2C167.848 177.403 167.565 177.672 167.347 178.005C167.144 178.339 166.999 178.723 166.912 179.159C166.825 179.594 166.781 180.036 166.781 180.486ZM163.692 180.486C163.692 179.587 163.83 178.774 164.105 178.049C164.381 177.309 164.772 176.685 165.28 176.177C165.788 175.655 166.397 175.256 167.108 174.981C167.819 174.691 168.617 174.545 169.501 174.545C170.387 174.545 171.185 174.691 171.895 174.981C172.621 175.256 173.237 175.655 173.745 176.177C174.253 176.685 174.644 177.309 174.92 178.049C175.196 178.774 175.333 179.587 175.333 180.486C175.333 181.385 175.196 182.198 174.92 182.923C174.644 183.648 174.253 184.272 173.745 184.794C173.237 185.302 172.621 185.694 171.895 185.969C171.185 186.245 170.387 186.383 169.501 186.383C168.617 186.383 167.819 186.245 167.108 185.969C166.397 185.694 165.788 185.302 165.28 184.794C164.772 184.272 164.381 183.648 164.105 182.923C163.83 182.198 163.692 181.385 163.692 180.486ZM182.913 183.445C183.348 183.445 183.732 183.358 184.066 183.184C184.4 183.01 184.675 182.778 184.893 182.488C185.11 182.198 185.27 181.872 185.372 181.509C185.488 181.132 185.546 180.74 185.546 180.334C185.546 179.87 185.502 179.434 185.415 179.028C185.328 178.608 185.183 178.238 184.98 177.918C184.777 177.599 184.509 177.345 184.175 177.157C183.841 176.968 183.421 176.874 182.913 176.874C182.477 176.874 182.1 176.961 181.781 177.135C181.476 177.309 181.215 177.548 180.998 177.853C180.795 178.143 180.643 178.484 180.541 178.876C180.454 179.253 180.41 179.652 180.41 180.072C180.41 180.479 180.447 180.885 180.519 181.291C180.606 181.683 180.744 182.038 180.932 182.357C181.136 182.677 181.397 182.938 181.716 183.141C182.035 183.344 182.434 183.445 182.913 183.445ZM188.483 185.382C188.483 185.832 188.418 186.346 188.287 186.927C188.172 187.507 187.91 188.044 187.504 188.537C187.098 189.045 186.511 189.473 185.741 189.821C184.973 190.169 183.943 190.343 182.652 190.343C182.1 190.343 181.535 190.271 180.954 190.126C180.388 189.995 179.866 189.784 179.388 189.495C178.924 189.205 178.532 188.827 178.212 188.363C177.908 187.913 177.734 187.369 177.69 186.731H180.758C180.904 187.312 181.187 187.71 181.607 187.928C182.028 188.16 182.514 188.276 183.065 188.276C183.935 188.276 184.566 188.015 184.958 187.493C185.364 186.97 185.56 186.311 185.546 185.512V184.033H185.502C185.169 184.627 184.69 185.07 184.066 185.36C183.457 185.636 182.812 185.774 182.129 185.774C181.288 185.774 180.563 185.628 179.953 185.338C179.344 185.034 178.844 184.627 178.452 184.12C178.06 183.598 177.77 182.995 177.581 182.314C177.407 181.617 177.32 180.885 177.32 180.116C177.32 179.391 177.422 178.695 177.625 178.027C177.843 177.345 178.155 176.75 178.561 176.243C178.967 175.72 179.468 175.307 180.062 175.002C180.671 174.698 181.368 174.545 182.151 174.545C182.891 174.545 183.537 174.683 184.088 174.959C184.653 175.235 185.125 175.699 185.502 176.352H185.546V174.85H188.483V185.382ZM196.847 187.493C196.513 188.407 196.049 189.059 195.454 189.451C194.859 189.843 194.032 190.039 192.973 190.039C192.654 190.039 192.335 190.024 192.016 189.995C191.711 189.98 191.399 189.959 191.08 189.93V187.384C191.37 187.413 191.668 187.442 191.972 187.471C192.277 187.5 192.582 187.507 192.886 187.493C193.292 187.449 193.59 187.29 193.779 187.014C193.981 186.738 194.083 186.433 194.083 186.1C194.083 185.854 194.04 185.621 193.953 185.404L190.014 174.85H193.3L195.846 182.553H195.889L198.348 174.85H201.547L196.847 187.493Z" fill="#1C304A"/>
<path d="M240 204.02H80V210.42H240V204.02Z" fill="#1C304A"/>
<path d="M165.813 233.72C165.68 233 165.44 232.453 165.093 232.08C164.76 231.707 164.247 231.52 163.553 231.52C163.1 231.52 162.72 231.6 162.413 231.76C162.12 231.907 161.88 232.093 161.693 232.32C161.52 232.547 161.393 232.787 161.313 233.04C161.247 233.293 161.207 233.52 161.193 233.72H165.813ZM161.193 235.52C161.233 236.44 161.467 237.107 161.893 237.52C162.32 237.933 162.933 238.14 163.733 238.14C164.307 238.14 164.8 238 165.213 237.72C165.627 237.427 165.88 237.12 165.973 236.8H168.473C168.073 238.04 167.46 238.927 166.633 239.46C165.807 239.993 164.807 240.26 163.633 240.26C162.82 240.26 162.087 240.133 161.433 239.88C160.78 239.613 160.227 239.24 159.773 238.76C159.32 238.28 158.967 237.707 158.713 237.04C158.473 236.373 158.353 235.64 158.353 234.84C158.353 234.067 158.48 233.347 158.733 232.68C158.987 232.013 159.347 231.44 159.813 230.96C160.28 230.467 160.833 230.08 161.473 229.8C162.127 229.52 162.847 229.38 163.633 229.38C164.513 229.38 165.28 229.553 165.933 229.9C166.587 230.233 167.12 230.687 167.533 231.26C167.96 231.833 168.267 232.487 168.453 233.22C168.64 233.953 168.707 234.72 168.653 235.52H161.193Z" fill="#1C304A"/>
<path d="M153.967 234.8C153.967 234.373 153.927 233.967 153.847 233.58C153.767 233.18 153.627 232.833 153.427 232.54C153.24 232.233 152.994 231.987 152.687 231.8C152.38 231.613 151.994 231.52 151.527 231.52C151.06 231.52 150.667 231.613 150.347 231.8C150.027 231.987 149.767 232.233 149.567 232.54C149.38 232.847 149.24 233.2 149.147 233.6C149.067 233.987 149.027 234.393 149.027 234.82C149.027 235.22 149.074 235.62 149.167 236.02C149.26 236.42 149.407 236.78 149.607 237.1C149.82 237.407 150.08 237.66 150.387 237.86C150.707 238.047 151.087 238.14 151.527 238.14C151.994 238.14 152.38 238.047 152.687 237.86C153.007 237.673 153.26 237.427 153.447 237.12C153.634 236.8 153.767 236.44 153.847 236.04C153.927 235.64 153.967 235.227 153.967 234.8ZM154.007 238.68H153.967C153.634 239.24 153.194 239.647 152.647 239.9C152.114 240.14 151.507 240.26 150.827 240.26C150.054 240.26 149.374 240.113 148.787 239.82C148.2 239.513 147.714 239.107 147.327 238.6C146.954 238.08 146.667 237.487 146.467 236.82C146.28 236.153 146.187 235.46 146.187 234.74C146.187 234.047 146.28 233.38 146.467 232.74C146.667 232.087 146.954 231.513 147.327 231.02C147.714 230.527 148.194 230.133 148.767 229.84C149.34 229.533 150.007 229.38 150.767 229.38C151.38 229.38 151.96 229.513 152.507 229.78C153.067 230.033 153.507 230.413 153.827 230.92H153.867V225.72H156.707V240H154.007V238.68Z" fill="#1C304A"/>
<path d="M144.391 228.06H141.551V225.72H144.391V228.06ZM141.551 229.66H144.391V240H141.551V229.66Z" fill="#1C304A"/>
<path d="M139.315 240H136.615V238.56H136.555C136.195 239.16 135.728 239.593 135.155 239.86C134.582 240.127 133.995 240.26 133.395 240.26C132.635 240.26 132.008 240.16 131.515 239.96C131.035 239.76 130.655 239.48 130.375 239.12C130.095 238.747 129.895 238.3 129.775 237.78C129.668 237.247 129.615 236.66 129.615 236.02V229.66H132.455V235.5C132.455 236.353 132.588 236.993 132.855 237.42C133.122 237.833 133.595 238.04 134.275 238.04C135.048 238.04 135.608 237.813 135.955 237.36C136.302 236.893 136.475 236.133 136.475 235.08V229.66H139.315V240Z" fill="#1C304A"/>
<path d="M125.059 238.38C124.499 239.1 123.879 239.607 123.199 239.9C122.519 240.18 121.833 240.32 121.139 240.32C120.046 240.32 119.059 240.133 118.179 239.76C117.313 239.373 116.579 238.847 115.979 238.18C115.379 237.513 114.919 236.733 114.599 235.84C114.279 234.933 114.119 233.96 114.119 232.92C114.119 231.853 114.279 230.867 114.599 229.96C114.919 229.04 115.379 228.24 115.979 227.56C116.579 226.88 117.313 226.347 118.179 225.96C119.059 225.573 120.046 225.38 121.139 225.38C121.873 225.38 122.579 225.493 123.259 225.72C123.953 225.933 124.573 226.253 125.119 226.68C125.679 227.107 126.139 227.633 126.499 228.26C126.859 228.887 127.079 229.607 127.159 230.42H124.159C123.973 229.62 123.613 229.02 123.079 228.62C122.546 228.22 121.899 228.02 121.139 228.02C120.433 228.02 119.833 228.16 119.339 228.44C118.846 228.707 118.446 229.073 118.139 229.54C117.833 229.993 117.606 230.513 117.459 231.1C117.326 231.687 117.259 232.293 117.259 232.92C117.259 233.52 117.326 234.107 117.459 234.68C117.606 235.24 117.833 235.747 118.139 236.2C118.446 236.653 118.846 237.02 119.339 237.3C119.833 237.567 120.433 237.7 121.139 237.7C122.179 237.7 122.979 237.44 123.539 236.92C124.113 236.387 124.446 235.62 124.539 234.62H121.379V232.28H127.379V240H125.379L125.059 238.38Z" fill="#1C304A"/>
<path d="M99.9397 232.94C99.9397 233.34 99.953 233.827 99.9797 234.4C100.006 234.96 100.086 235.507 100.22 236.04C100.366 236.56 100.593 237.007 100.9 237.38C101.206 237.753 101.646 237.94 102.22 237.94C102.806 237.94 103.253 237.753 103.56 237.38C103.88 237.007 104.106 236.56 104.24 236.04C104.386 235.507 104.473 234.96 104.5 234.4C104.526 233.827 104.54 233.34 104.54 232.94C104.54 232.7 104.533 232.413 104.52 232.08C104.52 231.733 104.493 231.38 104.44 231.02C104.4 230.66 104.333 230.307 104.24 229.96C104.16 229.6 104.033 229.28 103.86 229C103.686 228.72 103.466 228.493 103.2 228.32C102.933 228.147 102.606 228.06 102.22 228.06C101.833 228.06 101.506 228.147 101.24 228.32C100.986 228.493 100.773 228.72 100.6 229C100.44 229.28 100.313 229.6 100.22 229.96C100.126 230.307 100.06 230.66 100.02 231.02C99.9797 231.38 99.953 231.733 99.9397 232.08C99.9397 232.413 99.9397 232.7 99.9397 232.94ZM97.0997 232.94C97.0997 231.58 97.233 230.44 97.4997 229.52C97.7797 228.587 98.153 227.84 98.6197 227.28C99.0864 226.72 99.6264 226.32 100.24 226.08C100.866 225.84 101.526 225.72 102.22 225.72C102.926 225.72 103.586 225.84 104.2 226.08C104.826 226.32 105.373 226.72 105.84 227.28C106.32 227.84 106.693 228.587 106.96 229.52C107.24 230.44 107.38 231.58 107.38 232.94C107.38 234.34 107.24 235.513 106.96 236.46C106.693 237.393 106.32 238.14 105.84 238.7C105.373 239.26 104.826 239.66 104.2 239.9C103.586 240.14 102.926 240.26 102.22 240.26C101.526 240.26 100.866 240.14 100.24 239.9C99.6264 239.66 99.0864 239.26 98.6197 238.7C98.153 238.14 97.7797 237.393 97.4997 236.46C97.233 235.513 97.0997 234.34 97.0997 232.94Z" fill="#1C304A"/>
<path d="M92.3133 236.92H95.4533V240H92.3133V236.92Z" fill="#1C304A"/>
<path d="M80.74 231.38C80.7133 230.58 80.8067 229.84 81.02 229.16C81.2333 228.467 81.5533 227.867 81.98 227.36C82.4067 226.84 82.94 226.44 83.58 226.16C84.2333 225.867 84.98 225.72 85.82 225.72C86.46 225.72 87.0667 225.82 87.64 226.02C88.2267 226.22 88.74 226.507 89.18 226.88C89.62 227.253 89.9667 227.713 90.22 228.26C90.4867 228.807 90.62 229.42 90.62 230.1C90.62 230.807 90.5067 231.413 90.28 231.92C90.0533 232.427 89.7533 232.88 89.38 233.28C89.0067 233.667 88.58 234.02 88.1 234.34C87.6333 234.66 87.16 234.98 86.68 235.3C86.2 235.607 85.7333 235.94 85.28 236.3C84.8267 236.66 84.4267 237.08 84.08 237.56H90.7V240H80.42C80.42 239.187 80.5333 238.48 80.76 237.88C81 237.28 81.32 236.747 81.72 236.28C82.12 235.8 82.5867 235.36 83.12 234.96C83.6667 234.56 84.24 234.153 84.84 233.74C85.1467 233.527 85.4733 233.313 85.82 233.1C86.1667 232.873 86.48 232.627 86.76 232.36C87.0533 232.093 87.2933 231.793 87.48 231.46C87.68 231.127 87.78 230.747 87.78 230.32C87.78 229.64 87.58 229.113 87.18 228.74C86.7933 228.353 86.2933 228.16 85.68 228.16C85.2667 228.16 84.9133 228.26 84.62 228.46C84.34 228.647 84.1133 228.9 83.94 229.22C83.7667 229.527 83.64 229.873 83.56 230.26C83.4933 230.633 83.46 231.007 83.46 231.38H80.74Z" fill="#1C304A"/>
</g>
<path fill-rule="evenodd" clip-rule="evenodd" d="M4.48 160.74C4.48 246.631 74.1088 316.26 160 316.26C245.891 316.26 315.52 246.631 315.52 160.74H307.84C307.84 242.39 241.65 308.58 160 308.58C78.3501 308.58 12.16 242.39 12.16 160.74H4.48Z" fill="#00CFFF"/>
</g>
<defs>
<clipPath id="clip0_54_4812">
<rect width="320" height="315.52" fill="white" transform="translate(0 0.740005)"/>
</clipPath>
</defs>
</svg>
