<svg width="230" height="230" viewBox="0 0 230 230" fill="none" xmlns="http://www.w3.org/2000/svg">
<path d="M82.2159 50.8483C82.2159 32.4994 97.0892 17.626 115.438 17.626C133.787 17.626 148.66 32.4994 148.66 50.8483C148.66 69.1971 133.787 84.0705 115.438 84.0705C97.0892 84.0705 82.2159 69.1971 82.2159 50.8483Z" stroke="#36C6F4" stroke-width="8" stroke-miterlimit="10"/>
<path d="M110.67 63.5603H118.169V70.5625H110.67V63.5603ZM101.77 43.2911C101.77 41.2394 102.076 39.3702 102.697 37.6908C103.31 36.0114 104.208 34.573 105.384 33.3829C106.559 32.1854 107.976 31.2654 109.641 30.6083C111.305 29.9584 113.16 29.6298 115.212 29.6298C116.928 29.6298 118.527 29.8854 120.002 30.3892C121.477 30.893 122.762 31.6232 123.864 32.5724C124.967 33.5216 125.828 34.7117 126.471 36.1283C127.106 37.5448 127.42 39.1511 127.42 40.94C127.42 42.247 127.281 43.3787 127.004 44.3279C126.726 45.2771 126.347 46.1022 125.887 46.7886C125.419 47.4822 124.886 48.0956 124.295 48.6359C123.696 49.1762 123.097 49.7092 122.499 50.2349C121.79 50.8337 121.133 51.4105 120.542 51.9727C119.943 52.5276 119.425 53.1556 118.972 53.8492C118.519 54.5429 118.176 55.3533 117.935 56.2879C117.694 57.2225 117.57 58.3616 117.57 59.7051H111.524C111.524 58.0622 111.612 56.6749 111.773 55.5359C111.941 54.3968 112.211 53.4038 112.59 52.5422C112.963 51.6806 113.416 50.9286 113.963 50.2787C114.503 49.6216 115.146 48.979 115.898 48.3438C116.497 47.8254 117.066 47.3362 117.607 46.8908C118.147 46.4454 118.629 45.9489 119.06 45.4086C119.49 44.8683 119.826 44.2622 120.067 43.5905C120.308 42.9187 120.425 42.1156 120.425 41.181C120.425 40.0638 120.228 39.1 119.841 38.2968C119.447 37.4937 118.972 36.8511 118.41 36.3619C117.848 35.88 117.249 35.5222 116.621 35.2959C115.986 35.0695 115.423 34.96 114.942 34.96C112.627 34.96 110.918 35.7194 109.816 37.2308C108.713 38.7422 108.166 40.7721 108.166 43.3057H101.784L101.77 43.2911Z" fill="#F3F3F3"/>
<path d="M87.6191 184.46C87.6191 203.817 71.9279 219.508 52.5714 219.508C33.2149 219.508 17.5238 203.817 17.5238 184.46C17.5238 165.103 33.2149 149.412 52.5714 149.412C71.9279 149.412 87.6191 165.103 87.6191 184.46Z" fill="#00CFFF"/>
<path fill-rule="evenodd" clip-rule="evenodd" d="M72.2487 164.129C74.1623 165.278 74.7821 167.76 73.6331 169.674L52.5534 204.78C51.9185 205.837 50.8357 206.547 49.6129 206.707C48.3902 206.867 47.1612 206.46 46.2758 205.601L32.9577 192.692C31.355 191.139 31.3151 188.58 32.8686 186.977C34.422 185.375 36.9806 185.335 38.5833 186.888L48.2451 196.253L66.7035 165.513C67.8525 163.599 70.3352 162.98 72.2487 164.129Z" fill="#1C304A"/>
<path d="M212.476 184.46C212.476 203.817 196.785 219.508 177.429 219.508C158.072 219.508 142.381 203.817 142.381 184.46C142.381 165.103 158.072 149.412 177.429 149.412C196.785 149.412 212.476 165.103 212.476 184.46Z" fill="#F3F3F3"/>
<path fill-rule="evenodd" clip-rule="evenodd" d="M164.953 166.269C163.375 164.691 160.816 164.691 159.237 166.269C157.659 167.847 157.659 170.406 159.237 171.984L171.717 184.464L159.237 196.943C157.659 198.521 157.659 201.08 159.237 202.658C160.816 204.237 163.375 204.237 164.953 202.658L177.432 190.179L189.904 202.651C191.482 204.229 194.041 204.229 195.62 202.651C197.198 201.073 197.198 198.514 195.62 196.936L183.148 184.464L195.62 171.992C197.198 170.413 197.198 167.854 195.62 166.276C194.041 164.698 191.482 164.698 189.904 166.276L177.432 178.748L164.953 166.269Z" fill="#1C304A"/>
<path fill-rule="evenodd" clip-rule="evenodd" d="M173.887 129.69C173.885 129.676 173.883 129.662 173.881 129.648C173.438 126.496 172.527 122.093 170.659 117.158C166.936 107.32 159.42 95.3707 144.116 86.8915L147.655 80.5047C164.77 89.9874 173.285 103.469 177.488 114.573C179.583 120.108 180.609 125.053 181.112 128.631C181.167 129.028 181.217 129.407 181.26 129.77L189.513 129.859L177.867 142.111L166.491 129.611L173.887 129.69Z" fill="#F3F3F3"/>
<path fill-rule="evenodd" clip-rule="evenodd" d="M50.3096 129.77C50.3533 129.407 50.4026 129.028 50.4583 128.631C50.9613 125.053 51.9869 120.108 54.082 114.573C58.2845 103.469 66.7998 89.9874 83.9148 80.5047L87.4535 86.8915C72.1495 95.3707 64.6342 107.32 60.9108 117.158C59.0429 122.093 58.1318 126.496 57.6888 129.648C57.6868 129.662 57.6848 129.676 57.6828 129.69L65.079 129.611L53.7032 142.111L42.0571 129.859L50.3096 129.77Z" fill="#36C6F4"/>
</svg>
