<svg width="212" height="163" viewBox="0 0 212 163" fill="none" xmlns="http://www.w3.org/2000/svg">
<g clip-path="url(#clip0_121_4260)">
<path fill-rule="evenodd" clip-rule="evenodd" d="M205.617 115.37C205.691 117.57 203.968 119.398 201.769 119.452L188.636 119.774L188.106 141.351C188.054 143.461 186.367 145.148 184.257 145.2L154.701 145.926C153.605 145.953 152.542 145.527 151.762 144.747C150.983 143.968 150.556 142.905 150.583 141.808L151.102 120.697L124.205 121.358C122.79 133.086 115.854 143.733 105.487 149.916C94.0038 156.765 79.8969 157.179 68.5213 150.766C57.1241 144.34 50.4042 132.143 50.8178 118.915L50.8192 118.872C51.6578 98.8742 68.2941 82.5062 88.2955 82.0147C107.066 81.5535 122.338 95.2289 124.256 113.382L201.5 111.484C203.699 111.43 205.542 113.17 205.617 115.37ZM116.493 117.598C116.49 117.531 116.489 117.464 116.489 117.397C116.602 101.76 104.221 89.5973 88.5649 89.982C72.7426 90.3707 59.4581 103.426 58.7829 119.259C58.4673 129.596 63.6935 138.931 72.3865 143.832C81.107 148.749 92.1633 148.545 101.358 143.062C110.49 137.615 116.222 127.882 116.493 117.598ZM159.081 120.501L158.654 137.855L180.231 137.325L180.658 119.97L159.081 120.501Z" fill="#046B99" fill-opacity="0.5"/>
<path fill-rule="evenodd" clip-rule="evenodd" d="M169.237 32.9423C170.845 34.4454 170.919 36.9557 169.402 38.5492L160.344 48.0634L175.227 63.6955C176.682 65.2236 176.682 67.6106 175.227 69.1388L154.841 90.5514C154.085 91.3459 153.031 91.7962 151.929 91.7962C150.827 91.7962 149.773 91.3459 149.017 90.5514L134.456 75.2565L115.904 94.7431C123.197 104.037 125.821 116.47 122.862 128.173C119.585 141.135 109.903 151.403 97.3245 154.912C84.7218 158.427 71.3457 154.555 62.2841 144.908L62.2551 144.877C48.7073 130.143 48.897 106.806 62.6927 92.3151C75.6393 78.7161 96.1083 77.5871 110.301 89.0672L163.578 33.106C165.095 31.5125 167.629 31.4392 169.237 32.9423ZM107.792 97.5379C107.743 97.4926 107.695 97.4461 107.647 97.3982C96.6703 86.262 79.3152 86.4159 68.5168 97.7583C57.6036 109.221 57.4413 127.846 68.1596 139.519C75.2461 147.052 85.5423 149.957 95.1548 147.276C104.798 144.586 112.472 136.624 115.096 126.245C117.702 115.936 114.873 105.001 107.792 97.5379ZM139.959 69.4761L151.929 82.0494L166.812 66.4171L154.841 53.8438L139.959 69.4761Z" fill="#046B99" fill-opacity="0.5"/>
<path fill-rule="evenodd" clip-rule="evenodd" d="M84.1213 0.771305C86.3214 0.696936 88.1487 2.4197 88.2027 4.6192L88.5254 17.7516L110.102 18.2818C112.212 18.3336 113.899 20.0215 113.951 22.1308L114.678 51.6866C114.704 52.7832 114.278 53.8465 113.499 54.6259C112.719 55.4053 111.656 55.8319 110.559 55.8049L89.4477 55.2861L90.1086 82.1835C101.837 83.5986 112.484 90.5344 118.667 100.901C125.516 112.384 125.93 126.491 119.517 137.867C113.091 149.264 100.894 155.984 87.6658 155.57L87.6234 155.569C67.6253 154.73 51.2573 138.094 50.7658 118.093C50.3046 99.3219 63.98 84.0498 82.1335 82.1317L80.2355 4.88852C80.1814 2.68901 81.9212 0.845675 84.1213 0.771305ZM86.3491 89.8954C86.2822 89.8983 86.2151 89.8995 86.1479 89.899C70.5114 89.7865 58.3484 102.167 58.7331 117.823C59.1218 133.645 72.1767 146.93 88.0098 147.605C98.3472 147.921 107.682 142.695 112.583 134.002C117.5 125.281 117.296 114.225 111.813 105.03C106.366 95.8979 96.6329 90.1658 86.3491 89.8954ZM89.2517 47.3075L106.607 47.7339L106.076 26.1567L88.7215 25.7303L89.2517 47.3075Z" fill="#046B99" fill-opacity="0.5"/>
<path fill-rule="evenodd" clip-rule="evenodd" d="M1.6934 38.9419C3.19652 37.3336 5.70682 37.2597 7.30032 38.7768L16.8145 47.8346L32.4466 32.9523C33.9747 31.4975 36.3617 31.4975 37.8899 32.9523L59.3025 53.3379C60.097 54.0943 60.5473 55.1478 60.5473 56.25C60.5473 57.3523 60.097 58.4058 59.3025 59.1621L44.0076 73.7234L63.4942 92.2753C72.7883 84.9825 85.2213 82.3582 96.9238 85.3168C109.886 88.5939 120.154 98.2757 123.663 110.855C127.178 123.457 123.306 136.833 113.659 145.895L113.628 145.924C98.8945 159.472 75.5568 159.282 61.0662 145.486C47.4672 132.54 46.3382 112.071 57.8183 97.878L1.85706 44.6009C0.263556 43.0838 0.190287 40.5502 1.6934 38.9419ZM66.289 100.387C66.2437 100.436 66.1971 100.484 66.1493 100.532C55.0131 111.509 55.167 128.864 66.5094 139.662C77.9724 150.575 96.5971 150.738 108.27 140.019C115.803 132.933 118.708 122.637 116.027 113.024C113.337 103.381 105.375 95.7073 94.9963 93.0833C84.6876 90.477 73.752 93.3063 66.289 100.387ZM38.2272 68.2202L50.8005 56.25L35.1682 41.3675L22.5949 53.3378L38.2272 68.2202Z" fill="#1C304A"/>
<path d="M121.168 119.828C121.168 137.881 106.324 152.646 87.8498 152.646C69.3758 152.646 54.5312 137.881 54.5312 119.828C54.5312 101.775 69.3758 87.0093 87.8498 87.0093C106.324 87.0093 121.168 101.775 121.168 119.828Z" stroke="#1C304A" stroke-width="12"/>
<circle cx="88" cy="153.5" r="9.5" fill="#1C304A"/>
</g>
<defs>
<clipPath id="clip0_121_4260">
<rect width="211" height="163" fill="white" transform="translate(0.5)"/>
</clipPath>
</defs>
</svg>
