<svg width="302" height="233" viewBox="0 0 302 233" fill="none" xmlns="http://www.w3.org/2000/svg">
<g clip-path="url(#clip0_121_1335)">
<path fill-rule="evenodd" clip-rule="evenodd" d="M241.21 46.0893C243.504 48.2379 243.61 51.8263 241.445 54.1041L228.524 67.7041L249.754 90.0494C251.83 92.2338 251.83 95.6459 249.754 97.8303L220.673 128.439C219.594 129.574 218.092 130.218 216.519 130.218C214.947 130.218 213.444 129.574 212.365 128.439L191.593 106.575L165.128 134.43C175.531 147.716 179.275 165.488 175.054 182.216C170.379 200.745 156.568 215.423 138.623 220.439C120.645 225.464 101.564 219.928 88.637 206.138L88.5956 206.094C69.2691 185.033 69.5397 151.673 89.2198 130.96C107.689 111.521 136.889 109.907 157.135 126.317L233.137 46.3232C235.301 44.0454 238.915 43.9407 241.21 46.0893ZM153.556 138.425C153.486 138.361 153.417 138.294 153.35 138.226C137.69 122.307 112.932 122.527 97.5282 138.74C81.9601 155.126 81.7285 181.749 97.0186 198.435C107.128 209.203 121.816 213.356 135.528 209.523C149.284 205.678 160.232 194.297 163.975 179.461C167.693 164.725 163.657 149.093 153.556 138.425ZM199.443 98.3124L216.519 116.285L237.75 93.9398L220.674 75.9669L199.443 98.3124Z" fill="#B3EFFF"/>
<path fill-rule="evenodd" clip-rule="evenodd" d="M121.092 0.102529C124.23 -0.00377765 126.837 2.45883 126.914 5.60289L127.374 24.375L158.155 25.1329C161.164 25.207 163.572 27.6197 163.646 30.6348L164.682 72.8833C164.72 74.4508 164.112 75.9708 163 77.0849C161.888 78.1991 160.371 78.8087 158.807 78.7702L128.69 78.0286L129.633 116.477C146.364 118.5 161.553 128.414 170.373 143.233C180.143 159.647 180.734 179.813 171.585 196.073C162.419 212.365 145.019 221.971 126.148 221.38L126.088 221.378C97.5597 220.179 74.21 196.398 73.5089 167.807C72.8509 140.975 92.3595 119.145 118.256 116.403L115.549 5.98787C115.471 2.84379 117.953 0.208836 121.092 0.102529ZM124.27 127.501C124.175 127.505 124.079 127.507 123.983 127.506C101.677 127.345 84.3257 145.043 84.8745 167.422C85.4291 190.039 104.052 209.029 126.639 209.994C141.386 210.445 154.702 202.974 161.694 190.548C168.708 178.083 168.417 162.278 160.595 149.135C152.825 136.081 138.94 127.887 124.27 127.501ZM128.411 66.6235L153.168 67.2331L152.412 36.3897L127.654 35.7801L128.411 66.6235Z" fill="#00CFFF"/>
<path fill-rule="evenodd" clip-rule="evenodd" d="M3.50512 51.7604C5.64938 49.4615 9.23043 49.3558 11.5036 51.5243L25.076 64.472L47.3758 43.1986C49.5557 41.119 52.9609 41.119 55.1408 43.1986L85.6869 72.3388C86.8202 73.4199 87.4625 74.9258 87.4625 76.5014C87.4625 78.0771 86.8202 79.5829 85.6869 80.6641L63.868 101.479L91.6665 127.998C104.925 117.573 122.661 113.822 139.355 118.051C157.846 122.735 172.494 136.575 177.5 154.556C182.514 172.571 176.99 191.691 163.229 204.644L163.185 204.686C142.166 224.052 108.874 223.78 88.2028 204.06C68.8033 185.554 67.1927 156.294 83.5696 136.006L3.73858 59.8496C1.46539 57.6811 1.36087 54.0594 3.50512 51.7604ZM95.6533 139.593C95.5888 139.663 95.5223 139.732 95.454 139.8C79.5678 155.491 79.7874 180.299 95.9678 195.735C112.32 211.335 138.889 211.567 155.541 196.246C166.287 186.116 170.432 171.398 166.607 157.657C162.77 143.873 151.412 132.904 136.605 129.153C121.9 125.427 106.3 129.471 95.6533 139.593ZM55.622 93.6122L73.5584 76.5014L51.2583 55.2277L33.322 72.3385L55.622 93.6122Z" fill="#046B99"/>
<path fill-rule="evenodd" clip-rule="evenodd" d="M293.107 163.614C293.213 166.759 290.755 169.371 287.618 169.448L268.884 169.909L268.128 200.753C268.054 203.768 265.646 206.18 262.637 206.254L220.474 207.293C218.91 207.331 217.393 206.721 216.281 205.607C215.169 204.493 214.561 202.973 214.599 201.406L215.339 171.228L176.969 172.173C174.951 188.938 165.056 204.158 150.267 212.996C133.887 222.785 113.763 223.378 97.5348 214.21C81.2763 205.025 71.69 187.59 72.2801 168.681L72.282 168.62C73.4783 140.034 97.2107 116.637 125.744 115.934C152.521 115.275 174.307 134.823 177.043 160.773L287.234 158.059C290.371 157.982 293.001 160.469 293.107 163.614ZM165.968 166.799C165.964 166.703 165.962 166.607 165.963 166.511C166.123 144.159 148.462 126.773 126.128 127.323C103.557 127.879 84.6058 146.54 83.6427 169.172C83.1924 183.949 90.6478 197.293 103.049 204.299C115.489 211.327 131.261 211.036 144.378 203.197C157.405 195.412 165.582 181.499 165.968 166.799ZM226.721 170.948L226.113 195.756L256.894 194.998L257.502 170.19L226.721 170.948Z" fill="white"/>
<path fill-rule="evenodd" clip-rule="evenodd" d="M113.01 206.04C115.776 201.801 120.561 199 126 199C131.321 199 136.015 201.681 138.807 205.766C154.41 200.336 165.5 185.63 165.5 168.5C165.5 146.807 147.714 129 125.5 129C103.286 129 85.5 146.807 85.5 168.5C85.5 185.927 96.9784 200.846 113.01 206.04ZM111.584 220.207C88.505 214.126 71.5 193.28 71.5 168.5C71.5 138.953 95.6766 115 125.5 115C155.323 115 179.5 138.953 179.5 168.5C179.5 192.878 163.042 213.449 140.534 219.899C138.342 225.798 132.662 230 126 230C119.455 230 113.857 225.943 111.584 220.207Z" fill="white"/>
</g>
<defs>
<clipPath id="clip0_121_1335">
<rect width="301" height="233" fill="white" transform="translate(0.5)"/>
</clipPath>
</defs>
</svg>
