<svg width="126" height="125" viewBox="0 0 126 125" fill="none" xmlns="http://www.w3.org/2000/svg">
<path fill-rule="evenodd" clip-rule="evenodd" d="M32.5 34.0444C32.5 28.9936 36.7206 25 41.8 25H69.7401C70.317 25 70.8677 25.2399 71.259 25.6616L93.9522 50.1227C94.3044 50.5024 94.5 51 94.5 51.5167V89.9556C94.5 95.0064 90.2794 99 85.2 99H41.8C36.7206 99 32.5 95.0064 32.5 89.9556V34.0444ZM87.905 49.6667L69.7 30.0435V49.6667H87.905ZM65.5667 29.1111V51.7222C65.5667 52.8575 66.4919 53.7778 67.6333 53.7778H90.3667V89.9556C90.3667 92.6244 88.1104 94.8889 85.2 94.8889H41.8C38.8896 94.8889 36.6333 92.6244 36.6333 89.9556V34.0444C36.6333 31.3756 38.8896 29.1111 41.8 29.1111H65.5667Z" fill="#046B99" stroke="#046B99" stroke-width="2" stroke-linecap="round" stroke-linejoin="round"/>
<path fill-rule="evenodd" clip-rule="evenodd" d="M0.5 62.5C0.5 27.9822 28.4822 0 63 0C80.2969 0 95.9581 7.03094 107.271 18.3823C118.532 29.6827 125.5 45.281 125.5 62.5C125.5 97.0178 97.5178 125 63 125C45.781 125 30.1827 118.032 18.8823 106.771C7.53094 95.4581 0.5 79.7969 0.5 62.5ZM63 6.94444C32.3175 6.94444 7.44444 31.8175 7.44444 62.5C7.44444 76.6298 12.7155 89.5228 21.4051 99.3288L99.8288 20.9051C90.0228 12.2155 77.1298 6.94444 63 6.94444ZM104.73 25.8246L26.3246 104.23C36.1114 112.839 48.9437 118.056 63 118.056C93.6825 118.056 118.556 93.1825 118.556 62.5C118.556 48.4437 113.339 35.6114 104.73 25.8246Z" fill="#1C304A"/>
</svg>
