<svg width="230" height="230" viewBox="0 0 230 230" fill="none" xmlns="http://www.w3.org/2000/svg">
<path d="M148.5 8.47714H19.2763C19.2763 8.47714 7.59375 8.47714 7.59375 20.1597V78.66V124.134L31.2509 101.937L31.1049 101.791H148.5C148.5 101.791 160.182 101.791 160.182 90.1089V20.1597C160.182 20.1597 160.182 8.47714 148.5 8.47714Z" fill="#F3F3F3"/>
<path d="M120.872 60.5192C120.667 61.1695 120.556 62.1792 120.539 63.5482H113.608C113.71 60.6561 113.984 58.6625 114.429 57.5672C114.874 56.4549 116.021 55.1799 117.869 53.7424L119.743 52.2793C120.359 51.8172 120.855 51.3124 121.232 50.7648C121.916 49.8235 122.258 48.7882 122.258 47.6587C122.258 46.3581 121.873 45.1773 121.103 44.1163C120.35 43.0382 118.964 42.4991 116.945 42.4991C114.96 42.4991 113.548 43.158 112.709 44.4757C111.888 45.7934 111.477 47.1625 111.477 48.5828H104.059C104.264 43.7056 105.967 40.2488 109.167 38.2123C111.186 36.9117 113.668 36.2614 116.611 36.2614C120.479 36.2614 123.687 37.1855 126.237 39.0337C128.804 40.8819 130.088 43.62 130.088 47.248C130.088 49.4727 129.531 51.3466 128.419 52.8697C127.769 53.7938 126.52 54.9746 124.671 56.4121L122.849 57.8239C121.856 58.594 121.197 59.4924 120.872 60.5192ZM121.078 74.4835H113.428V67.065H121.078V74.4835Z" fill="#1D304A"/>
<path d="M88.7345 60.5192C88.5292 61.1695 88.4179 62.1792 88.4008 63.5482H81.47C81.5727 60.6561 81.8465 58.6625 82.2914 57.5672C82.7364 56.4549 83.883 55.1799 85.7312 53.7424L87.6051 52.2793C88.2211 51.8172 88.7174 51.3124 89.0939 50.7648C89.7784 49.8235 90.1207 48.7882 90.1207 47.6587C90.1207 46.3581 89.7356 45.1773 88.9655 44.1163C88.2126 43.0382 86.8264 42.4991 84.8071 42.4991C82.8219 42.4991 81.4101 43.158 80.5716 44.4757C79.7501 45.7934 79.3394 47.1625 79.3394 48.5828H71.9209C72.1263 43.7056 73.829 40.2488 77.0292 38.2123C79.0485 36.9117 81.5299 36.2614 84.4734 36.2614C88.3409 36.2614 91.5496 37.1855 94.0995 39.0337C96.6664 40.8819 97.9499 43.62 97.9499 47.248C97.9499 49.4727 97.3937 51.3466 96.2814 52.8697C95.6311 53.7938 94.3818 54.9746 92.5336 56.4121L90.7111 57.8239C89.7185 58.594 89.0597 59.4924 88.7345 60.5192ZM88.9399 74.4835H81.2903V67.065H88.9399V74.4835Z" fill="#1D304A"/>
<path d="M56.5958 60.5192C56.3905 61.1695 56.2793 62.1792 56.2621 63.5482H49.3313C49.434 60.6561 49.7078 58.6625 50.1528 57.5672C50.5977 56.4549 51.7443 55.1799 53.5925 53.7424L55.4664 52.2793C56.0825 51.8172 56.5787 51.3124 56.9552 50.7648C57.6397 49.8235 57.982 48.7882 57.982 47.6587C57.982 46.3581 57.597 45.1773 56.8269 44.1163C56.0739 43.0382 54.6877 42.4991 52.6684 42.4991C50.6833 42.4991 49.2714 43.158 48.4329 44.4757C47.6115 45.7934 47.2008 47.1625 47.2008 48.5828H39.7822C39.9876 43.7056 41.6903 40.2488 44.8905 38.2123C46.9098 36.9117 49.3912 36.2614 52.3347 36.2614C56.2022 36.2614 59.4109 37.1855 61.9608 39.0337C64.5278 40.8819 65.8112 43.62 65.8112 47.248C65.8112 49.4727 65.2551 51.3466 64.1427 52.8697C63.4924 53.7938 62.2432 54.9746 60.395 56.4121L58.5724 57.8239C57.5798 58.594 56.921 59.4924 56.5958 60.5192ZM56.8012 74.4835H49.1516V67.065H56.8012V74.4835Z" fill="#1D304A"/>
<path d="M222.991 125.303C222.991 113.62 211.308 113.62 211.308 113.62H82.0849C70.4023 113.62 70.4023 125.303 70.4023 125.303V195.252C70.4023 206.934 82.0849 206.934 82.0849 206.934H199.48L199.334 207.08L222.991 229.277V195.259V125.303Z" fill="#00CFFF"/>
<path d="M199.765 171.653H99.1416V178.896H199.765V171.653Z" fill="#F3F3F3"/>
<path d="M199.772 156.363H88.0576V163.607H199.772V156.363Z" fill="#F3F3F3"/>
<path d="M199.772 141.074H105.837V148.317H199.772V141.074Z" fill="#F3F3F3"/>
</svg>
