<svg width="118" height="130" viewBox="0 0 118 130" fill="none" xmlns="http://www.w3.org/2000/svg">
<g clip-path="url(#clip0_178_1788)">
<path d="M15.3955 71.1113H6.36228C5.45298 71.1113 4.65251 70.5122 4.39634 69.6404L0.980767 58.0274C0.798648 57.4077 0.91874 56.7386 1.30566 56.2213C1.69257 55.7043 2.30096 55.3997 2.9467 55.3997H15.3955C16.5276 55.3997 17.4449 56.3174 17.4449 57.4491C17.4449 58.5808 16.5276 59.4984 15.3955 59.4984H5.68586L7.89601 67.0127H15.3956C16.5276 67.0127 17.4449 67.9303 17.4449 69.062C17.4449 70.1938 16.5276 71.1113 15.3955 71.1113Z" fill="#1C304A"/>
<path d="M36.9767 13.5262C36.9783 13.5262 36.98 13.5262 36.9816 13.5262C40.7133 13.5285 44.3962 15.6498 45.8104 18.7331C46.4114 20.0468 47.9592 20.6213 49.2731 20.0203C50.5816 19.4192 51.1613 17.8661 50.5603 16.5576C48.8015 12.7208 45.3572 10.096 41.4304 8.95461C43.3196 6.64049 46.1678 5.22323 49.2742 5.22323L49.2727 5.22364H49.2833C52.7726 5.22364 56.0013 7.01614 57.8576 9.96815L57.863 9.96282C58.2991 10.6596 59.0385 11.1064 59.8522 11.1756C60.6714 11.2448 61.4745 10.9255 62.0224 10.3139C63.9798 8.12244 66.7776 6.86722 69.719 6.86722C73.6075 6.86722 77.1367 9.04751 78.8959 12.502C79.589 15.0773 80.234 17.4463 78.8703 20.4702H84.3464C84.9177 18.2404 84.8795 16.1462 84.6182 14.3416C89.6115 15.2425 90.1956 16.5349 91.6874 20.4702H97.128C95.3595 12.7779 91.5648 9.21782 82.8562 8.90386C80.032 4.42522 75.0852 1.64351 69.7184 1.64351C66.3302 1.64351 63.0643 2.75514 60.3941 4.76042C57.5218 1.75526 53.5219 -6.86646e-05 49.2774 -6.86646e-05L49.2727 0.000341204C49.2036 0.000341204 49.1291 0.000341204 49.0599 0.0056695C43.3474 0.0854573 38.188 3.34057 35.6135 8.35641C26.8453 8.9624 19.652 12.6512 17.8442 20.4702H23.2522C25.0418 15.2958 30.478 13.5262 36.9767 13.5262Z" fill="#046B99"/>
<path d="M94.1794 109.275H21.0861C16.5657 109.275 12.8887 105.598 12.8887 101.078V27.9847C12.8887 23.4647 16.5657 19.7873 21.0861 19.7873H94.1794C98.6997 19.7873 102.377 23.4647 102.377 27.9847V101.078C102.377 105.598 98.6997 109.275 94.1794 109.275ZM21.0861 25.2522C19.579 25.2522 18.3536 26.478 18.3536 27.9847V101.078C18.3536 102.585 19.579 103.81 21.0861 103.81H94.1794C95.6864 103.81 96.9118 102.585 96.9118 101.078V27.9847C96.9118 26.478 95.6864 25.2522 94.1794 25.2522H21.0861Z" fill="#1C304A"/>
<path d="M75.9062 106.543V127.951H85.8114L75.9062 117.247" fill="#1C304A"/>
<path d="M85.8114 130H75.9063C74.7742 130 73.8569 129.082 73.8569 127.951V106.543C73.8569 105.411 74.7742 104.494 75.9063 104.494C77.0383 104.494 77.9556 105.411 77.9556 106.543V116.444L87.3157 126.559C87.8688 127.156 88.0155 128.025 87.6893 128.772C87.3631 129.518 86.626 130 85.8114 130ZM77.9556 125.901H81.123L77.9556 122.479V125.901Z" fill="#1C304A"/>
<path d="M39.3593 106.543V127.951H29.4541L39.3593 117.247" fill="#1C304A"/>
<path d="M39.3594 130H29.4542C28.6397 130 27.9025 129.518 27.5764 128.772C27.2502 128.025 27.3969 127.156 27.95 126.559L37.3101 116.444V106.543C37.3101 105.411 38.2274 104.494 39.3594 104.494C40.4915 104.494 41.4088 105.411 41.4088 106.543V127.951C41.4088 129.082 40.4915 130 39.3594 130ZM34.1427 125.901H37.3101V122.479L34.1427 125.901Z" fill="#1C304A"/>
<path d="M85.625 81.2675H29.7954L35.9091 87.3812C36.4426 87.9147 37.3077 87.9147 37.8412 87.3812L42.0839 83.1385L46.3266 87.3812C46.8601 87.9147 47.7252 87.9147 48.2587 87.3812L52.5014 83.1385L56.7441 87.3812C57.2776 87.9147 58.1427 87.9147 58.6762 87.3812L62.9189 83.1385L67.1616 87.3812C67.6951 87.9147 68.5602 87.9147 69.0937 87.3812L73.3364 83.1385L77.5791 87.3812C78.1127 87.9147 78.9777 87.9147 79.5112 87.3812L85.625 81.2675Z" fill="#046B99"/>
<path d="M85.6405 83.2669H29.625C28.493 83.2669 27.5757 82.3493 27.5757 81.2176C27.5757 80.0859 28.493 79.1682 29.625 79.1682H85.6405C86.7725 79.1682 87.6898 80.0859 87.6898 81.2176C87.6898 82.3493 86.7725 83.2669 85.6405 83.2669Z" fill="#046B99"/>
<path d="M39.5302 65.0437C32.9385 65.0437 27.5757 59.6808 27.5757 53.0892C27.5757 46.4975 32.9385 41.1347 39.5302 41.1347C46.1218 41.1347 51.4847 46.4975 51.4847 53.0892C51.4847 59.6808 46.1218 65.0437 39.5302 65.0437ZM39.5302 45.2333C35.1987 45.2333 31.6744 48.7573 31.6744 53.0892C31.6744 57.421 35.1987 60.945 39.5302 60.945C43.8617 60.945 47.386 57.421 47.386 53.0892C47.386 48.7573 43.8617 45.2333 39.5302 45.2333Z" fill="#046B99"/>
<path d="M39.5298 56.5046C41.4162 56.5046 42.9454 54.9754 42.9454 53.089C42.9454 51.2027 41.4162 49.6735 39.5298 49.6735C37.6435 49.6735 36.1143 51.2027 36.1143 53.089C36.1143 54.9754 37.6435 56.5046 39.5298 56.5046Z" fill="#1C304A"/>
<path d="M75.7354 71.1917C72.1931 71.1917 69.3812 70.1711 67.3779 68.1581C63.7315 64.4943 63.7595 58.5204 63.7782 54.5675L63.7809 53.7723C63.7809 52.6406 64.6982 51.7229 65.8302 51.7229C66.9623 51.7229 67.8796 52.6406 67.8796 53.7723L67.8769 54.5868C67.8609 58.0575 67.8382 62.8102 70.2832 65.2669C71.5059 66.4956 73.2898 67.093 75.7354 67.093C78.1809 67.093 79.9641 66.4956 81.1876 65.2669C83.6325 62.8102 83.6099 58.0568 83.5939 54.5861L83.5912 53.7723C83.5912 52.6406 84.5085 51.7229 85.6405 51.7229C86.7726 51.7229 87.6899 52.6406 87.6899 53.7723L87.6926 54.5668C87.7112 58.5201 87.7393 64.4943 84.0929 68.1581C82.0889 70.1711 79.2771 71.1917 75.7354 71.1917Z" fill="#046B99"/>
<path d="M75.7353 65.0437C69.1436 65.0437 63.7808 59.6808 63.7808 53.0892C63.7808 46.4975 69.1436 41.1347 75.7353 41.1347C82.3269 41.1347 87.6898 46.4975 87.6898 53.0892C87.6898 59.6808 82.3269 65.0437 75.7353 65.0437ZM75.7353 45.2333C71.4038 45.2333 67.8795 48.7573 67.8795 53.0892C67.8795 57.421 71.4038 60.945 75.7353 60.945C80.0668 60.945 83.5911 57.421 83.5911 53.0892C83.5911 48.7573 80.0668 45.2333 75.7353 45.2333Z" fill="#046B99"/>
<path d="M75.7349 56.5046C77.6213 56.5046 79.1505 54.9754 79.1505 53.089C79.1505 51.2027 77.6213 49.6735 75.7349 49.6735C73.8485 49.6735 72.3193 51.2027 72.3193 53.089C72.3193 54.9754 73.8485 56.5046 75.7349 56.5046Z" fill="#1C304A"/>
<path d="M27.2441 34.8412H15.2896C14.1575 34.8412 13.2402 33.9236 13.2402 32.7918C13.2402 31.6601 14.1575 30.7425 15.2896 30.7425H27.2441C28.3762 30.7425 29.2934 31.6601 29.2934 32.7918C29.2934 33.9236 28.3762 34.8412 27.2441 34.8412Z" fill="#1C304A"/>
<path d="M92.414 106.699C91.8663 106.699 91.3199 106.481 90.9163 106.05L82.7897 97.3599C82.0165 96.533 82.0605 95.2361 82.8871 94.4633C83.7136 93.6898 85.0105 93.7349 85.7836 94.5601L93.9103 103.25C94.6835 104.077 94.6395 105.373 93.8129 106.146C93.418 106.516 92.915 106.699 92.414 106.699Z" fill="#1C304A"/>
<path d="M115.054 106.968C114.706 106.968 114.359 106.879 114.046 106.703C113.083 106.159 105.477 101.68 105.361 95.8993C102.145 94.7352 97.9638 91.86 97.5795 86.4218C97.5762 86.3734 97.5742 86.3254 97.5742 86.277V56.0829C97.5742 54.9511 98.4915 54.0335 99.6236 54.0335H115.054C116.186 54.0335 117.103 54.9511 117.103 56.0829V104.918C117.103 105.647 116.716 106.321 116.087 106.688C115.767 106.874 115.411 106.968 115.054 106.968ZM101.673 86.1999C102.076 91.2025 107.749 92.3429 107.992 92.3892C108.563 92.4983 109.066 92.8462 109.366 93.3442C109.667 93.8425 109.746 94.4456 109.576 95.0022C109 96.8895 110.916 99.2053 113.004 100.971V58.1321H101.673V86.1999Z" fill="#1C304A"/>
</g>
<defs>
<clipPath id="clip0_178_1788">
<rect width="116.206" height="130" fill="white" transform="translate(0.897461)"/>
</clipPath>
</defs>
</svg>
