<svg width="122" height="136" viewBox="0 0 122 136" fill="none" xmlns="http://www.w3.org/2000/svg">
<path d="M6.13924 34.9283L61.0002 70.5073L117.017 36.5484M61.0002 132.554V70.0968M118.339 94.0054V41.9945C118.334 37.354 115.906 33.0677 111.968 30.7473L67.3713 4.74202C63.4288 2.41933 58.5715 2.41933 54.629 4.74202L10.0326 30.7473C6.09424 33.0677 3.66628 37.354 3.66162 41.9945V94.0054C3.66628 98.646 6.09424 102.932 10.0326 105.253L54.629 131.258C58.5715 133.581 63.4288 133.581 67.3713 131.258L111.968 105.253C115.906 102.932 118.334 98.646 118.339 94.0054Z" stroke="#1C304A" stroke-width="6" stroke-linecap="round" stroke-linejoin="round"/>
<path d="M32.7871 51.491L88.8036 17.5322" stroke="#1C304A" stroke-width="6" stroke-linecap="round" stroke-linejoin="round"/>
</svg>
