<svg width="180" height="180" viewBox="0 0 180 180" fill="none" xmlns="http://www.w3.org/2000/svg">
<g id="Derisking_Illo_5_Choosing">
<path id="Vector" d="M75.28 27.4114H28.6686V74.0229H75.28V27.4114Z" fill="white" stroke="#00CFFF" stroke-width="6"/>
<path id="Vector_2" d="M143.531 123.223C134.383 139.069 125.24 154.909 116.091 170.754H170.971C161.823 154.909 152.68 139.069 143.531 123.223Z" fill="white" stroke="#00CFFF" stroke-width="6"/>
<path id="Vector_3" d="M143.531 26.5029C134.971 32.72 126.417 38.9372 117.857 45.16C121.126 55.2229 124.394 65.28 127.663 75.3429H159.4C162.669 65.28 165.937 55.2229 169.206 45.16C160.646 38.9429 152.091 32.7257 143.531 26.5029Z" fill="white" stroke="#00CFFF" stroke-width="6"/>
<g id="Vector_4">
<mask id="path-4-inside-1_246_3246" fill="white">
<path d="M51.7532 119.7C44.2942 123.267 36.8351 126.827 29.3761 130.394C27.532 138.402 25.6942 146.417 23.85 154.425C29.0086 160.848 34.1735 167.277 39.332 173.7H64.168C69.3265 167.277 74.4914 160.848 79.65 154.425C77.8058 146.417 75.968 138.402 74.1239 130.394C66.6649 126.827 59.2058 123.261 51.7468 119.7"/>
</mask>
<path d="M51.7532 119.7C44.2942 123.267 36.8351 126.827 29.3761 130.394C27.532 138.402 25.6942 146.417 23.85 154.425C29.0086 160.848 34.1735 167.277 39.332 173.7H64.168C69.3265 167.277 74.4914 160.848 79.65 154.425C77.8058 146.417 75.968 138.402 74.1239 130.394C66.6649 126.827 59.2058 123.261 51.7468 119.7" fill="white"/>
<path d="M29.3761 130.394L26.7877 124.981L24.1783 126.229L23.5292 129.048L29.3761 130.394ZM23.85 154.425L18.003 153.079L17.3501 155.914L19.172 158.182L23.85 154.425ZM39.332 173.7L34.654 177.457L36.4554 179.7H39.332V173.7ZM64.168 173.7V179.7H67.0446L68.846 177.457L64.168 173.7ZM79.65 154.425L84.328 158.182L86.1499 155.914L85.497 153.079L79.65 154.425ZM74.1239 130.394L79.9708 129.048L79.3217 126.229L76.7123 124.981L74.1239 130.394ZM49.1647 114.287C45.4363 116.07 41.7077 117.851 37.9781 119.633C34.2487 121.415 30.5183 123.197 26.7877 124.981L31.9646 135.807C35.693 134.024 39.4216 132.243 43.1512 130.461C46.8806 128.679 50.611 126.897 54.3416 125.113L49.1647 114.287ZM23.5292 129.048C22.6067 133.054 21.6859 137.061 20.7655 141.066C19.8449 145.072 18.9247 149.076 18.003 153.079L29.697 155.772C30.6194 151.766 31.5402 147.759 32.4607 143.753C33.3812 139.748 34.3014 135.743 35.2231 131.741L23.5292 129.048ZM19.172 158.182C21.7514 161.394 24.3324 164.607 26.9132 167.82C29.4941 171.033 32.0749 174.246 34.654 177.457L44.01 169.943C41.4306 166.731 38.8496 163.518 36.2688 160.305C33.6879 157.092 31.1072 153.879 28.528 150.668L19.172 158.182ZM39.332 179.7H64.168V167.7H39.332V179.7ZM68.846 177.457C71.4251 174.246 74.0059 171.033 76.5868 167.82C79.1676 164.607 81.7486 161.394 84.328 158.182L74.972 150.668C72.3928 153.879 69.8121 157.092 67.2312 160.305C64.6504 163.518 62.0694 166.731 59.49 169.943L68.846 177.457ZM85.497 153.079C84.5753 149.076 83.6551 145.072 82.7345 141.066C81.8141 137.061 80.8933 133.054 79.9708 129.048L68.2769 131.741C69.1986 135.743 70.1188 139.748 71.0393 143.753C71.9598 147.759 72.8806 151.766 73.803 155.772L85.497 153.079ZM76.7123 124.981C69.2536 121.415 61.7927 117.847 54.3316 114.285L49.1621 125.115C56.6189 128.674 64.0761 132.24 71.5354 135.807L76.7123 124.981Z" fill="#00CFFF" mask="url(#path-4-inside-1_246_3246)"/>
</g>
<path id="Ellipse 4 (Stroke)" fill-rule="evenodd" clip-rule="evenodd" d="M48.99 4.95408C49.9853 4.88976 50.9889 4.85712 52 4.85712C53.0112 4.85712 54.0148 4.88976 55.0101 4.95408L54.8258 7.80527C53.8919 7.74492 52.9496 7.71426 52 7.71426C51.0504 7.71426 50.1082 7.74492 49.1743 7.80527L48.99 4.95408ZM37.2087 7.28728C39.0952 6.64701 41.0367 6.12582 43.0241 5.73265L43.5786 8.53547C41.7153 8.90409 39.8953 9.39268 38.1269 9.99286L37.2087 7.28728ZM60.9759 5.73265C62.9633 6.12582 64.9049 6.64701 66.7914 7.28728L65.8732 9.99286C64.1048 9.39268 62.2847 8.90409 60.4215 8.53548L60.9759 5.73265ZM26.4407 12.606C28.1034 11.4928 29.8428 10.4851 31.6495 9.59248L32.9151 12.154C31.2211 12.991 29.5898 13.936 28.0302 14.9802L26.4407 12.606ZM72.3506 9.59248C74.1572 10.4851 75.8967 11.4928 77.5594 12.606L75.9699 14.9802C74.4103 13.936 72.779 12.991 71.085 12.154L72.3506 9.59248ZM82.3306 16.2723C83.8393 17.5965 85.2607 19.0178 86.5849 20.5266L84.4375 22.4113C83.1951 20.9957 81.8615 19.6621 80.4459 18.4196L82.3306 16.2723ZM17.4152 20.5266C18.7394 19.0178 20.1607 17.5965 21.6695 16.2723L23.5542 18.4196C22.1386 19.6621 20.805 20.9957 19.5626 22.4113L17.4152 20.5266ZM10.7354 30.5066C11.628 28.6999 12.6357 26.9605 13.7489 25.2978L16.1231 26.8873C15.079 28.4469 14.1339 30.0782 13.2969 31.7722L10.7354 30.5066ZM90.2512 25.2978C91.3643 26.9605 92.372 28.6999 93.2647 30.5066L90.7031 31.7722C89.8662 30.0782 88.9211 28.4469 87.877 26.8873L90.2512 25.2978ZM6.87558 41.8812C7.26874 39.8938 7.78994 37.9523 8.4302 36.0657L11.1358 36.984C10.5356 38.7524 10.047 40.5724 9.6784 42.4357L6.87558 41.8812ZM95.5699 36.0657C96.2101 37.9523 96.7313 39.8938 97.1245 41.8812L94.3217 42.4357C93.9531 40.5724 93.4645 38.7524 92.8643 36.984L95.5699 36.0657ZM6.00004 50.8571C6.00004 49.846 6.03268 48.8423 6.097 47.8471L8.94819 48.0313C8.88784 48.9653 8.85718 49.9075 8.85718 50.8571C8.85718 51.8067 8.88784 52.7489 8.94819 53.6829L6.097 53.8671C6.03268 52.8719 6.00004 51.8682 6.00004 50.8571ZM97.9031 47.8471C97.9674 48.8423 98 49.846 98 50.8571C98 51.8682 97.9674 52.8719 97.9031 53.8672L95.0519 53.6829C95.1122 52.7489 95.1429 51.8067 95.1429 50.8571C95.1429 49.9075 95.1122 48.9653 95.0519 48.0313L97.9031 47.8471ZM8.4302 65.6485C7.78993 63.7619 7.26874 61.8204 6.87557 59.833L9.6784 59.2785C10.047 61.1418 10.5356 62.9618 11.1358 64.7303L8.4302 65.6485ZM97.1245 59.833C96.7313 61.8204 96.2101 63.7619 95.5699 65.6485L92.8643 64.7303C93.4645 62.9618 93.9531 61.1418 94.3217 59.2785L97.1245 59.833ZM13.7489 76.4164C12.6357 74.7538 11.628 73.0143 10.7354 71.2076L13.2969 69.942C14.1339 71.6361 15.079 73.2674 16.1231 74.827L13.7489 76.4164ZM93.2647 71.2077C92.372 73.0143 91.3643 74.7538 90.2512 76.4164L87.877 74.827C88.9211 73.2674 89.8661 71.6361 90.7031 69.942L93.2647 71.2077ZM21.6695 85.442C20.1607 84.1178 18.7394 82.6964 17.4152 81.1877L19.5626 79.303C20.805 80.7186 22.1386 82.0522 23.5542 83.2946L21.6695 85.442ZM86.5849 81.1877C85.2607 82.6964 83.8393 84.1178 82.3306 85.442L80.4459 83.2946C81.8615 82.0522 83.1951 80.7186 84.4375 79.303L86.5849 81.1877ZM31.6495 92.1218C29.8428 91.2291 28.1034 90.2214 26.4407 89.1083L28.0302 86.7341C29.5898 87.7782 31.2211 88.7232 32.9151 89.5602L31.6495 92.1218ZM77.5594 89.1083C75.8967 90.2214 74.1572 91.2291 72.3506 92.1218L71.085 89.5602C72.779 88.7232 74.4103 87.7782 75.9699 86.7341L77.5594 89.1083ZM43.0241 95.9816C41.0367 95.5884 39.0952 95.0672 37.2087 94.427L38.1269 91.7214C39.8953 92.3216 41.7153 92.8102 43.5786 93.1788L43.0241 95.9816ZM66.7914 94.427C64.9048 95.0672 62.9633 95.5884 60.9759 95.9816L60.4214 93.1788C62.2847 92.8102 64.1048 92.3216 65.8732 91.7214L66.7914 94.427ZM52 96.8571C50.9889 96.8571 49.9853 96.8245 48.99 96.7602L49.1743 93.909C50.1082 93.9693 51.0504 94 52 94C52.9496 94 53.8919 93.9693 54.8258 93.909L55.0101 96.7602C54.0148 96.8245 53.0111 96.8571 52 96.8571Z" fill="white"/>
</g>
</svg>
