<svg width="152" height="130" viewBox="0 0 152 130" fill="none" xmlns="http://www.w3.org/2000/svg">
<path fill-rule="evenodd" clip-rule="evenodd" d="M75.9993 5.41667C66.4037 5.41667 57.4292 8.04053 49.7451 12.6083C48.4593 13.3726 46.7974 12.9499 46.0331 11.6641C45.2688 10.3784 45.6915 8.71648 46.9773 7.95218C55.4757 2.90037 65.4029 0 75.9993 0C86.5958 0 96.523 2.90037 105.021 7.95218C106.307 8.71648 106.73 10.3784 105.966 11.6641C105.201 12.9499 103.539 13.3726 102.254 12.6083C94.5695 8.04053 85.595 5.41667 75.9993 5.41667ZM24.541 16.25C20.0537 16.25 16.416 19.8877 16.416 24.375C16.416 28.8623 20.0537 32.5 24.541 32.5C29.0283 32.5 32.666 28.8623 32.666 24.375C32.666 19.8877 29.0283 16.25 24.541 16.25ZM10.9993 24.375C10.9993 16.8961 17.0622 10.8333 24.541 10.8333C32.0199 10.8333 38.0827 16.8961 38.0827 24.375C38.0827 31.8539 32.0199 37.9167 24.541 37.9167C17.0622 37.9167 10.9993 31.8539 10.9993 24.375ZM113.916 24.375C113.916 16.8961 119.979 10.8333 127.458 10.8333C134.937 10.8333 140.999 16.8961 140.999 24.375C140.999 31.8539 134.937 37.9167 127.458 37.9167C119.979 37.9167 113.916 31.8539 113.916 24.375ZM127.458 16.25C122.97 16.25 119.333 19.8877 119.333 24.375C119.333 28.8623 122.97 32.5 127.458 32.5C131.945 32.5 135.583 28.8623 135.583 24.375C135.583 19.8877 131.945 16.25 127.458 16.25ZM13.7077 48.75C9.22037 48.75 5.58268 52.3877 5.58268 56.875V62.2917C5.58268 63.7874 4.37012 65 2.87435 65C1.37858 65 0.166016 63.7874 0.166016 62.2917V56.875C0.166016 49.3961 6.22883 43.3333 13.7077 43.3333H35.3743C42.8532 43.3333 48.916 49.3961 48.916 56.875V62.2917C48.916 63.7874 47.7034 65 46.2077 65C44.7119 65 43.4993 63.7874 43.4993 62.2917V56.875C43.4993 52.3877 39.8617 48.75 35.3743 48.75H13.7077ZM103.083 56.875C103.083 49.3961 109.145 43.3333 116.624 43.3333H138.291C145.77 43.3333 151.833 49.3961 151.833 56.875V62.2917C151.833 63.7874 150.62 65 149.124 65C147.629 65 146.416 63.7874 146.416 62.2917V56.875C146.416 52.3877 142.778 48.75 138.291 48.75H116.624C112.137 48.75 108.499 52.3877 108.499 56.875V62.2917C108.499 63.7874 107.287 65 105.791 65C104.295 65 103.083 63.7874 103.083 62.2917V56.875ZM22.8643 67.7947C24.3128 67.4218 25.7894 68.2939 26.1622 69.7424C29.3822 82.252 37.1932 92.9279 47.6986 99.8593C48.9471 100.683 49.2915 102.363 48.4677 103.611C47.6439 104.86 45.964 105.204 44.7155 104.381C33.1142 96.726 24.4789 84.9324 20.9166 71.0927C20.5437 69.6441 21.4157 68.1675 22.8643 67.7947ZM129.134 67.7947C130.583 68.1676 131.455 69.6441 131.082 71.0927C127.52 84.9326 118.884 96.7263 107.283 104.381C106.034 105.205 104.354 104.86 103.53 103.612C102.707 102.363 103.051 100.683 104.299 99.8596C114.805 92.9281 122.616 82.2521 125.836 69.7424C126.209 68.2939 127.686 67.4218 129.134 67.7947ZM62.4577 89.375C62.4577 81.8961 68.5205 75.8333 75.9993 75.8333C83.4782 75.8333 89.541 81.8961 89.541 89.375C89.541 96.8539 83.4782 102.917 75.9993 102.917C68.5205 102.917 62.4577 96.8539 62.4577 89.375ZM75.9993 81.25C71.512 81.25 67.8743 84.8877 67.8743 89.375C67.8743 93.8623 71.512 97.5 75.9993 97.5C80.4867 97.5 84.1243 93.8623 84.1243 89.375C84.1243 84.8877 80.4867 81.25 75.9993 81.25ZM51.6243 121.875C51.6243 114.396 57.6872 108.333 65.166 108.333H86.8327C94.3115 108.333 100.374 114.396 100.374 121.875V127.292C100.374 128.787 99.1618 130 97.666 130C96.1702 130 94.9577 128.787 94.9577 127.292V121.875C94.9577 117.388 91.32 113.75 86.8327 113.75H65.166C60.6787 113.75 57.041 117.388 57.041 121.875V127.292C57.041 128.787 55.8284 130 54.3327 130C52.8369 130 51.6243 128.787 51.6243 127.292V121.875Z" fill="#1C304A"/>
<path d="M22.8643 67.7947C24.3128 67.4218 25.7894 68.2939 26.1622 69.7424C29.3822 82.252 37.1932 92.9279 47.6986 99.8593C48.9471 100.683 49.2915 102.363 48.4677 103.611C47.6439 104.86 45.964 105.204 44.7155 104.381C33.1142 96.726 24.4789 84.9324 20.9166 71.0927C20.5437 69.6441 21.4157 68.1675 22.8643 67.7947Z" fill="#1C304A"/>
<path d="M129.134 67.7947C130.583 68.1676 131.455 69.6441 131.082 71.0927C127.52 84.9326 118.884 96.7263 107.283 104.381C106.034 105.205 104.354 104.86 103.53 103.612C102.707 102.363 103.051 100.683 104.299 99.8596C114.805 92.9281 122.616 82.2521 125.836 69.7424C126.209 68.2939 127.686 67.4218 129.134 67.7947Z" fill="#1C304A"/>
<path d="M75.9993 5.41667C66.4037 5.41667 57.4292 8.04053 49.7451 12.6083C48.4593 13.3726 46.7974 12.9499 46.0331 11.6641C45.2688 10.3784 45.6915 8.71648 46.9773 7.95218C55.4757 2.90037 65.4029 0 75.9993 0C86.5958 0 96.523 2.90037 105.021 7.95218C106.307 8.71648 106.73 10.3784 105.966 11.6641C105.201 12.9499 103.539 13.3726 102.254 12.6083C94.5695 8.04053 85.595 5.41667 75.9993 5.41667Z" fill="#046B99"/>
<path d="M22.8639 67.7951C24.3125 67.4223 25.789 68.2943 26.1619 69.7428C29.3819 82.2524 37.1929 92.9283 47.6983 99.8597C48.9468 100.683 49.2911 102.363 48.4674 103.612C47.6436 104.86 45.9637 105.205 44.7152 104.381C33.1139 96.7264 24.4786 84.9328 20.9162 71.0931C20.5434 69.6445 21.4154 68.168 22.8639 67.7951Z" fill="#046B99"/>
<path d="M129.134 67.7951C130.583 68.168 131.455 69.6445 131.082 71.0931C127.519 84.933 118.884 96.7268 107.282 104.381C106.034 105.205 104.354 104.861 103.53 103.612C102.706 102.364 103.051 100.684 104.299 99.86C114.805 92.9286 122.616 82.2526 125.836 69.7428C126.209 68.2943 127.686 67.4223 129.134 67.7951Z" fill="#046B99"/>
</svg>
