<svg width="230" height="214" viewBox="0 0 230 214" fill="none" xmlns="http://www.w3.org/2000/svg">
<path fill-rule="evenodd" clip-rule="evenodd" d="M115 10.7333C61.6816 10.7333 18.4583 53.9567 18.4583 107.275C18.4583 141.892 36.6782 172.254 64.0516 189.294H0V203.897H211.585V213.718L230 196.595L211.585 179.48V189.294H115V189.213C69.7467 189.213 33.0615 152.528 33.0615 107.275C33.0615 62.0218 69.7467 25.3365 115 25.3365V10.7333Z" fill="#36C6F4"/>
<path fill-rule="evenodd" clip-rule="evenodd" d="M101.419 18.4219L121.228 36.8438V25.9416C145.523 27.5012 163.651 37.2959 176.013 51.0826C189.633 66.2723 196.632 86.7426 196.632 107.509C196.632 152.66 159.946 189.294 114.664 189.294H0V203.897H115C168.165 203.716 211.235 160.641 211.235 107.509C211.235 83.589 203.189 59.5159 186.885 41.3336C171.678 24.3741 149.61 12.9111 121.228 11.3124V0L101.419 18.4219Z" fill="#F3F3F3"/>
</svg>
