<svg width="182" height="155" viewBox="0 0 182 155" fill="none" xmlns="http://www.w3.org/2000/svg">
<path fill-rule="evenodd" clip-rule="evenodd" d="M117.975 0.522282C119.675 1.36699 120.75 3.10164 120.75 5.00003V145C120.75 146.898 119.675 148.633 117.975 149.478C116.275 150.322 114.243 150.132 112.73 148.985L61.2916 110H45.75V150C45.75 152.761 43.5114 155 40.75 155H20.75C17.9886 155 15.75 152.761 15.75 150V110C7.46573 110 0.75 103.284 0.75 95V55C0.75 46.7158 7.46573 40 15.75 40H61.2916L112.73 1.01518C114.243 -0.131484 116.275 -0.32243 117.975 0.522282ZM25.75 110H35.75V145H25.75V110ZM62.9722 100H40.7671L40.75 100H20.75L20.7329 100H15.75C12.9886 100 10.75 97.7615 10.75 95V55C10.75 52.2386 12.9886 50 15.75 50H62.9722C64.0627 50 65.1233 49.6435 65.9923 48.9849L110.75 15.0633V134.937L65.9923 101.015C65.1233 100.357 64.0627 100 62.9722 100Z" fill="#1C304A"/>
<path d="M140.987 69.4752C138.371 69.4752 136.25 71.7138 136.25 74.4752C136.25 77.2366 138.371 79.4752 140.987 79.4752H176.513C179.129 79.4752 181.25 77.2366 181.25 74.4752C181.25 71.7138 179.129 69.4752 176.513 69.4752H140.987Z" fill="#046B99"/>
<path d="M139.434 112.601C140.814 110.209 143.77 109.331 146.036 110.639L176.803 128.402C179.068 129.71 179.785 132.709 178.405 135.101C177.024 137.492 174.068 138.37 171.803 137.062L141.036 119.299C138.77 117.991 138.053 114.992 139.434 112.601Z" fill="#046B99"/>
<path d="M141.036 29.652C138.77 30.96 138.053 33.959 139.434 36.3505C140.814 38.742 143.77 39.6203 146.036 38.3122L176.803 20.5491C179.068 19.241 179.785 16.242 178.405 13.8505C177.024 11.459 174.068 10.5808 171.803 11.8888L141.036 29.652Z" fill="#046B99"/>
</svg>
