<svg width="150" height="150" viewBox="0 0 150 150" fill="none" xmlns="http://www.w3.org/2000/svg">
<path fill-rule="evenodd" clip-rule="evenodd" d="M101.709 15.0597C75.1621 3.23176 43.9967 10.2728 25.1139 32.3643C6.23108 54.4557 4.12886 86.335 19.9471 110.714C35.7655 135.094 65.7363 146.166 93.6069 137.926C121.477 129.686 140.608 104.097 140.624 75.0364V68.5708C140.624 65.982 142.723 63.8833 145.312 63.8833C147.901 63.8833 149.999 65.982 149.999 68.5708V75.0391C149.98 108.252 128.117 137.499 96.2648 146.916C64.4131 156.333 30.1608 143.68 12.0826 115.817C-5.99571 87.9546 -3.59308 51.5206 17.9875 26.273C39.5679 1.02543 75.1853 -7.02127 105.525 6.49628C107.889 7.54988 108.952 10.321 107.899 12.6857C106.845 15.0504 104.074 16.1133 101.709 15.0597Z" fill="#1C304A"/>
<path d="M146.24 20.1992C148.094 22.0058 148.132 24.9735 146.326 26.8277L77.8164 97.1399C76.9343 98.0452 75.7241 98.5559 74.4602 98.5562C73.1963 98.5565 71.9859 98.0464 71.1034 97.1416L50.5506 76.0691C48.743 74.2158 48.78 71.2481 50.6333 69.4405C52.4866 67.6329 55.4543 67.67 57.2619 69.5232L74.4574 87.1535L139.611 20.2853C141.418 18.4311 144.385 18.3925 146.24 20.1992Z" fill="#046B99"/>
</svg>
