<svg width="236" height="180" viewBox="0 0 236 180" fill="none" xmlns="http://www.w3.org/2000/svg">
<path fill-rule="evenodd" clip-rule="evenodd" d="M37.883 78.0711C44.3896 59.9559 61.7186 47 82.0737 47C83.802 47 85.2031 48.4011 85.2031 50.1294C85.2031 75.0027 65.8572 95.3576 41.3913 96.9679V109.632C49.9054 109.869 57.6546 111.067 63.5519 112.944C66.84 113.99 69.7283 115.302 71.8615 116.906C73.9414 118.471 75.8148 120.724 75.8148 123.671C75.8148 124.454 75.6825 125.188 75.4491 125.873L66.3705 173.147C66.1592 174.247 65.3759 175.151 64.3168 175.516C55.6627 178.498 46.9736 180 38.2619 180C29.5503 180 20.8612 178.498 12.2071 175.516C11.1479 175.151 10.3647 174.247 10.1534 173.147L1.07479 125.873C0.841357 125.188 0.708984 124.454 0.708984 123.671C0.708984 120.724 2.58241 118.471 4.66229 116.906C6.79549 115.302 9.68379 113.99 12.972 112.944C18.8692 111.067 26.6184 109.869 35.1325 109.632V96.9421C15.8568 95.3518 0.708984 79.2037 0.708984 59.5176C0.708984 57.7893 2.11007 56.3882 3.8384 56.3882C18.9068 56.3882 31.9023 65.2632 37.883 78.0711ZM7.13989 62.8191C21.7863 64.3548 33.4247 75.9933 34.9604 90.6397C20.314 89.104 8.67557 77.4655 7.13989 62.8191ZM41.5199 90.6832C43.0943 70.8131 58.9455 54.9618 78.8157 53.3874C77.2412 73.2575 61.39 89.1087 41.5199 90.6832ZM35.1325 115.893C27.1336 116.129 20.0499 117.26 14.8697 118.908C11.9284 119.844 9.77549 120.892 8.42484 121.908C7.36152 122.708 7.07309 123.262 6.99572 123.518L7.10149 124.069C7.26479 124.37 7.62631 124.832 8.42484 125.433C9.77549 126.449 11.9284 127.498 14.8697 128.433C20.7161 130.294 28.987 131.494 38.2619 131.494C47.5368 131.494 55.8077 130.294 61.6542 128.433C64.5954 127.498 66.7483 126.449 68.099 125.433C68.8975 124.832 69.259 124.37 69.4223 124.069L69.5281 123.518C69.4507 123.262 69.1623 122.708 68.099 121.908C66.7483 120.892 64.5954 119.844 61.6542 118.908C56.4739 117.26 49.3903 116.129 41.3913 115.893V122.106C41.3913 123.834 39.9902 125.235 38.2619 125.235C36.5336 125.235 35.1325 123.834 35.1325 122.106V115.893ZM67.744 132.808C66.4509 133.394 65.0424 133.923 63.5519 134.398C56.9395 136.502 47.9986 137.753 38.2619 137.753C28.5252 137.753 19.5844 136.502 12.972 134.398C11.4814 133.923 10.073 133.394 8.77985 132.808L15.9541 170.166C23.4161 172.555 30.8488 173.741 38.2619 173.741C45.6751 173.741 53.1077 172.555 60.5698 170.166L67.744 132.808Z" fill="#046B99"/>
<path fill-rule="evenodd" clip-rule="evenodd" d="M95.2543 1.0512C96.1526 0.152908 97.4589 -0.203536 98.6889 0.113982C112.43 3.66091 123.481 6.99786 131.796 10.1304C139.937 13.1976 145.983 16.2536 149.189 19.4593C152.685 22.9549 154.156 27.8603 154.184 33.5361C154.211 38.9722 152.926 45.44 150.502 52.8472C150.516 52.8826 150.532 52.9211 150.551 52.9626C150.732 53.375 151.034 53.9159 151.478 54.5666C152.364 55.867 153.64 57.3547 155.079 58.7733C156.516 60.1908 158.019 61.4437 159.316 62.3137C159.965 62.7497 160.5 63.0472 160.901 63.2241C161.009 63.2717 161.094 63.3047 161.158 63.3274V20.3011C161.158 18.3191 162.765 16.7123 164.747 16.7123C166.729 16.7123 168.335 18.3191 168.335 20.3011V87.2521C168.34 87.2503 168.348 87.2478 168.36 87.2442C168.505 87.1995 169.17 86.9945 170.407 86.1405C171.711 85.2403 173.185 83.9462 174.588 82.4903C175.988 81.0372 177.222 79.5209 178.078 78.2282C178.503 77.5861 178.795 77.0596 178.969 76.6688C176.559 69.2901 175.282 62.8453 175.309 57.4258C175.337 51.7501 176.808 46.8446 180.304 43.349C183.51 40.1434 189.556 37.0873 197.697 34.0201C206.012 30.8876 217.064 27.5506 230.804 24.0037C232.034 23.6862 233.34 24.0426 234.239 24.9409C235.137 25.8392 235.494 27.1455 235.176 28.3755C231.629 42.1161 228.292 53.1678 225.16 61.4823C222.092 69.6233 219.036 75.6701 215.831 78.8757C212.335 82.3714 207.43 83.8428 201.754 83.8708C196.911 83.8948 191.25 82.8774 184.834 80.9412C184.595 81.3612 184.334 81.7797 184.062 82.1913C182.918 83.9184 181.393 85.772 179.757 87.4699C178.124 89.165 176.287 90.803 174.484 92.0473C172.863 93.1665 170.622 94.4332 168.335 94.4332V99.3031C178.099 99.5752 186.986 100.949 193.749 103.101C197.519 104.301 200.832 105.805 203.278 107.646C205.663 109.44 207.811 112.024 207.811 115.403C207.811 116.301 207.66 117.143 207.392 117.929L196.981 172.141C196.739 173.403 195.84 174.439 194.626 174.858C184.701 178.277 174.737 180 164.747 180C154.756 180 144.792 178.277 134.867 174.858C133.653 174.439 132.755 173.403 132.512 172.141L122.101 117.929C121.833 117.143 121.682 116.301 121.682 115.403C121.682 112.024 123.83 109.44 126.215 107.646C128.662 105.805 131.974 104.301 135.745 103.101C142.507 100.949 151.394 99.5752 161.158 99.3031V70.5434C159.963 70.5434 158.852 70.1649 158.004 69.791C157.102 69.3929 156.19 68.8599 155.315 68.2732C153.565 67.0981 151.716 65.538 150.039 63.8839C148.363 62.2309 146.76 60.3884 145.547 58.6094C145.206 58.1091 144.882 57.5939 144.591 57.0718C138.204 58.9948 132.565 60.005 127.739 59.9811C122.063 59.953 117.158 58.4816 113.662 54.986C110.457 51.7803 107.401 45.7336 104.334 37.5925C101.201 29.2781 97.864 18.2264 94.3171 4.48579C93.9996 3.25574 94.356 1.94948 95.2543 1.0512ZM143.958 49.7546C146.062 43.132 147.028 37.7648 147.007 33.5716C146.984 29.0464 145.827 26.2472 144.114 24.5345C142.111 22.5319 137.411 19.9158 129.265 16.847C122.489 14.2938 113.687 11.5532 102.832 8.62857C105.756 19.4841 108.497 28.2854 111.05 35.062C114.119 43.2075 116.735 47.9081 118.738 49.9108C120.45 51.6234 123.249 52.7813 127.775 52.8037C131.968 52.8245 137.335 51.859 143.958 49.7546ZM161.158 106.484C151.985 106.754 143.861 108.051 137.921 109.941C134.548 111.014 132.079 112.216 130.53 113.381C129.311 114.299 128.98 114.934 128.891 115.228L129.012 115.859C129.2 116.205 129.614 116.735 130.53 117.424C132.079 118.589 134.548 119.791 137.921 120.865C144.625 122.998 154.11 124.375 164.747 124.375C175.383 124.375 184.868 122.998 191.572 120.865C194.945 119.791 197.414 118.589 198.963 117.424C199.879 116.735 200.293 116.205 200.481 115.859L200.602 115.228C200.513 114.934 200.182 114.299 198.963 113.381C197.414 112.216 194.945 111.014 191.572 109.941C185.632 108.051 177.508 106.754 168.335 106.484V113.608C168.335 115.59 166.729 117.197 164.747 117.197C162.765 117.197 161.158 115.59 161.158 113.608V106.484ZM198.556 125.882C197.073 126.554 195.458 127.16 193.749 127.704C186.166 130.117 175.912 131.552 164.747 131.552C153.581 131.552 143.328 130.117 135.745 127.704C134.035 127.16 132.42 126.554 130.937 125.882L139.164 168.723C147.722 171.463 156.245 172.823 164.747 172.823C173.248 172.823 181.771 171.463 190.329 168.723L198.556 125.882ZM185.535 73.6443C192.158 75.7488 197.525 76.7142 201.718 76.6935C206.244 76.6711 209.043 75.5131 210.755 73.8005C212.758 71.7979 215.374 67.0972 218.443 58.9517C220.996 52.1751 223.737 43.3738 226.661 32.5183C215.806 35.443 207.005 38.1836 200.228 40.7367C192.083 43.8055 187.382 46.4216 185.379 48.4243C183.667 50.1369 182.509 52.9361 182.486 57.4613C182.466 61.6545 183.431 67.0217 185.535 73.6443ZM119.144 24.9409C120.546 23.5394 122.818 23.5394 124.219 24.9409L134.986 35.7071C136.387 37.1086 136.387 39.3809 134.986 40.7824C133.584 42.1839 131.312 42.1839 129.91 40.7824L119.144 30.0162C117.743 28.6147 117.743 26.3424 119.144 24.9409ZM210.349 48.8307C211.751 50.2321 211.751 52.5044 210.349 53.9059L199.583 64.6721C198.181 66.0736 195.909 66.0736 194.508 64.6721C193.106 63.2706 193.106 60.9984 194.508 59.5969L205.274 48.8307C206.675 47.4292 208.948 47.4292 210.349 48.8307Z" fill="#1C304A"/>
</svg>
