<svg width="210" height="210" viewBox="0 0 210 210" fill="none" xmlns="http://www.w3.org/2000/svg">
<circle cx="150" cy="59" r="50" fill="#B3EFFF"/>
<path fill-rule="evenodd" clip-rule="evenodd" d="M39.7984 109.851C39.7984 82.9856 60.3033 63.665 85.5242 63.665C110.817 63.665 131.25 84.3823 131.25 109.851C131.25 118.117 128.491 125.744 125.144 132.585C123.467 136.013 121.608 139.308 119.83 142.414C119.604 142.809 119.38 143.2 119.158 143.587C117.612 146.283 116.162 148.814 114.9 151.262C112.375 156.164 109.546 162.891 106.417 171.501C105.912 172.89 104.591 173.816 103.111 173.816H67.9374C66.5046 173.816 65.215 172.947 64.6772 171.621C61.212 163.072 58.1789 156.205 55.5756 150.993C54.381 148.601 52.9827 146.108 51.4781 143.426C51.2842 143.081 51.0886 142.732 50.8914 142.38C49.1836 139.331 47.3829 136.073 45.7525 132.663C42.4966 125.855 39.7984 118.205 39.7984 109.851ZM85.5242 70.6933C64.123 70.6933 46.8331 86.9322 46.8331 109.851C46.8331 116.702 49.0477 123.251 52.1 129.634C53.6237 132.82 55.3259 135.905 57.0302 138.948C57.2249 139.295 57.4199 139.643 57.6148 139.99C59.1071 142.649 60.5945 145.3 61.8702 147.855C64.3532 152.826 67.1645 159.144 70.3022 166.788H100.655C103.509 159.11 106.171 152.848 108.645 148.046C109.985 145.447 111.522 142.766 113.058 140.086C113.28 139.699 113.502 139.312 113.723 138.926C115.496 135.827 117.255 132.704 118.824 129.498C121.969 123.071 124.215 116.57 124.215 109.851C124.215 88.1852 106.854 70.6933 85.5242 70.6933ZM82.0068 88.5148C82.0068 86.574 83.5816 85.0007 85.5242 85.0007C101.12 85.0007 113.663 97.829 113.663 113.529C113.663 115.47 112.088 117.043 110.146 117.043C108.203 117.043 106.628 115.47 106.628 113.529C106.628 101.599 97.1244 92.0289 85.5242 92.0289C83.5816 92.0289 82.0068 90.4556 82.0068 88.5148ZM67.9374 184.525C67.9374 182.585 69.5121 181.011 71.4547 181.011H99.5937C101.536 181.011 103.111 182.585 103.111 184.525C103.111 186.466 101.536 188.04 99.5937 188.04H71.4547C69.5121 188.04 67.9374 186.466 67.9374 184.525ZM71.4547 198.749C71.4547 196.808 73.0295 195.235 74.9721 195.235H96.0763C98.0189 195.235 99.5937 196.808 99.5937 198.749C99.5937 200.69 98.0189 202.263 96.0763 202.263H74.9721C73.0295 202.263 71.4547 200.69 71.4547 198.749Z" fill="#046B99"/>
<path fill-rule="evenodd" clip-rule="evenodd" d="M154.586 22.6207C155.448 22.9886 155.964 23.8866 155.851 24.8224L152.871 49.5159H179.9C180.71 49.5159 181.447 49.9844 181.796 50.7202C182.144 51.4559 182.041 52.3278 181.532 52.9611L148.865 93.5554C148.276 94.2878 147.276 94.539 146.414 94.1711C145.552 93.8032 145.036 92.9051 145.149 91.9694L148.129 67.2759H121.1C120.29 67.2759 119.553 66.8073 119.204 66.0716C118.856 65.3358 118.959 64.4639 119.468 63.8306L152.135 23.2363C152.724 22.5039 153.724 22.2528 154.586 22.6207ZM125.504 63.0473H150.5C151.101 63.0473 151.673 63.3066 152.072 63.7596C152.471 64.2126 152.657 64.8159 152.585 65.4166L150.199 85.1804L175.496 53.7444H150.5C149.899 53.7444 149.327 53.4851 148.928 53.0321C148.529 52.5791 148.343 51.9758 148.415 51.3751L150.801 31.6114L125.504 63.0473Z" fill="#046B99"/>
</svg>
