<svg id="Layer_1_copy" data-name="Layer 1 copy" xmlns="http://www.w3.org/2000/svg" viewBox="0 0 32.15 29.55"><defs><style>.cls-1{fill:none;stroke:#046b99;stroke-linecap:round;stroke-linejoin:round;stroke-width:2px;}</style></defs><g id="_-Sticker-Sheets" data-name="**-Sticker-Sheets"><g id="sticker-sheet--all--page-1"><g id="icon-preview-row-copy-32"><g id="Icon-Row"><g id="icon-_-book-open" data-name="icon-/-book-open"><path id="Combined-Shape" class="cls-1" d="M1.48,3.69h9a6.13,6.13,0,0,1,6,6.22V31.24A4.23,4.23,0,0,0,12,27H1.48Zm30.15,0h-9a6.12,6.12,0,0,0-6,6.22V31.24A4.22,4.22,0,0,1,21.08,27H31.63Z" transform="translate(-0.48 -2.69)"/></g></g></g></g></g><path class="cls-1" d="M4.58,8.83a32.67,32.67,0,0,1,8.09,0" transform="translate(-0.48 -2.69)"/><path class="cls-1" d="M4.58,13.57a32.67,32.67,0,0,1,8.09,0" transform="translate(-0.48 -2.69)"/><path class="cls-1" d="M4.58,18.31a32.67,32.67,0,0,1,8.09,0" transform="translate(-0.48 -2.69)"/><path class="cls-1" d="M4.58,23.05a32.67,32.67,0,0,1,8.09,0" transform="translate(-0.48 -2.69)"/><path class="cls-1" d="M28.52,9.11a32.76,32.76,0,0,0-8.1,0" transform="translate(-0.48 -2.69)"/><path class="cls-1" d="M28.52,13.85a32.24,32.24,0,0,0-8.1,0" transform="translate(-0.48 -2.69)"/><path class="cls-1" d="M28.52,18.58a32.76,32.76,0,0,0-8.1,0" transform="translate(-0.48 -2.69)"/><path class="cls-1" d="M28.52,23.32a32.76,32.76,0,0,0-8.1,0" transform="translate(-0.48 -2.69)"/></svg>