<svg width="500" height="493" viewBox="0 0 500 493" fill="none" xmlns="http://www.w3.org/2000/svg">
<circle cx="250" cy="250" r="243" fill="#B3EFFF"/>
<mask id="mask0_25_2" style="mask-type:alpha" maskUnits="userSpaceOnUse" x="7" y="0" width="486" height="493">
<path fill-rule="evenodd" clip-rule="evenodd" d="M493 0H7V250C7 384.205 115.795 493 250 493C384.205 493 493 384.205 493 250V0Z" fill="#D9D9D9"/>
</mask>
<g mask="url(#mask0_25_2)">
<rect x="42" y="4" width="302" height="505" fill="white" stroke="#00CFFF" stroke-width="8"/>
<path d="M70.65 259.7H74.15C74.7167 259.7 75.2667 259.608 75.8 259.425C76.3333 259.242 76.8083 258.942 77.225 258.525C77.6417 258.092 77.975 257.533 78.225 256.85C78.475 256.167 78.6 255.333 78.6 254.35C78.6 253.45 78.5083 252.642 78.325 251.925C78.1583 251.192 77.875 250.567 77.475 250.05C77.075 249.533 76.5417 249.142 75.875 248.875C75.225 248.592 74.4167 248.45 73.45 248.45H70.65V259.7ZM66.725 245.15H74.425C75.575 245.15 76.6417 245.333 77.625 245.7C78.625 246.067 79.4833 246.617 80.2 247.35C80.9333 248.083 81.5 249 81.9 250.1C82.3167 251.2 82.525 252.492 82.525 253.975C82.525 255.275 82.3583 256.475 82.025 257.575C81.6917 258.675 81.1833 259.625 80.5 260.425C79.8333 261.225 78.9917 261.858 77.975 262.325C76.975 262.775 75.7917 263 74.425 263H66.725V245.15ZM92.8303 255.15C92.6636 254.25 92.3636 253.567 91.9303 253.1C91.5136 252.633 90.8719 252.4 90.0053 252.4C89.4386 252.4 88.9636 252.5 88.5803 252.7C88.2136 252.883 87.9136 253.117 87.6803 253.4C87.4636 253.683 87.3053 253.983 87.2053 254.3C87.1219 254.617 87.0719 254.9 87.0553 255.15H92.8303ZM87.0553 257.4C87.1053 258.55 87.3969 259.383 87.9303 259.9C88.4636 260.417 89.2303 260.675 90.2303 260.675C90.9469 260.675 91.5636 260.5 92.0803 260.15C92.5969 259.783 92.9136 259.4 93.0303 259H96.1553C95.6553 260.55 94.8886 261.658 93.8553 262.325C92.8219 262.992 91.5719 263.325 90.1053 263.325C89.0886 263.325 88.1719 263.167 87.3553 262.85C86.5386 262.517 85.8469 262.05 85.2803 261.45C84.7136 260.85 84.2719 260.133 83.9553 259.3C83.6553 258.467 83.5053 257.55 83.5053 256.55C83.5053 255.583 83.6636 254.683 83.9803 253.85C84.2969 253.017 84.7469 252.3 85.3303 251.7C85.9136 251.083 86.6053 250.6 87.4053 250.25C88.2219 249.9 89.1219 249.725 90.1053 249.725C91.2053 249.725 92.1636 249.942 92.9803 250.375C93.7969 250.792 94.4636 251.358 94.9803 252.075C95.5136 252.792 95.8969 253.608 96.1303 254.525C96.3636 255.442 96.4469 256.4 96.3803 257.4H87.0553ZM97.7107 254.65H105.236V257.7H97.7107V254.65ZM107.166 250.075H110.541V252.475H110.591C110.758 252.075 110.983 251.708 111.266 251.375C111.55 251.025 111.875 250.733 112.241 250.5C112.608 250.25 113 250.058 113.416 249.925C113.833 249.792 114.266 249.725 114.716 249.725C114.95 249.725 115.208 249.767 115.491 249.85V253.15C115.325 253.117 115.125 253.092 114.891 253.075C114.658 253.042 114.433 253.025 114.216 253.025C113.566 253.025 113.016 253.133 112.566 253.35C112.116 253.567 111.75 253.867 111.466 254.25C111.2 254.617 111.008 255.05 110.891 255.55C110.775 256.05 110.716 256.592 110.716 257.175V263H107.166V250.075ZM119.783 248.075H116.233V245.15H119.783V248.075ZM116.233 250.075H119.783V263H116.233V250.075ZM124.579 258.8C124.579 259.183 124.654 259.517 124.804 259.8C124.97 260.067 125.179 260.292 125.429 260.475C125.679 260.642 125.962 260.767 126.279 260.85C126.612 260.933 126.954 260.975 127.304 260.975C127.554 260.975 127.812 260.95 128.079 260.9C128.362 260.833 128.612 260.742 128.829 260.625C129.062 260.492 129.254 260.325 129.404 260.125C129.554 259.908 129.629 259.642 129.629 259.325C129.629 258.792 129.27 258.392 128.554 258.125C127.854 257.858 126.87 257.592 125.604 257.325C125.087 257.208 124.579 257.075 124.079 256.925C123.595 256.758 123.162 256.55 122.779 256.3C122.395 256.033 122.087 255.708 121.854 255.325C121.62 254.925 121.504 254.442 121.504 253.875C121.504 253.042 121.662 252.358 121.979 251.825C122.312 251.292 122.745 250.875 123.279 250.575C123.812 250.258 124.412 250.042 125.079 249.925C125.745 249.792 126.429 249.725 127.129 249.725C127.829 249.725 128.504 249.792 129.154 249.925C129.82 250.058 130.412 250.283 130.929 250.6C131.445 250.917 131.87 251.342 132.204 251.875C132.554 252.392 132.762 253.05 132.829 253.85H129.454C129.404 253.167 129.145 252.708 128.679 252.475C128.212 252.225 127.662 252.1 127.029 252.1C126.829 252.1 126.612 252.117 126.379 252.15C126.145 252.167 125.929 252.217 125.729 252.3C125.545 252.383 125.387 252.508 125.254 252.675C125.12 252.825 125.054 253.033 125.054 253.3C125.054 253.617 125.17 253.875 125.404 254.075C125.637 254.275 125.937 254.442 126.304 254.575C126.687 254.692 127.12 254.8 127.604 254.9C128.087 255 128.579 255.108 129.079 255.225C129.595 255.342 130.095 255.483 130.579 255.65C131.079 255.817 131.52 256.042 131.904 256.325C132.287 256.592 132.595 256.933 132.829 257.35C133.062 257.75 133.179 258.25 133.179 258.85C133.179 259.7 133.004 260.417 132.654 261C132.32 261.567 131.879 262.025 131.329 262.375C130.779 262.725 130.145 262.967 129.429 263.1C128.729 263.25 128.012 263.325 127.279 263.325C126.529 263.325 125.795 263.25 125.079 263.1C124.362 262.95 123.72 262.7 123.154 262.35C122.604 262 122.145 261.542 121.779 260.975C121.429 260.392 121.237 259.667 121.204 258.8H124.579ZM134.831 245.15H138.381V254.725L142.856 250.075H147.056L142.181 254.825L147.606 263H143.306L139.756 257.225L138.381 258.55V263H134.831V245.15ZM151.762 248.075H148.212V245.15H151.762V248.075ZM148.212 250.075H151.762V263H148.212V250.075ZM153.807 250.075H157.182V251.875H157.257C157.707 251.125 158.29 250.583 159.007 250.25C159.724 249.9 160.457 249.725 161.207 249.725C162.157 249.725 162.932 249.858 163.532 250.125C164.149 250.375 164.632 250.733 164.982 251.2C165.332 251.65 165.574 252.208 165.707 252.875C165.857 253.525 165.932 254.25 165.932 255.05V263H162.382V255.7C162.382 254.633 162.215 253.842 161.882 253.325C161.549 252.792 160.957 252.525 160.107 252.525C159.14 252.525 158.44 252.817 158.007 253.4C157.574 253.967 157.357 254.908 157.357 256.225V263H153.807V250.075ZM173.901 259.95C174.401 259.95 174.843 259.85 175.226 259.65C175.61 259.45 175.926 259.183 176.176 258.85C176.426 258.517 176.61 258.142 176.726 257.725C176.86 257.292 176.926 256.842 176.926 256.375C176.926 255.842 176.876 255.342 176.776 254.875C176.676 254.392 176.51 253.967 176.276 253.6C176.043 253.233 175.735 252.942 175.351 252.725C174.968 252.508 174.485 252.4 173.901 252.4C173.401 252.4 172.968 252.5 172.601 252.7C172.251 252.9 171.951 253.175 171.701 253.525C171.468 253.858 171.293 254.25 171.176 254.7C171.076 255.133 171.026 255.592 171.026 256.075C171.026 256.542 171.068 257.008 171.151 257.475C171.251 257.925 171.41 258.333 171.626 258.7C171.86 259.067 172.16 259.367 172.526 259.6C172.893 259.833 173.351 259.95 173.901 259.95ZM180.301 262.175C180.301 262.692 180.226 263.283 180.076 263.95C179.943 264.617 179.643 265.233 179.176 265.8C178.71 266.383 178.035 266.875 177.151 267.275C176.268 267.675 175.085 267.875 173.601 267.875C172.968 267.875 172.318 267.792 171.651 267.625C171.001 267.475 170.401 267.233 169.851 266.9C169.318 266.567 168.868 266.133 168.501 265.6C168.151 265.083 167.951 264.458 167.901 263.725H171.426C171.593 264.392 171.918 264.85 172.401 265.1C172.885 265.367 173.443 265.5 174.076 265.5C175.076 265.5 175.801 265.2 176.251 264.6C176.718 264 176.943 263.242 176.926 262.325V260.625H176.876C176.493 261.308 175.943 261.817 175.226 262.15C174.526 262.467 173.785 262.625 173.001 262.625C172.035 262.625 171.201 262.458 170.501 262.125C169.801 261.775 169.226 261.308 168.776 260.725C168.326 260.125 167.993 259.433 167.776 258.65C167.576 257.85 167.476 257.008 167.476 256.125C167.476 255.292 167.593 254.492 167.826 253.725C168.076 252.942 168.435 252.258 168.901 251.675C169.368 251.075 169.943 250.6 170.626 250.25C171.326 249.9 172.126 249.725 173.026 249.725C173.876 249.725 174.618 249.883 175.251 250.2C175.901 250.517 176.443 251.05 176.876 251.8H176.926V250.075H180.301V262.175ZM70.85 281.075H73.45V283.45H70.85V289.85C70.85 290.45 70.95 290.85 71.15 291.05C71.35 291.25 71.75 291.35 72.35 291.35C72.55 291.35 72.7417 291.342 72.925 291.325C73.1083 291.308 73.2833 291.283 73.45 291.25V294C73.15 294.05 72.8167 294.083 72.45 294.1C72.0833 294.117 71.725 294.125 71.375 294.125C70.825 294.125 70.3 294.083 69.8 294C69.3167 293.933 68.8833 293.792 68.5 293.575C68.1333 293.358 67.8417 293.05 67.625 292.65C67.4083 292.25 67.3 291.725 67.3 291.075V283.45H65.15V281.075H67.3V277.2H70.85V281.075ZM83.0891 286.15C82.9224 285.25 82.6224 284.567 82.1891 284.1C81.7724 283.633 81.1307 283.4 80.2641 283.4C79.6974 283.4 79.2224 283.5 78.8391 283.7C78.4724 283.883 78.1724 284.117 77.9391 284.4C77.7224 284.683 77.5641 284.983 77.4641 285.3C77.3807 285.617 77.3307 285.9 77.3141 286.15H83.0891ZM77.3141 288.4C77.3641 289.55 77.6557 290.383 78.1891 290.9C78.7224 291.417 79.4891 291.675 80.4891 291.675C81.2057 291.675 81.8224 291.5 82.3391 291.15C82.8557 290.783 83.1724 290.4 83.2891 290H86.4141C85.9141 291.55 85.1474 292.658 84.1141 293.325C83.0807 293.992 81.8307 294.325 80.3641 294.325C79.3474 294.325 78.4307 294.167 77.6141 293.85C76.7974 293.517 76.1057 293.05 75.5391 292.45C74.9724 291.85 74.5307 291.133 74.2141 290.3C73.9141 289.467 73.7641 288.55 73.7641 287.55C73.7641 286.583 73.9224 285.683 74.2391 284.85C74.5557 284.017 75.0057 283.3 75.5891 282.7C76.1724 282.083 76.8641 281.6 77.6641 281.25C78.4807 280.9 79.3807 280.725 80.3641 280.725C81.4641 280.725 82.4224 280.942 83.2391 281.375C84.0557 281.792 84.7224 282.358 85.2391 283.075C85.7724 283.792 86.1557 284.608 86.3891 285.525C86.6224 286.442 86.7057 287.4 86.6391 288.4H77.3141ZM96.7945 285.625C96.5612 284.142 95.6862 283.4 94.1695 283.4C93.6029 283.4 93.1279 283.533 92.7445 283.8C92.3612 284.05 92.0445 284.383 91.7945 284.8C91.5612 285.2 91.3945 285.65 91.2945 286.15C91.1945 286.633 91.1445 287.117 91.1445 287.6C91.1445 288.067 91.1945 288.542 91.2945 289.025C91.3945 289.508 91.5529 289.95 91.7695 290.35C92.0029 290.733 92.3112 291.05 92.6945 291.3C93.0779 291.55 93.5445 291.675 94.0945 291.675C94.9445 291.675 95.5945 291.442 96.0445 290.975C96.5112 290.492 96.8029 289.85 96.9195 289.05H100.345C100.111 290.767 99.4445 292.075 98.3445 292.975C97.2445 293.875 95.8362 294.325 94.1195 294.325C93.1529 294.325 92.2612 294.167 91.4445 293.85C90.6445 293.517 89.9612 293.058 89.3945 292.475C88.8279 291.892 88.3862 291.2 88.0695 290.4C87.7529 289.583 87.5945 288.692 87.5945 287.725C87.5945 286.725 87.7362 285.8 88.0195 284.95C88.3195 284.083 88.7529 283.342 89.3195 282.725C89.8862 282.092 90.5779 281.6 91.3945 281.25C92.2112 280.9 93.1445 280.725 94.1945 280.725C94.9612 280.725 95.6945 280.825 96.3945 281.025C97.1112 281.225 97.7445 281.533 98.2945 281.95C98.8612 282.35 99.3195 282.858 99.6695 283.475C100.02 284.075 100.22 284.792 100.27 285.625H96.7945ZM101.6 276.15H105.15V282.875H105.225C105.675 282.125 106.25 281.583 106.95 281.25C107.65 280.9 108.333 280.725 109 280.725C109.95 280.725 110.725 280.858 111.325 281.125C111.942 281.375 112.425 281.733 112.775 282.2C113.125 282.65 113.367 283.208 113.5 283.875C113.65 284.525 113.725 285.25 113.725 286.05V294H110.175V286.7C110.175 285.633 110.008 284.842 109.675 284.325C109.342 283.792 108.75 283.525 107.9 283.525C106.933 283.525 106.233 283.817 105.8 284.4C105.367 284.967 105.15 285.908 105.15 287.225V294H101.6V276.15ZM115.669 281.075H119.044V282.875H119.119C119.569 282.125 120.153 281.583 120.869 281.25C121.586 280.9 122.319 280.725 123.069 280.725C124.019 280.725 124.794 280.858 125.394 281.125C126.011 281.375 126.494 281.733 126.844 282.2C127.194 282.65 127.436 283.208 127.569 283.875C127.719 284.525 127.794 285.25 127.794 286.05V294H124.244V286.7C124.244 285.633 124.078 284.842 123.744 284.325C123.411 283.792 122.819 283.525 121.969 283.525C121.003 283.525 120.303 283.817 119.869 284.4C119.436 284.967 119.219 285.908 119.219 287.225V294H115.669V281.075ZM132.889 287.55C132.889 288.067 132.939 288.575 133.039 289.075C133.139 289.558 133.305 290 133.539 290.4C133.789 290.783 134.114 291.092 134.514 291.325C134.914 291.558 135.414 291.675 136.014 291.675C136.614 291.675 137.114 291.558 137.514 291.325C137.93 291.092 138.255 290.783 138.489 290.4C138.739 290 138.914 289.558 139.014 289.075C139.114 288.575 139.164 288.067 139.164 287.55C139.164 287.033 139.114 286.525 139.014 286.025C138.914 285.525 138.739 285.083 138.489 284.7C138.255 284.317 137.93 284.008 137.514 283.775C137.114 283.525 136.614 283.4 136.014 283.4C135.414 283.4 134.914 283.525 134.514 283.775C134.114 284.008 133.789 284.317 133.539 284.7C133.305 285.083 133.139 285.525 133.039 286.025C132.939 286.525 132.889 287.033 132.889 287.55ZM129.339 287.55C129.339 286.517 129.497 285.583 129.814 284.75C130.13 283.9 130.58 283.183 131.164 282.6C131.747 282 132.447 281.542 133.264 281.225C134.08 280.892 134.997 280.725 136.014 280.725C137.03 280.725 137.947 280.892 138.764 281.225C139.597 281.542 140.305 282 140.889 282.6C141.472 283.183 141.922 283.9 142.239 284.75C142.555 285.583 142.714 286.517 142.714 287.55C142.714 288.583 142.555 289.517 142.239 290.35C141.922 291.183 141.472 291.9 140.889 292.5C140.305 293.083 139.597 293.533 138.764 293.85C137.947 294.167 137.03 294.325 136.014 294.325C134.997 294.325 134.08 294.167 133.264 293.85C132.447 293.533 131.747 293.083 131.164 292.5C130.58 291.9 130.13 291.183 129.814 290.35C129.497 289.517 129.339 288.583 129.339 287.55ZM144.372 276.15H147.922V294H144.372V276.15ZM153.117 287.55C153.117 288.067 153.167 288.575 153.267 289.075C153.367 289.558 153.534 290 153.767 290.4C154.017 290.783 154.342 291.092 154.742 291.325C155.142 291.558 155.642 291.675 156.242 291.675C156.842 291.675 157.342 291.558 157.742 291.325C158.159 291.092 158.484 290.783 158.717 290.4C158.967 290 159.142 289.558 159.242 289.075C159.342 288.575 159.392 288.067 159.392 287.55C159.392 287.033 159.342 286.525 159.242 286.025C159.142 285.525 158.967 285.083 158.717 284.7C158.484 284.317 158.159 284.008 157.742 283.775C157.342 283.525 156.842 283.4 156.242 283.4C155.642 283.4 155.142 283.525 154.742 283.775C154.342 284.008 154.017 284.317 153.767 284.7C153.534 285.083 153.367 285.525 153.267 286.025C153.167 286.525 153.117 287.033 153.117 287.55ZM149.567 287.55C149.567 286.517 149.726 285.583 150.042 284.75C150.359 283.9 150.809 283.183 151.392 282.6C151.976 282 152.676 281.542 153.492 281.225C154.309 280.892 155.226 280.725 156.242 280.725C157.259 280.725 158.176 280.892 158.992 281.225C159.826 281.542 160.534 282 161.117 282.6C161.701 283.183 162.151 283.9 162.467 284.75C162.784 285.583 162.942 286.517 162.942 287.55C162.942 288.583 162.784 289.517 162.467 290.35C162.151 291.183 161.701 291.9 161.117 292.5C160.534 293.083 159.826 293.533 158.992 293.85C158.176 294.167 157.259 294.325 156.242 294.325C155.226 294.325 154.309 294.167 153.492 293.85C152.676 293.533 151.976 293.083 151.392 292.5C150.809 291.9 150.359 291.183 150.042 290.35C149.726 289.517 149.567 288.583 149.567 287.55ZM170.525 290.95C171.025 290.95 171.467 290.85 171.85 290.65C172.234 290.45 172.55 290.183 172.8 289.85C173.05 289.517 173.234 289.142 173.35 288.725C173.484 288.292 173.55 287.842 173.55 287.375C173.55 286.842 173.5 286.342 173.4 285.875C173.3 285.392 173.134 284.967 172.9 284.6C172.667 284.233 172.359 283.942 171.975 283.725C171.592 283.508 171.109 283.4 170.525 283.4C170.025 283.4 169.592 283.5 169.225 283.7C168.875 283.9 168.575 284.175 168.325 284.525C168.092 284.858 167.917 285.25 167.8 285.7C167.7 286.133 167.65 286.592 167.65 287.075C167.65 287.542 167.692 288.008 167.775 288.475C167.875 288.925 168.034 289.333 168.25 289.7C168.484 290.067 168.784 290.367 169.15 290.6C169.517 290.833 169.975 290.95 170.525 290.95ZM176.925 293.175C176.925 293.692 176.85 294.283 176.7 294.95C176.567 295.617 176.267 296.233 175.8 296.8C175.334 297.383 174.659 297.875 173.775 298.275C172.892 298.675 171.709 298.875 170.225 298.875C169.592 298.875 168.942 298.792 168.275 298.625C167.625 298.475 167.025 298.233 166.475 297.9C165.942 297.567 165.492 297.133 165.125 296.6C164.775 296.083 164.575 295.458 164.525 294.725H168.05C168.217 295.392 168.542 295.85 169.025 296.1C169.509 296.367 170.067 296.5 170.7 296.5C171.7 296.5 172.425 296.2 172.875 295.6C173.342 295 173.567 294.242 173.55 293.325V291.625H173.5C173.117 292.308 172.567 292.817 171.85 293.15C171.15 293.467 170.409 293.625 169.625 293.625C168.659 293.625 167.825 293.458 167.125 293.125C166.425 292.775 165.85 292.308 165.4 291.725C164.95 291.125 164.617 290.433 164.4 289.65C164.2 288.85 164.1 288.008 164.1 287.125C164.1 286.292 164.217 285.492 164.45 284.725C164.7 283.942 165.059 283.258 165.525 282.675C165.992 282.075 166.567 281.6 167.25 281.25C167.95 280.9 168.75 280.725 169.65 280.725C170.5 280.725 171.242 280.883 171.875 281.2C172.525 281.517 173.067 282.05 173.5 282.8H173.55V281.075H176.925V293.175ZM185.409 295.6C185.025 296.65 184.492 297.4 183.809 297.85C183.125 298.3 182.175 298.525 180.959 298.525C180.592 298.525 180.225 298.508 179.859 298.475C179.509 298.458 179.15 298.433 178.784 298.4V295.475C179.117 295.508 179.459 295.542 179.809 295.575C180.159 295.608 180.509 295.617 180.859 295.6C181.325 295.55 181.667 295.367 181.884 295.05C182.117 294.733 182.234 294.383 182.234 294C182.234 293.717 182.184 293.45 182.084 293.2L177.559 281.075H181.334L184.259 289.925H184.309L187.134 281.075H190.809L185.409 295.6Z" fill="#1C304A"/>
<rect x="65" y="207" width="250" height="10" fill="#00CFFF"/>
<path d="M70.984 86.942C70.984 87.758 71.1313 88.4493 71.426 89.016C71.7207 89.5827 72.106 90.0473 72.582 90.41C73.0807 90.75 73.6587 91.0107 74.316 91.192C74.9733 91.3507 75.6533 91.43 76.356 91.43C76.832 91.43 77.342 91.396 77.886 91.328C78.43 91.2373 78.94 91.0787 79.416 90.852C79.892 90.6253 80.2887 90.3193 80.606 89.934C80.9233 89.526 81.082 89.016 81.082 88.404C81.082 87.7467 80.8667 87.214 80.436 86.806C80.028 86.398 79.484 86.058 78.804 85.786C78.124 85.514 77.3533 85.276 76.492 85.072C75.6307 84.868 74.758 84.6413 73.874 84.392C72.9673 84.1653 72.0833 83.8933 71.222 83.576C70.3607 83.236 69.59 82.8053 68.91 82.284C68.23 81.7627 67.6747 81.1167 67.244 80.346C66.836 79.5527 66.632 78.6007 66.632 77.49C66.632 76.2433 66.8927 75.1667 67.414 74.26C67.958 73.3307 68.6607 72.56 69.522 71.948C70.3833 71.336 71.358 70.8827 72.446 70.588C73.534 70.2933 74.622 70.146 75.71 70.146C76.9793 70.146 78.192 70.2933 79.348 70.588C80.5267 70.86 81.5693 71.3133 82.476 71.948C83.3827 72.5827 84.0967 73.3987 84.618 74.396C85.162 75.3707 85.434 76.5607 85.434 77.966H80.266C80.2207 77.2407 80.062 76.64 79.79 76.164C79.5407 75.688 79.2007 75.314 78.77 75.042C78.3393 74.77 77.8407 74.5773 77.274 74.464C76.73 74.3507 76.1293 74.294 75.472 74.294C75.0413 74.294 74.6107 74.3393 74.18 74.43C73.7493 74.5207 73.3527 74.6793 72.99 74.906C72.65 75.1327 72.3667 75.416 72.14 75.756C71.9133 76.096 71.8 76.5267 71.8 77.048C71.8 77.524 71.8907 77.9093 72.072 78.204C72.2533 78.4987 72.6047 78.7707 73.126 79.02C73.67 79.2693 74.4067 79.5187 75.336 79.768C76.288 80.0173 77.5233 80.3347 79.042 80.72C79.4953 80.8107 80.1187 80.9807 80.912 81.23C81.728 81.4567 82.5327 81.8307 83.326 82.352C84.1193 82.8733 84.7993 83.576 85.366 84.46C85.9553 85.3213 86.25 86.432 86.25 87.792C86.25 88.9027 86.0347 89.934 85.604 90.886C85.1733 91.838 84.5273 92.6653 83.666 93.368C82.8273 94.048 81.7733 94.5807 80.504 94.966C79.2573 95.3513 77.8067 95.544 76.152 95.544C74.8147 95.544 73.5113 95.374 72.242 95.034C70.9953 94.7167 69.8847 94.2067 68.91 93.504C67.958 92.8013 67.1987 91.906 66.632 90.818C66.0653 89.73 65.7933 88.438 65.816 86.942H70.984ZM95.5461 77.422H99.0821V80.652H95.5461V89.356C95.5461 90.172 95.6821 90.716 95.9541 90.988C96.2261 91.26 96.7701 91.396 97.5861 91.396C97.8581 91.396 98.1187 91.3847 98.3681 91.362C98.6174 91.3393 98.8554 91.3053 99.0821 91.26V95C98.6741 95.068 98.2207 95.1133 97.7221 95.136C97.2234 95.1587 96.7361 95.17 96.2601 95.17C95.5121 95.17 94.7981 95.1133 94.1181 95C93.4607 94.9093 92.8714 94.7167 92.3501 94.422C91.8514 94.1273 91.4547 93.708 91.1601 93.164C90.8654 92.62 90.7181 91.906 90.7181 91.022V80.652H87.7941V77.422H90.7181V72.152H95.5461V77.422ZM101.685 82.828C101.753 81.6947 102.037 80.754 102.535 80.006C103.034 79.258 103.669 78.6573 104.439 78.204C105.21 77.7507 106.071 77.4333 107.023 77.252C107.998 77.048 108.973 76.946 109.947 76.946C110.831 76.946 111.727 77.014 112.633 77.15C113.54 77.2633 114.367 77.5013 115.115 77.864C115.863 78.2267 116.475 78.7367 116.951 79.394C117.427 80.0287 117.665 80.8787 117.665 81.944V91.09C117.665 91.8833 117.711 92.6427 117.801 93.368C117.892 94.0933 118.051 94.6373 118.277 95H113.381C113.291 94.728 113.211 94.456 113.143 94.184C113.098 93.8893 113.064 93.5947 113.041 93.3C112.271 94.0933 111.364 94.6487 110.321 94.966C109.279 95.2833 108.213 95.442 107.125 95.442C106.287 95.442 105.505 95.34 104.779 95.136C104.054 94.932 103.419 94.6147 102.875 94.184C102.331 93.7533 101.901 93.2093 101.583 92.552C101.289 91.8947 101.141 91.1127 101.141 90.206C101.141 89.2087 101.311 88.3927 101.651 87.758C102.014 87.1007 102.467 86.5793 103.011 86.194C103.578 85.8087 104.213 85.5253 104.915 85.344C105.641 85.14 106.366 84.9813 107.091 84.868C107.817 84.7547 108.531 84.664 109.233 84.596C109.936 84.528 110.559 84.426 111.103 84.29C111.647 84.154 112.078 83.9613 112.395 83.712C112.713 83.44 112.86 83.0547 112.837 82.556C112.837 82.0347 112.747 81.6267 112.565 81.332C112.407 81.0147 112.18 80.7767 111.885 80.618C111.613 80.4367 111.285 80.3233 110.899 80.278C110.537 80.21 110.14 80.176 109.709 80.176C108.757 80.176 108.009 80.38 107.465 80.788C106.921 81.196 106.604 81.876 106.513 82.828H101.685ZM112.837 86.398C112.633 86.5793 112.373 86.7267 112.055 86.84C111.761 86.9307 111.432 87.01 111.069 87.078C110.729 87.146 110.367 87.2027 109.981 87.248C109.596 87.2933 109.211 87.35 108.825 87.418C108.463 87.486 108.1 87.5767 107.737 87.69C107.397 87.8033 107.091 87.962 106.819 88.166C106.57 88.3473 106.366 88.5853 106.207 88.88C106.049 89.1747 105.969 89.5487 105.969 90.002C105.969 90.4327 106.049 90.7953 106.207 91.09C106.366 91.3847 106.581 91.6227 106.853 91.804C107.125 91.9627 107.443 92.076 107.805 92.144C108.168 92.212 108.542 92.246 108.927 92.246C109.879 92.246 110.616 92.0873 111.137 91.77C111.659 91.4527 112.044 91.0787 112.293 90.648C112.543 90.1947 112.69 89.7413 112.735 89.288C112.803 88.8347 112.837 88.472 112.837 88.2V86.398ZM128.043 77.422H131.579V80.652H128.043V89.356C128.043 90.172 128.179 90.716 128.451 90.988C128.723 91.26 129.267 91.396 130.083 91.396C130.355 91.396 130.615 91.3847 130.865 91.362C131.114 91.3393 131.352 91.3053 131.579 91.26V95C131.171 95.068 130.717 95.1133 130.219 95.136C129.72 95.1587 129.233 95.17 128.757 95.17C128.009 95.17 127.295 95.1133 126.615 95C125.957 94.9093 125.368 94.7167 124.847 94.422C124.348 94.1273 123.951 93.708 123.657 93.164C123.362 92.62 123.215 91.906 123.215 91.022V80.652H120.291V77.422H123.215V72.152H128.043V77.422ZM146.218 84.324C145.991 83.1 145.583 82.1707 144.994 81.536C144.427 80.9013 143.554 80.584 142.376 80.584C141.605 80.584 140.959 80.72 140.438 80.992C139.939 81.2413 139.531 81.5587 139.214 81.944C138.919 82.3293 138.704 82.7373 138.568 83.168C138.454 83.5987 138.386 83.984 138.364 84.324H146.218ZM138.364 87.384C138.432 88.948 138.828 90.0813 139.554 90.784C140.279 91.4867 141.322 91.838 142.682 91.838C143.656 91.838 144.495 91.6 145.198 91.124C145.9 90.6253 146.331 90.104 146.49 89.56H150.74C150.06 91.668 149.017 93.1753 147.612 94.082C146.206 94.9887 144.506 95.442 142.512 95.442C141.129 95.442 139.882 95.2267 138.772 94.796C137.661 94.3427 136.72 93.708 135.95 92.892C135.179 92.076 134.578 91.1013 134.148 89.968C133.74 88.8347 133.536 87.588 133.536 86.228C133.536 84.9133 133.751 83.6893 134.182 82.556C134.612 81.4227 135.224 80.448 136.018 79.632C136.811 78.7933 137.752 78.136 138.84 77.66C139.95 77.184 141.174 76.946 142.512 76.946C144.008 76.946 145.311 77.2407 146.422 77.83C147.532 78.3967 148.439 79.1673 149.142 80.142C149.867 81.1167 150.388 82.2273 150.706 83.474C151.023 84.7207 151.136 86.024 151.046 87.384H138.364ZM168.54 86.942C168.54 87.758 168.687 88.4493 168.982 89.016C169.277 89.5827 169.662 90.0473 170.138 90.41C170.637 90.75 171.215 91.0107 171.872 91.192C172.529 91.3507 173.209 91.43 173.912 91.43C174.388 91.43 174.898 91.396 175.442 91.328C175.986 91.2373 176.496 91.0787 176.972 90.852C177.448 90.6253 177.845 90.3193 178.162 89.934C178.479 89.526 178.638 89.016 178.638 88.404C178.638 87.7467 178.423 87.214 177.992 86.806C177.584 86.398 177.04 86.058 176.36 85.786C175.68 85.514 174.909 85.276 174.048 85.072C173.187 84.868 172.314 84.6413 171.43 84.392C170.523 84.1653 169.639 83.8933 168.778 83.576C167.917 83.236 167.146 82.8053 166.466 82.284C165.786 81.7627 165.231 81.1167 164.8 80.346C164.392 79.5527 164.188 78.6007 164.188 77.49C164.188 76.2433 164.449 75.1667 164.97 74.26C165.514 73.3307 166.217 72.56 167.078 71.948C167.939 71.336 168.914 70.8827 170.002 70.588C171.09 70.2933 172.178 70.146 173.266 70.146C174.535 70.146 175.748 70.2933 176.904 70.588C178.083 70.86 179.125 71.3133 180.032 71.948C180.939 72.5827 181.653 73.3987 182.174 74.396C182.718 75.3707 182.99 76.5607 182.99 77.966H177.822C177.777 77.2407 177.618 76.64 177.346 76.164C177.097 75.688 176.757 75.314 176.326 75.042C175.895 74.77 175.397 74.5773 174.83 74.464C174.286 74.3507 173.685 74.294 173.028 74.294C172.597 74.294 172.167 74.3393 171.736 74.43C171.305 74.5207 170.909 74.6793 170.546 74.906C170.206 75.1327 169.923 75.416 169.696 75.756C169.469 76.096 169.356 76.5267 169.356 77.048C169.356 77.524 169.447 77.9093 169.628 78.204C169.809 78.4987 170.161 78.7707 170.682 79.02C171.226 79.2693 171.963 79.5187 172.892 79.768C173.844 80.0173 175.079 80.3347 176.598 80.72C177.051 80.8107 177.675 80.9807 178.468 81.23C179.284 81.4567 180.089 81.8307 180.882 82.352C181.675 82.8733 182.355 83.576 182.922 84.46C183.511 85.3213 183.806 86.432 183.806 87.792C183.806 88.9027 183.591 89.934 183.16 90.886C182.729 91.838 182.083 92.6653 181.222 93.368C180.383 94.048 179.329 94.5807 178.06 94.966C176.813 95.3513 175.363 95.544 173.708 95.544C172.371 95.544 171.067 95.374 169.798 95.034C168.551 94.7167 167.441 94.2067 166.466 93.504C165.514 92.8013 164.755 91.906 164.188 90.818C163.621 89.73 163.349 88.438 163.372 86.942H168.54ZM191.266 86.228C191.266 86.9307 191.334 87.622 191.47 88.302C191.606 88.9593 191.833 89.56 192.15 90.104C192.49 90.6253 192.932 91.0447 193.476 91.362C194.02 91.6793 194.7 91.838 195.516 91.838C196.332 91.838 197.012 91.6793 197.556 91.362C198.123 91.0447 198.565 90.6253 198.882 90.104C199.222 89.56 199.46 88.9593 199.596 88.302C199.732 87.622 199.8 86.9307 199.8 86.228C199.8 85.5253 199.732 84.834 199.596 84.154C199.46 83.474 199.222 82.8733 198.882 82.352C198.565 81.8307 198.123 81.4113 197.556 81.094C197.012 80.754 196.332 80.584 195.516 80.584C194.7 80.584 194.02 80.754 193.476 81.094C192.932 81.4113 192.49 81.8307 192.15 82.352C191.833 82.8733 191.606 83.474 191.47 84.154C191.334 84.834 191.266 85.5253 191.266 86.228ZM186.438 86.228C186.438 84.8227 186.654 83.5533 187.084 82.42C187.515 81.264 188.127 80.2893 188.92 79.496C189.714 78.68 190.666 78.0567 191.776 77.626C192.887 77.1727 194.134 76.946 195.516 76.946C196.899 76.946 198.146 77.1727 199.256 77.626C200.39 78.0567 201.353 78.68 202.146 79.496C202.94 80.2893 203.552 81.264 203.982 82.42C204.413 83.5533 204.628 84.8227 204.628 86.228C204.628 87.6333 204.413 88.9027 203.982 90.036C203.552 91.1693 202.94 92.144 202.146 92.96C201.353 93.7533 200.39 94.3653 199.256 94.796C198.146 95.2267 196.899 95.442 195.516 95.442C194.134 95.442 192.887 95.2267 191.776 94.796C190.666 94.3653 189.714 93.7533 188.92 92.96C188.127 92.144 187.515 91.1693 187.084 90.036C186.654 88.9027 186.438 87.6333 186.438 86.228ZM209.331 80.652H206.441V77.422H209.331V76.062C209.331 74.498 209.819 73.2173 210.793 72.22C211.768 71.2227 213.241 70.724 215.213 70.724C215.644 70.724 216.075 70.7467 216.505 70.792C216.936 70.8147 217.355 70.8373 217.763 70.86V74.464C217.197 74.396 216.607 74.362 215.995 74.362C215.338 74.362 214.862 74.5207 214.567 74.838C214.295 75.1327 214.159 75.6427 214.159 76.368V77.422H217.491V80.652H214.159V95H209.331V80.652ZM226.23 77.422H229.766V80.652H226.23V89.356C226.23 90.172 226.366 90.716 226.638 90.988C226.91 91.26 227.454 91.396 228.27 91.396C228.542 91.396 228.802 91.3847 229.052 91.362C229.301 91.3393 229.539 91.3053 229.766 91.26V95C229.358 95.068 228.904 95.1133 228.406 95.136C227.907 95.1587 227.42 95.17 226.944 95.17C226.196 95.17 225.482 95.1133 224.802 95C224.144 94.9093 223.555 94.7167 223.034 94.422C222.535 94.1273 222.138 93.708 221.844 93.164C221.549 92.62 221.402 91.906 221.402 91.022V80.652H218.478V77.422H221.402V72.152H226.23V77.422ZM252.667 95H247.703L244.575 83.202H244.507L241.515 95H236.517L230.941 77.422H236.041L239.271 89.356H239.339L242.263 77.422H246.955L249.947 89.322H250.015L253.245 77.422H258.209L252.667 95ZM260.57 82.828C260.638 81.6947 260.921 80.754 261.42 80.006C261.919 79.258 262.553 78.6573 263.324 78.204C264.095 77.7507 264.956 77.4333 265.908 77.252C266.883 77.048 267.857 76.946 268.832 76.946C269.716 76.946 270.611 77.014 271.518 77.15C272.425 77.2633 273.252 77.5013 274 77.864C274.748 78.2267 275.36 78.7367 275.836 79.394C276.312 80.0287 276.55 80.8787 276.55 81.944V91.09C276.55 91.8833 276.595 92.6427 276.686 93.368C276.777 94.0933 276.935 94.6373 277.162 95H272.266C272.175 94.728 272.096 94.456 272.028 94.184C271.983 93.8893 271.949 93.5947 271.926 93.3C271.155 94.0933 270.249 94.6487 269.206 94.966C268.163 95.2833 267.098 95.442 266.01 95.442C265.171 95.442 264.389 95.34 263.664 95.136C262.939 94.932 262.304 94.6147 261.76 94.184C261.216 93.7533 260.785 93.2093 260.468 92.552C260.173 91.8947 260.026 91.1127 260.026 90.206C260.026 89.2087 260.196 88.3927 260.536 87.758C260.899 87.1007 261.352 86.5793 261.896 86.194C262.463 85.8087 263.097 85.5253 263.8 85.344C264.525 85.14 265.251 84.9813 265.976 84.868C266.701 84.7547 267.415 84.664 268.118 84.596C268.821 84.528 269.444 84.426 269.988 84.29C270.532 84.154 270.963 83.9613 271.28 83.712C271.597 83.44 271.745 83.0547 271.722 82.556C271.722 82.0347 271.631 81.6267 271.45 81.332C271.291 81.0147 271.065 80.7767 270.77 80.618C270.498 80.4367 270.169 80.3233 269.784 80.278C269.421 80.21 269.025 80.176 268.594 80.176C267.642 80.176 266.894 80.38 266.35 80.788C265.806 81.196 265.489 81.876 265.398 82.828H260.57ZM271.722 86.398C271.518 86.5793 271.257 86.7267 270.94 86.84C270.645 86.9307 270.317 87.01 269.954 87.078C269.614 87.146 269.251 87.2027 268.866 87.248C268.481 87.2933 268.095 87.35 267.71 87.418C267.347 87.486 266.985 87.5767 266.622 87.69C266.282 87.8033 265.976 87.962 265.704 88.166C265.455 88.3473 265.251 88.5853 265.092 88.88C264.933 89.1747 264.854 89.5487 264.854 90.002C264.854 90.4327 264.933 90.7953 265.092 91.09C265.251 91.3847 265.466 91.6227 265.738 91.804C266.01 91.9627 266.327 92.076 266.69 92.144C267.053 92.212 267.427 92.246 267.812 92.246C268.764 92.246 269.501 92.0873 270.022 91.77C270.543 91.4527 270.929 91.0787 271.178 90.648C271.427 90.1947 271.575 89.7413 271.62 89.288C271.688 88.8347 271.722 88.472 271.722 88.2V86.398ZM280.808 77.422H285.398V80.686H285.466C285.692 80.142 285.998 79.6433 286.384 79.19C286.769 78.714 287.211 78.3173 287.71 78C288.208 77.66 288.741 77.3993 289.308 77.218C289.874 77.0367 290.464 76.946 291.076 76.946C291.393 76.946 291.744 77.0027 292.13 77.116V81.604C291.903 81.5587 291.631 81.5247 291.314 81.502C290.996 81.4567 290.69 81.434 290.396 81.434C289.512 81.434 288.764 81.5813 288.152 81.876C287.54 82.1707 287.041 82.5787 286.656 83.1C286.293 83.5987 286.032 84.188 285.874 84.868C285.715 85.548 285.636 86.2847 285.636 87.078V95H280.808V77.422ZM305.767 84.324C305.54 83.1 305.132 82.1707 304.543 81.536C303.976 80.9013 303.103 80.584 301.925 80.584C301.154 80.584 300.508 80.72 299.987 80.992C299.488 81.2413 299.08 81.5587 298.763 81.944C298.468 82.3293 298.253 82.7373 298.117 83.168C298.003 83.5987 297.935 83.984 297.913 84.324H305.767ZM297.913 87.384C297.981 88.948 298.377 90.0813 299.103 90.784C299.828 91.4867 300.871 91.838 302.231 91.838C303.205 91.838 304.044 91.6 304.747 91.124C305.449 90.6253 305.88 90.104 306.039 89.56H310.289C309.609 91.668 308.566 93.1753 307.161 94.082C305.755 94.9887 304.055 95.442 302.061 95.442C300.678 95.442 299.431 95.2267 298.321 94.796C297.21 94.3427 296.269 93.708 295.499 92.892C294.728 92.076 294.127 91.1013 293.697 89.968C293.289 88.8347 293.085 87.588 293.085 86.228C293.085 84.9133 293.3 83.6893 293.731 82.556C294.161 81.4227 294.773 80.448 295.567 79.632C296.36 78.7933 297.301 78.136 298.389 77.66C299.499 77.184 300.723 76.946 302.061 76.946C303.557 76.946 304.86 77.2407 305.971 77.83C307.081 78.3967 307.988 79.1673 308.691 80.142C309.416 81.1167 309.937 82.2273 310.255 83.474C310.572 84.7207 310.685 86.024 310.595 87.384H297.913ZM72.684 122.55H78.09C79.042 122.55 79.824 122.323 80.436 121.87C81.048 121.417 81.354 120.68 81.354 119.66C81.354 119.093 81.252 118.629 81.048 118.266C80.844 117.903 80.572 117.62 80.232 117.416C79.892 117.212 79.4953 117.076 79.042 117.008C78.6113 116.917 78.158 116.872 77.682 116.872H72.684V122.55ZM67.346 112.724H78.77C79.926 112.724 80.98 112.826 81.932 113.03C82.884 113.234 83.7 113.574 84.38 114.05C85.06 114.503 85.5813 115.115 85.944 115.886C86.3293 116.657 86.522 117.609 86.522 118.742C86.522 119.966 86.2387 120.986 85.672 121.802C85.128 122.618 84.312 123.287 83.224 123.808C84.72 124.239 85.8307 124.998 86.556 126.086C87.304 127.151 87.678 128.443 87.678 129.962C87.678 131.186 87.44 132.251 86.964 133.158C86.488 134.042 85.842 134.767 85.026 135.334C84.2327 135.901 83.3147 136.32 82.272 136.592C81.252 136.864 80.198 137 79.11 137H67.346V112.724ZM72.684 132.852H78.396C78.9173 132.852 79.416 132.807 79.892 132.716C80.368 132.603 80.7873 132.433 81.15 132.206C81.5127 131.957 81.796 131.628 82 131.22C82.2267 130.812 82.34 130.291 82.34 129.656C82.34 128.409 81.9887 127.525 81.286 127.004C80.5833 126.46 79.654 126.188 78.498 126.188H72.684V132.852ZM107.775 137H103.185V134.552H103.083C102.471 135.572 101.678 136.309 100.703 136.762C99.7288 137.215 98.7315 137.442 97.7115 137.442C96.4195 137.442 95.3541 137.272 94.5155 136.932C93.6995 136.592 93.0535 136.116 92.5775 135.504C92.1015 134.869 91.7615 134.11 91.5575 133.226C91.3761 132.319 91.2855 131.322 91.2855 130.234V119.422H96.1135V129.35C96.1135 130.801 96.3401 131.889 96.7935 132.614C97.2468 133.317 98.0515 133.668 99.2075 133.668C100.522 133.668 101.474 133.283 102.063 132.512C102.653 131.719 102.947 130.427 102.947 128.636V119.422H107.775V137ZM124.428 128.16C124.428 127.435 124.36 126.743 124.224 126.086C124.088 125.406 123.85 124.817 123.51 124.318C123.192 123.797 122.773 123.377 122.252 123.06C121.73 122.743 121.073 122.584 120.28 122.584C119.486 122.584 118.818 122.743 118.274 123.06C117.73 123.377 117.288 123.797 116.948 124.318C116.63 124.839 116.392 125.44 116.234 126.12C116.098 126.777 116.03 127.469 116.03 128.194C116.03 128.874 116.109 129.554 116.268 130.234C116.426 130.914 116.676 131.526 117.016 132.07C117.378 132.591 117.82 133.022 118.342 133.362C118.886 133.679 119.532 133.838 120.28 133.838C121.073 133.838 121.73 133.679 122.252 133.362C122.796 133.045 123.226 132.625 123.544 132.104C123.861 131.56 124.088 130.948 124.224 130.268C124.36 129.588 124.428 128.885 124.428 128.16ZM124.496 134.756H124.428C123.861 135.708 123.113 136.399 122.184 136.83C121.277 137.238 120.246 137.442 119.09 137.442C117.775 137.442 116.619 137.193 115.622 136.694C114.624 136.173 113.797 135.481 113.14 134.62C112.505 133.736 112.018 132.727 111.678 131.594C111.36 130.461 111.202 129.282 111.202 128.058C111.202 126.879 111.36 125.746 111.678 124.658C112.018 123.547 112.505 122.573 113.14 121.734C113.797 120.895 114.613 120.227 115.588 119.728C116.562 119.207 117.696 118.946 118.988 118.946C120.03 118.946 121.016 119.173 121.946 119.626C122.898 120.057 123.646 120.703 124.19 121.564H124.258V112.724H129.086V137H124.496V134.756ZM141.439 132.852C142.119 132.852 142.72 132.716 143.241 132.444C143.762 132.172 144.193 131.809 144.533 131.356C144.873 130.903 145.122 130.393 145.281 129.826C145.462 129.237 145.553 128.625 145.553 127.99C145.553 127.265 145.485 126.585 145.349 125.95C145.213 125.293 144.986 124.715 144.669 124.216C144.352 123.717 143.932 123.321 143.411 123.026C142.89 122.731 142.232 122.584 141.439 122.584C140.759 122.584 140.17 122.72 139.671 122.992C139.195 123.264 138.787 123.638 138.447 124.114C138.13 124.567 137.892 125.1 137.733 125.712C137.597 126.301 137.529 126.925 137.529 127.582C137.529 128.217 137.586 128.851 137.699 129.486C137.835 130.098 138.05 130.653 138.345 131.152C138.662 131.651 139.07 132.059 139.569 132.376C140.068 132.693 140.691 132.852 141.439 132.852ZM150.143 135.878C150.143 136.581 150.041 137.385 149.837 138.292C149.656 139.199 149.248 140.037 148.613 140.808C147.978 141.601 147.06 142.27 145.859 142.814C144.658 143.358 143.048 143.63 141.031 143.63C140.17 143.63 139.286 143.517 138.379 143.29C137.495 143.086 136.679 142.757 135.931 142.304C135.206 141.851 134.594 141.261 134.095 140.536C133.619 139.833 133.347 138.983 133.279 137.986H138.073C138.3 138.893 138.742 139.516 139.399 139.856C140.056 140.219 140.816 140.4 141.677 140.4C143.037 140.4 144.023 139.992 144.635 139.176C145.27 138.36 145.576 137.329 145.553 136.082V133.77H145.485C144.964 134.699 144.216 135.391 143.241 135.844C142.289 136.275 141.28 136.49 140.215 136.49C138.9 136.49 137.767 136.263 136.815 135.81C135.863 135.334 135.081 134.699 134.469 133.906C133.857 133.09 133.404 132.149 133.109 131.084C132.837 129.996 132.701 128.851 132.701 127.65C132.701 126.517 132.86 125.429 133.177 124.386C133.517 123.321 134.004 122.391 134.639 121.598C135.274 120.782 136.056 120.136 136.985 119.66C137.937 119.184 139.025 118.946 140.249 118.946C141.405 118.946 142.414 119.161 143.275 119.592C144.159 120.023 144.896 120.748 145.485 121.768H145.553V119.422H150.143V135.878ZM166.372 126.324C166.145 125.1 165.737 124.171 165.148 123.536C164.581 122.901 163.709 122.584 162.53 122.584C161.759 122.584 161.113 122.72 160.592 122.992C160.093 123.241 159.685 123.559 159.368 123.944C159.073 124.329 158.858 124.737 158.722 125.168C158.609 125.599 158.541 125.984 158.518 126.324H166.372ZM158.518 129.384C158.586 130.948 158.983 132.081 159.708 132.784C160.433 133.487 161.476 133.838 162.836 133.838C163.811 133.838 164.649 133.6 165.352 133.124C166.055 132.625 166.485 132.104 166.644 131.56H170.894C170.214 133.668 169.171 135.175 167.766 136.082C166.361 136.989 164.661 137.442 162.666 137.442C161.283 137.442 160.037 137.227 158.926 136.796C157.815 136.343 156.875 135.708 156.104 134.892C155.333 134.076 154.733 133.101 154.302 131.968C153.894 130.835 153.69 129.588 153.69 128.228C153.69 126.913 153.905 125.689 154.336 124.556C154.767 123.423 155.379 122.448 156.172 121.632C156.965 120.793 157.906 120.136 158.994 119.66C160.105 119.184 161.329 118.946 162.666 118.946C164.162 118.946 165.465 119.241 166.576 119.83C167.687 120.397 168.593 121.167 169.296 122.142C170.021 123.117 170.543 124.227 170.86 125.474C171.177 126.721 171.291 128.024 171.2 129.384H158.518ZM180.694 119.422H184.23V122.652H180.694V131.356C180.694 132.172 180.83 132.716 181.102 132.988C181.374 133.26 181.918 133.396 182.734 133.396C183.006 133.396 183.266 133.385 183.516 133.362C183.765 133.339 184.003 133.305 184.23 133.26V137C183.822 137.068 183.368 137.113 182.87 137.136C182.371 137.159 181.884 137.17 181.408 137.17C180.66 137.17 179.946 137.113 179.266 137C178.608 136.909 178.019 136.717 177.498 136.422C176.999 136.127 176.602 135.708 176.308 135.164C176.013 134.62 175.866 133.906 175.866 133.022V122.652H172.942V119.422H175.866V114.152H180.694V119.422ZM192.001 116.702H187.173V112.724H192.001V116.702ZM187.173 119.422H192.001V137H187.173V119.422ZM196.312 119.422H200.902V121.87H201.004C201.616 120.85 202.41 120.113 203.384 119.66C204.359 119.184 205.356 118.946 206.376 118.946C207.668 118.946 208.722 119.127 209.538 119.49C210.377 119.83 211.034 120.317 211.51 120.952C211.986 121.564 212.315 122.323 212.496 123.23C212.7 124.114 212.802 125.1 212.802 126.188V137H207.974V127.072C207.974 125.621 207.748 124.545 207.294 123.842C206.841 123.117 206.036 122.754 204.88 122.754C203.566 122.754 202.614 123.151 202.024 123.944C201.435 124.715 201.14 125.995 201.14 127.786V137H196.312V119.422ZM225.171 132.852C225.851 132.852 226.451 132.716 226.973 132.444C227.494 132.172 227.925 131.809 228.265 131.356C228.605 130.903 228.854 130.393 229.013 129.826C229.194 129.237 229.285 128.625 229.285 127.99C229.285 127.265 229.217 126.585 229.081 125.95C228.945 125.293 228.718 124.715 228.401 124.216C228.083 123.717 227.664 123.321 227.143 123.026C226.621 122.731 225.964 122.584 225.171 122.584C224.491 122.584 223.901 122.72 223.403 122.992C222.927 123.264 222.519 123.638 222.179 124.114C221.861 124.567 221.623 125.1 221.465 125.712C221.329 126.301 221.261 126.925 221.261 127.582C221.261 128.217 221.317 128.851 221.431 129.486C221.567 130.098 221.782 130.653 222.077 131.152C222.394 131.651 222.802 132.059 223.301 132.376C223.799 132.693 224.423 132.852 225.171 132.852ZM233.875 135.878C233.875 136.581 233.773 137.385 233.569 138.292C233.387 139.199 232.979 140.037 232.345 140.808C231.71 141.601 230.792 142.27 229.591 142.814C228.389 143.358 226.78 143.63 224.763 143.63C223.901 143.63 223.017 143.517 222.111 143.29C221.227 143.086 220.411 142.757 219.663 142.304C218.937 141.851 218.325 141.261 217.827 140.536C217.351 139.833 217.079 138.983 217.011 137.986H221.805C222.031 138.893 222.473 139.516 223.131 139.856C223.788 140.219 224.547 140.4 225.409 140.4C226.769 140.4 227.755 139.992 228.367 139.176C229.001 138.36 229.307 137.329 229.285 136.082V133.77H229.217C228.695 134.699 227.947 135.391 226.973 135.844C226.021 136.275 225.012 136.49 223.947 136.49C222.632 136.49 221.499 136.263 220.547 135.81C219.595 135.334 218.813 134.699 218.201 133.906C217.589 133.09 217.135 132.149 216.841 131.084C216.569 129.996 216.433 128.851 216.433 127.65C216.433 126.517 216.591 125.429 216.909 124.386C217.249 123.321 217.736 122.391 218.371 121.598C219.005 120.782 219.787 120.136 220.717 119.66C221.669 119.184 222.757 118.946 223.981 118.946C225.137 118.946 226.145 119.161 227.007 119.592C227.891 120.023 228.627 120.748 229.217 121.768H229.285V119.422H233.875V135.878ZM67.346 154.724H72.684V164.04H82.51V154.724H87.848V179H82.51V168.528H72.684V179H67.346V154.724ZM92.3432 166.828C92.4112 165.695 92.6945 164.754 93.1932 164.006C93.6918 163.258 94.3265 162.657 95.0972 162.204C95.8678 161.751 96.7292 161.433 97.6812 161.252C98.6558 161.048 99.6305 160.946 100.605 160.946C101.489 160.946 102.385 161.014 103.291 161.15C104.198 161.263 105.025 161.501 105.773 161.864C106.521 162.227 107.133 162.737 107.609 163.394C108.085 164.029 108.323 164.879 108.323 165.944V175.09C108.323 175.883 108.369 176.643 108.459 177.368C108.55 178.093 108.709 178.637 108.935 179H104.039C103.949 178.728 103.869 178.456 103.801 178.184C103.756 177.889 103.722 177.595 103.699 177.3C102.929 178.093 102.022 178.649 100.979 178.966C99.9365 179.283 98.8712 179.442 97.7832 179.442C96.9445 179.442 96.1625 179.34 95.4372 179.136C94.7118 178.932 94.0772 178.615 93.5332 178.184C92.9892 177.753 92.5585 177.209 92.2412 176.552C91.9465 175.895 91.7992 175.113 91.7992 174.206C91.7992 173.209 91.9692 172.393 92.3092 171.758C92.6718 171.101 93.1252 170.579 93.6692 170.194C94.2358 169.809 94.8705 169.525 95.5732 169.344C96.2985 169.14 97.0238 168.981 97.7492 168.868C98.4745 168.755 99.1885 168.664 99.8912 168.596C100.594 168.528 101.217 168.426 101.761 168.29C102.305 168.154 102.736 167.961 103.053 167.712C103.371 167.44 103.518 167.055 103.495 166.556C103.495 166.035 103.405 165.627 103.223 165.332C103.065 165.015 102.838 164.777 102.543 164.618C102.271 164.437 101.943 164.323 101.557 164.278C101.195 164.21 100.798 164.176 100.367 164.176C99.4152 164.176 98.6672 164.38 98.1232 164.788C97.5792 165.196 97.2618 165.876 97.1712 166.828H92.3432ZM103.495 170.398C103.291 170.579 103.031 170.727 102.713 170.84C102.419 170.931 102.09 171.01 101.727 171.078C101.387 171.146 101.025 171.203 100.639 171.248C100.254 171.293 99.8685 171.35 99.4832 171.418C99.1205 171.486 98.7578 171.577 98.3952 171.69C98.0552 171.803 97.7492 171.962 97.4772 172.166C97.2278 172.347 97.0238 172.585 96.8652 172.88C96.7065 173.175 96.6272 173.549 96.6272 174.002C96.6272 174.433 96.7065 174.795 96.8652 175.09C97.0238 175.385 97.2392 175.623 97.5112 175.804C97.7832 175.963 98.1005 176.076 98.4632 176.144C98.8258 176.212 99.1998 176.246 99.5852 176.246C100.537 176.246 101.274 176.087 101.795 175.77C102.317 175.453 102.702 175.079 102.951 174.648C103.201 174.195 103.348 173.741 103.393 173.288C103.461 172.835 103.495 172.472 103.495 172.2V170.398ZM112.581 161.422H117.171V163.87H117.273C117.885 162.85 118.678 162.113 119.653 161.66C120.627 161.184 121.625 160.946 122.645 160.946C123.937 160.946 124.991 161.127 125.807 161.49C126.645 161.83 127.303 162.317 127.779 162.952C128.255 163.564 128.583 164.323 128.765 165.23C128.969 166.114 129.071 167.1 129.071 168.188V179H124.243V169.072C124.243 167.621 124.016 166.545 123.563 165.842C123.109 165.117 122.305 164.754 121.149 164.754C119.834 164.754 118.882 165.151 118.293 165.944C117.703 166.715 117.409 167.995 117.409 169.786V179H112.581V161.422ZM145.723 170.16C145.723 169.435 145.655 168.743 145.519 168.086C145.383 167.406 145.145 166.817 144.805 166.318C144.488 165.797 144.068 165.377 143.547 165.06C143.026 164.743 142.368 164.584 141.575 164.584C140.782 164.584 140.113 164.743 139.569 165.06C139.025 165.377 138.583 165.797 138.243 166.318C137.926 166.839 137.688 167.44 137.529 168.12C137.393 168.777 137.325 169.469 137.325 170.194C137.325 170.874 137.404 171.554 137.563 172.234C137.722 172.914 137.971 173.526 138.311 174.07C138.674 174.591 139.116 175.022 139.637 175.362C140.181 175.679 140.827 175.838 141.575 175.838C142.368 175.838 143.026 175.679 143.547 175.362C144.091 175.045 144.522 174.625 144.839 174.104C145.156 173.56 145.383 172.948 145.519 172.268C145.655 171.588 145.723 170.885 145.723 170.16ZM145.791 176.756H145.723C145.156 177.708 144.408 178.399 143.479 178.83C142.572 179.238 141.541 179.442 140.385 179.442C139.07 179.442 137.914 179.193 136.917 178.694C135.92 178.173 135.092 177.481 134.435 176.62C133.8 175.736 133.313 174.727 132.973 173.594C132.656 172.461 132.497 171.282 132.497 170.058C132.497 168.879 132.656 167.746 132.973 166.658C133.313 165.547 133.8 164.573 134.435 163.734C135.092 162.895 135.908 162.227 136.883 161.728C137.858 161.207 138.991 160.946 140.283 160.946C141.326 160.946 142.312 161.173 143.241 161.626C144.193 162.057 144.941 162.703 145.485 163.564H145.553V154.724H150.381V179H145.791V176.756ZM167.426 170.228C167.426 169.48 167.347 168.766 167.188 168.086C167.029 167.406 166.78 166.805 166.44 166.284C166.1 165.763 165.669 165.355 165.148 165.06C164.649 164.743 164.037 164.584 163.312 164.584C162.609 164.584 161.997 164.743 161.476 165.06C160.955 165.355 160.524 165.763 160.184 166.284C159.844 166.805 159.595 167.406 159.436 168.086C159.277 168.766 159.198 169.48 159.198 170.228C159.198 170.953 159.277 171.656 159.436 172.336C159.595 173.016 159.844 173.617 160.184 174.138C160.524 174.659 160.955 175.079 161.476 175.396C161.997 175.691 162.609 175.838 163.312 175.838C164.037 175.838 164.649 175.691 165.148 175.396C165.669 175.079 166.1 174.659 166.44 174.138C166.78 173.617 167.029 173.016 167.188 172.336C167.347 171.656 167.426 170.953 167.426 170.228ZM154.54 154.724H159.368V163.564H159.436C160.025 162.657 160.819 162 161.816 161.592C162.836 161.161 163.89 160.946 164.978 160.946C165.862 160.946 166.735 161.127 167.596 161.49C168.457 161.853 169.228 162.408 169.908 163.156C170.611 163.904 171.177 164.867 171.608 166.046C172.039 167.202 172.254 168.585 172.254 170.194C172.254 171.803 172.039 173.197 171.608 174.376C171.177 175.532 170.611 176.484 169.908 177.232C169.228 177.98 168.457 178.535 167.596 178.898C166.735 179.261 165.862 179.442 164.978 179.442C163.686 179.442 162.53 179.238 161.51 178.83C160.49 178.422 159.719 177.731 159.198 176.756H159.13V179H154.54V154.724ZM180.119 170.228C180.119 170.931 180.187 171.622 180.323 172.302C180.459 172.959 180.686 173.56 181.003 174.104C181.343 174.625 181.785 175.045 182.329 175.362C182.873 175.679 183.553 175.838 184.369 175.838C185.185 175.838 185.865 175.679 186.409 175.362C186.976 175.045 187.418 174.625 187.735 174.104C188.075 173.56 188.313 172.959 188.449 172.302C188.585 171.622 188.653 170.931 188.653 170.228C188.653 169.525 188.585 168.834 188.449 168.154C188.313 167.474 188.075 166.873 187.735 166.352C187.418 165.831 186.976 165.411 186.409 165.094C185.865 164.754 185.185 164.584 184.369 164.584C183.553 164.584 182.873 164.754 182.329 165.094C181.785 165.411 181.343 165.831 181.003 166.352C180.686 166.873 180.459 167.474 180.323 168.154C180.187 168.834 180.119 169.525 180.119 170.228ZM175.291 170.228C175.291 168.823 175.507 167.553 175.937 166.42C176.368 165.264 176.98 164.289 177.773 163.496C178.567 162.68 179.519 162.057 180.629 161.626C181.74 161.173 182.987 160.946 184.369 160.946C185.752 160.946 186.999 161.173 188.109 161.626C189.243 162.057 190.206 162.68 190.999 163.496C191.793 164.289 192.405 165.264 192.835 166.42C193.266 167.553 193.481 168.823 193.481 170.228C193.481 171.633 193.266 172.903 192.835 174.036C192.405 175.169 191.793 176.144 190.999 176.96C190.206 177.753 189.243 178.365 188.109 178.796C186.999 179.227 185.752 179.442 184.369 179.442C182.987 179.442 181.74 179.227 180.629 178.796C179.519 178.365 178.567 177.753 177.773 176.96C176.98 176.144 176.368 175.169 175.937 174.036C175.507 172.903 175.291 171.633 175.291 170.228ZM201.414 170.228C201.414 170.931 201.482 171.622 201.618 172.302C201.754 172.959 201.981 173.56 202.298 174.104C202.638 174.625 203.08 175.045 203.624 175.362C204.168 175.679 204.848 175.838 205.664 175.838C206.48 175.838 207.16 175.679 207.704 175.362C208.271 175.045 208.713 174.625 209.03 174.104C209.37 173.56 209.608 172.959 209.744 172.302C209.88 171.622 209.948 170.931 209.948 170.228C209.948 169.525 209.88 168.834 209.744 168.154C209.608 167.474 209.37 166.873 209.03 166.352C208.713 165.831 208.271 165.411 207.704 165.094C207.16 164.754 206.48 164.584 205.664 164.584C204.848 164.584 204.168 164.754 203.624 165.094C203.08 165.411 202.638 165.831 202.298 166.352C201.981 166.873 201.754 167.474 201.618 168.154C201.482 168.834 201.414 169.525 201.414 170.228ZM196.586 170.228C196.586 168.823 196.802 167.553 197.232 166.42C197.663 165.264 198.275 164.289 199.068 163.496C199.862 162.68 200.814 162.057 201.924 161.626C203.035 161.173 204.282 160.946 205.664 160.946C207.047 160.946 208.294 161.173 209.404 161.626C210.538 162.057 211.501 162.68 212.294 163.496C213.088 164.289 213.7 165.264 214.13 166.42C214.561 167.553 214.776 168.823 214.776 170.228C214.776 171.633 214.561 172.903 214.13 174.036C213.7 175.169 213.088 176.144 212.294 176.96C211.501 177.753 210.538 178.365 209.404 178.796C208.294 179.227 207.047 179.442 205.664 179.442C204.282 179.442 203.035 179.227 201.924 178.796C200.814 178.365 199.862 177.753 199.068 176.96C198.275 176.144 197.663 175.169 197.232 174.036C196.802 172.903 196.586 171.633 196.586 170.228ZM218.868 154.724H223.696V167.746L229.782 161.422H235.494L228.864 167.882L236.242 179H230.394L225.566 171.146L223.696 172.948V179H218.868V154.724Z" fill="#1C304A"/>
<rect x="165" y="76" width="302" height="462" fill="white" stroke="black" stroke-width="8"/>
<path d="M198.684 162.512H203.444C204.215 162.512 204.963 162.387 205.688 162.138C206.413 161.889 207.059 161.481 207.626 160.914C208.193 160.325 208.646 159.565 208.986 158.636C209.326 157.707 209.496 156.573 209.496 155.236C209.496 154.012 209.371 152.913 209.122 151.938C208.895 150.941 208.51 150.091 207.966 149.388C207.422 148.685 206.697 148.153 205.79 147.79C204.906 147.405 203.807 147.212 202.492 147.212H198.684V162.512ZM193.346 142.724H203.818C205.382 142.724 206.833 142.973 208.17 143.472C209.53 143.971 210.697 144.719 211.672 145.716C212.669 146.713 213.44 147.96 213.984 149.456C214.551 150.952 214.834 152.709 214.834 154.726C214.834 156.494 214.607 158.126 214.154 159.622C213.701 161.118 213.009 162.41 212.08 163.498C211.173 164.586 210.029 165.447 208.646 166.082C207.286 166.694 205.677 167 203.818 167H193.346V142.724ZM230.379 156.324C230.153 155.1 229.745 154.171 229.155 153.536C228.589 152.901 227.716 152.584 226.537 152.584C225.767 152.584 225.121 152.72 224.599 152.992C224.101 153.241 223.693 153.559 223.375 153.944C223.081 154.329 222.865 154.737 222.729 155.168C222.616 155.599 222.548 155.984 222.525 156.324H230.379ZM222.525 159.384C222.593 160.948 222.99 162.081 223.715 162.784C224.441 163.487 225.483 163.838 226.843 163.838C227.818 163.838 228.657 163.6 229.359 163.124C230.062 162.625 230.493 162.104 230.651 161.56H234.901C234.221 163.668 233.179 165.175 231.773 166.082C230.368 166.989 228.668 167.442 226.673 167.442C225.291 167.442 224.044 167.227 222.933 166.796C221.823 166.343 220.882 165.708 220.111 164.892C219.341 164.076 218.74 163.101 218.309 161.968C217.901 160.835 217.697 159.588 217.697 158.228C217.697 156.913 217.913 155.689 218.343 154.556C218.774 153.423 219.386 152.448 220.179 151.632C220.973 150.793 221.913 150.136 223.001 149.66C224.112 149.184 225.336 148.946 226.673 148.946C228.169 148.946 229.473 149.241 230.583 149.83C231.694 150.397 232.601 151.167 233.303 152.142C234.029 153.117 234.55 154.227 234.867 155.474C235.185 156.721 235.298 158.024 235.207 159.384H222.525ZM238.547 155.644H248.781V159.792H238.547V155.644ZM252.936 149.422H257.526V152.686H257.594C257.821 152.142 258.127 151.643 258.512 151.19C258.898 150.714 259.34 150.317 259.838 150C260.337 149.66 260.87 149.399 261.436 149.218C262.003 149.037 262.592 148.946 263.204 148.946C263.522 148.946 263.873 149.003 264.258 149.116V153.604C264.032 153.559 263.76 153.525 263.442 153.502C263.125 153.457 262.819 153.434 262.524 153.434C261.64 153.434 260.892 153.581 260.28 153.876C259.668 154.171 259.17 154.579 258.784 155.1C258.422 155.599 258.161 156.188 258.002 156.868C257.844 157.548 257.764 158.285 257.764 159.078V167H252.936V149.422ZM271.625 146.702H266.797V142.724H271.625V146.702ZM266.797 149.422H271.625V167H266.797V149.422ZM279.677 161.288C279.677 161.809 279.779 162.263 279.983 162.648C280.209 163.011 280.493 163.317 280.833 163.566C281.173 163.793 281.558 163.963 281.989 164.076C282.442 164.189 282.907 164.246 283.383 164.246C283.723 164.246 284.074 164.212 284.437 164.144C284.822 164.053 285.162 163.929 285.457 163.77C285.774 163.589 286.035 163.362 286.239 163.09C286.443 162.795 286.545 162.433 286.545 162.002C286.545 161.277 286.057 160.733 285.083 160.37C284.131 160.007 282.793 159.645 281.071 159.282C280.368 159.123 279.677 158.942 278.997 158.738C278.339 158.511 277.75 158.228 277.229 157.888C276.707 157.525 276.288 157.083 275.971 156.562C275.653 156.018 275.495 155.361 275.495 154.59C275.495 153.457 275.71 152.527 276.141 151.802C276.594 151.077 277.183 150.51 277.909 150.102C278.634 149.671 279.45 149.377 280.357 149.218C281.263 149.037 282.193 148.946 283.145 148.946C284.097 148.946 285.015 149.037 285.899 149.218C286.805 149.399 287.61 149.705 288.313 150.136C289.015 150.567 289.593 151.145 290.047 151.87C290.523 152.573 290.806 153.468 290.897 154.556H286.307C286.239 153.627 285.887 153.003 285.253 152.686C284.618 152.346 283.87 152.176 283.009 152.176C282.737 152.176 282.442 152.199 282.125 152.244C281.807 152.267 281.513 152.335 281.241 152.448C280.991 152.561 280.776 152.731 280.595 152.958C280.413 153.162 280.323 153.445 280.323 153.808C280.323 154.239 280.481 154.59 280.799 154.862C281.116 155.134 281.524 155.361 282.023 155.542C282.544 155.701 283.133 155.848 283.791 155.984C284.448 156.12 285.117 156.267 285.797 156.426C286.499 156.585 287.179 156.777 287.837 157.004C288.517 157.231 289.117 157.537 289.639 157.922C290.16 158.285 290.579 158.749 290.897 159.316C291.214 159.86 291.373 160.54 291.373 161.356C291.373 162.512 291.135 163.487 290.659 164.28C290.205 165.051 289.605 165.674 288.857 166.15C288.109 166.626 287.247 166.955 286.273 167.136C285.321 167.34 284.346 167.442 283.349 167.442C282.329 167.442 281.331 167.34 280.357 167.136C279.382 166.932 278.509 166.592 277.739 166.116C276.991 165.64 276.367 165.017 275.869 164.246C275.393 163.453 275.132 162.467 275.087 161.288H279.677ZM295.15 142.724H299.978V155.746L306.064 149.422H311.776L305.146 155.882L312.524 167H306.676L301.848 159.146L299.978 160.948V167H295.15V142.724ZM319.706 146.702H314.878V142.724H319.706V146.702ZM314.878 149.422H319.706V167H314.878V149.422ZM324.018 149.422H328.608V151.87H328.71C329.322 150.85 330.115 150.113 331.09 149.66C332.064 149.184 333.062 148.946 334.082 148.946C335.374 148.946 336.428 149.127 337.244 149.49C338.082 149.83 338.74 150.317 339.216 150.952C339.692 151.564 340.02 152.323 340.202 153.23C340.406 154.114 340.508 155.1 340.508 156.188V167H335.68V157.072C335.68 155.621 335.453 154.545 335 153.842C334.546 153.117 333.742 152.754 332.586 152.754C331.271 152.754 330.319 153.151 329.73 153.944C329.14 154.715 328.846 155.995 328.846 157.786V167H324.018V149.422ZM352.876 162.852C353.556 162.852 354.157 162.716 354.678 162.444C355.199 162.172 355.63 161.809 355.97 161.356C356.31 160.903 356.559 160.393 356.718 159.826C356.899 159.237 356.99 158.625 356.99 157.99C356.99 157.265 356.922 156.585 356.786 155.95C356.65 155.293 356.423 154.715 356.106 154.216C355.789 153.717 355.369 153.321 354.848 153.026C354.327 152.731 353.669 152.584 352.876 152.584C352.196 152.584 351.607 152.72 351.108 152.992C350.632 153.264 350.224 153.638 349.884 154.114C349.567 154.567 349.329 155.1 349.17 155.712C349.034 156.301 348.966 156.925 348.966 157.582C348.966 158.217 349.023 158.851 349.136 159.486C349.272 160.098 349.487 160.653 349.782 161.152C350.099 161.651 350.507 162.059 351.006 162.376C351.505 162.693 352.128 162.852 352.876 162.852ZM361.58 165.878C361.58 166.581 361.478 167.385 361.274 168.292C361.093 169.199 360.685 170.037 360.05 170.808C359.415 171.601 358.497 172.27 357.296 172.814C356.095 173.358 354.485 173.63 352.468 173.63C351.607 173.63 350.723 173.517 349.816 173.29C348.932 173.086 348.116 172.757 347.368 172.304C346.643 171.851 346.031 171.261 345.532 170.536C345.056 169.833 344.784 168.983 344.716 167.986H349.51C349.737 168.893 350.179 169.516 350.836 169.856C351.493 170.219 352.253 170.4 353.114 170.4C354.474 170.4 355.46 169.992 356.072 169.176C356.707 168.36 357.013 167.329 356.99 166.082V163.77H356.922C356.401 164.699 355.653 165.391 354.678 165.844C353.726 166.275 352.717 166.49 351.652 166.49C350.337 166.49 349.204 166.263 348.252 165.81C347.3 165.334 346.518 164.699 345.906 163.906C345.294 163.09 344.841 162.149 344.546 161.084C344.274 159.996 344.138 158.851 344.138 157.65C344.138 156.517 344.297 155.429 344.614 154.386C344.954 153.321 345.441 152.391 346.076 151.598C346.711 150.782 347.493 150.136 348.422 149.66C349.374 149.184 350.462 148.946 351.686 148.946C352.842 148.946 353.851 149.161 354.712 149.592C355.596 150.023 356.333 150.748 356.922 151.768H356.99V149.422H361.58V165.878ZM210.89 206.246C209.938 207.47 208.884 208.331 207.728 208.83C206.572 209.306 205.405 209.544 204.226 209.544C202.367 209.544 200.69 209.227 199.194 208.592C197.721 207.935 196.474 207.039 195.454 205.906C194.434 204.773 193.652 203.447 193.108 201.928C192.564 200.387 192.292 198.732 192.292 196.964C192.292 195.151 192.564 193.473 193.108 191.932C193.652 190.368 194.434 189.008 195.454 187.852C196.474 186.696 197.721 185.789 199.194 185.132C200.69 184.475 202.367 184.146 204.226 184.146C205.473 184.146 206.674 184.339 207.83 184.724C209.009 185.087 210.063 185.631 210.992 186.356C211.944 187.081 212.726 187.977 213.338 189.042C213.95 190.107 214.324 191.331 214.46 192.714H209.36C209.043 191.354 208.431 190.334 207.524 189.654C206.617 188.974 205.518 188.634 204.226 188.634C203.025 188.634 202.005 188.872 201.166 189.348C200.327 189.801 199.647 190.425 199.126 191.218C198.605 191.989 198.219 192.873 197.97 193.87C197.743 194.867 197.63 195.899 197.63 196.964C197.63 197.984 197.743 198.981 197.97 199.956C198.219 200.908 198.605 201.769 199.126 202.54C199.647 203.311 200.327 203.934 201.166 204.41C202.005 204.863 203.025 205.09 204.226 205.09C205.994 205.09 207.354 204.648 208.306 203.764C209.281 202.857 209.847 201.554 210.006 199.854H204.634V195.876H214.834V209H211.434L210.89 206.246ZM223.429 200.228C223.429 200.931 223.497 201.622 223.633 202.302C223.769 202.959 223.995 203.56 224.313 204.104C224.653 204.625 225.095 205.045 225.639 205.362C226.183 205.679 226.863 205.838 227.679 205.838C228.495 205.838 229.175 205.679 229.719 205.362C230.285 205.045 230.727 204.625 231.045 204.104C231.385 203.56 231.623 202.959 231.759 202.302C231.895 201.622 231.963 200.931 231.963 200.228C231.963 199.525 231.895 198.834 231.759 198.154C231.623 197.474 231.385 196.873 231.045 196.352C230.727 195.831 230.285 195.411 229.719 195.094C229.175 194.754 228.495 194.584 227.679 194.584C226.863 194.584 226.183 194.754 225.639 195.094C225.095 195.411 224.653 195.831 224.313 196.352C223.995 196.873 223.769 197.474 223.633 198.154C223.497 198.834 223.429 199.525 223.429 200.228ZM218.601 200.228C218.601 198.823 218.816 197.553 219.247 196.42C219.677 195.264 220.289 194.289 221.083 193.496C221.876 192.68 222.828 192.057 223.939 191.626C225.049 191.173 226.296 190.946 227.679 190.946C229.061 190.946 230.308 191.173 231.419 191.626C232.552 192.057 233.515 192.68 234.309 193.496C235.102 194.289 235.714 195.264 236.145 196.42C236.575 197.553 236.791 198.823 236.791 200.228C236.791 201.633 236.575 202.903 236.145 204.036C235.714 205.169 235.102 206.144 234.309 206.96C233.515 207.753 232.552 208.365 231.419 208.796C230.308 209.227 229.061 209.442 227.679 209.442C226.296 209.442 225.049 209.227 223.939 208.796C222.828 208.365 221.876 207.753 221.083 206.96C220.289 206.144 219.677 205.169 219.247 204.036C218.816 202.903 218.601 201.633 218.601 200.228ZM250.164 209H244.792L238.774 191.422H243.84L247.546 203.424H247.614L251.32 191.422H256.114L250.164 209ZM270.446 198.324C270.219 197.1 269.811 196.171 269.222 195.536C268.655 194.901 267.783 194.584 266.604 194.584C265.833 194.584 265.187 194.72 264.666 194.992C264.167 195.241 263.759 195.559 263.442 195.944C263.147 196.329 262.932 196.737 262.796 197.168C262.683 197.599 262.615 197.984 262.592 198.324H270.446ZM262.592 201.384C262.66 202.948 263.057 204.081 263.782 204.784C264.507 205.487 265.55 205.838 266.91 205.838C267.885 205.838 268.723 205.6 269.426 205.124C270.129 204.625 270.559 204.104 270.718 203.56H274.968C274.288 205.668 273.245 207.175 271.84 208.082C270.435 208.989 268.735 209.442 266.74 209.442C265.357 209.442 264.111 209.227 263 208.796C261.889 208.343 260.949 207.708 260.178 206.892C259.407 206.076 258.807 205.101 258.376 203.968C257.968 202.835 257.764 201.588 257.764 200.228C257.764 198.913 257.979 197.689 258.41 196.556C258.841 195.423 259.453 194.448 260.246 193.632C261.039 192.793 261.98 192.136 263.068 191.66C264.179 191.184 265.403 190.946 266.74 190.946C268.236 190.946 269.539 191.241 270.65 191.83C271.761 192.397 272.667 193.167 273.37 194.142C274.095 195.117 274.617 196.227 274.934 197.474C275.251 198.721 275.365 200.024 275.274 201.384H262.592ZM278.647 191.422H283.237V194.686H283.305C283.532 194.142 283.838 193.643 284.223 193.19C284.609 192.714 285.051 192.317 285.549 192C286.048 191.66 286.581 191.399 287.147 191.218C287.714 191.037 288.303 190.946 288.915 190.946C289.233 190.946 289.584 191.003 289.969 191.116V195.604C289.743 195.559 289.471 195.525 289.153 195.502C288.836 195.457 288.53 195.434 288.235 195.434C287.351 195.434 286.603 195.581 285.991 195.876C285.379 196.171 284.881 196.579 284.495 197.1C284.133 197.599 283.872 198.188 283.713 198.868C283.555 199.548 283.475 200.285 283.475 201.078V209H278.647V191.422ZM292.97 191.422H297.56V193.87H297.662C298.274 192.85 299.067 192.113 300.042 191.66C301.017 191.184 302.014 190.946 303.034 190.946C304.326 190.946 305.38 191.127 306.196 191.49C307.035 191.83 307.692 192.317 308.168 192.952C308.644 193.564 308.973 194.323 309.154 195.23C309.358 196.114 309.46 197.1 309.46 198.188V209H304.632V199.072C304.632 197.621 304.405 196.545 303.952 195.842C303.499 195.117 302.694 194.754 301.538 194.754C300.223 194.754 299.271 195.151 298.682 195.944C298.093 196.715 297.798 197.995 297.798 199.786V209H292.97V191.422ZM313.77 191.422H318.326V193.802H318.394C319.029 192.895 319.788 192.193 320.672 191.694C321.579 191.195 322.61 190.946 323.766 190.946C324.877 190.946 325.886 191.161 326.792 191.592C327.722 192.023 328.424 192.782 328.9 193.87C329.422 193.099 330.124 192.419 331.008 191.83C331.915 191.241 332.98 190.946 334.204 190.946C335.134 190.946 335.995 191.059 336.788 191.286C337.582 191.513 338.262 191.875 338.828 192.374C339.395 192.873 339.837 193.53 340.154 194.346C340.472 195.139 340.63 196.103 340.63 197.236V209H335.802V199.038C335.802 198.449 335.78 197.893 335.734 197.372C335.689 196.851 335.564 196.397 335.36 196.012C335.156 195.627 334.85 195.321 334.442 195.094C334.057 194.867 333.524 194.754 332.844 194.754C332.164 194.754 331.609 194.89 331.178 195.162C330.77 195.411 330.442 195.751 330.192 196.182C329.966 196.59 329.807 197.066 329.716 197.61C329.648 198.131 329.614 198.664 329.614 199.208V209H324.786V199.14C324.786 198.619 324.775 198.109 324.752 197.61C324.73 197.089 324.628 196.613 324.446 196.182C324.288 195.751 324.004 195.411 323.596 195.162C323.211 194.89 322.633 194.754 321.862 194.754C321.636 194.754 321.33 194.811 320.944 194.924C320.582 195.015 320.219 195.207 319.856 195.502C319.516 195.774 319.222 196.182 318.972 196.726C318.723 197.247 318.598 197.939 318.598 198.8V209H313.77V191.422ZM356.789 198.324C356.562 197.1 356.154 196.171 355.565 195.536C354.998 194.901 354.125 194.584 352.947 194.584C352.176 194.584 351.53 194.72 351.009 194.992C350.51 195.241 350.102 195.559 349.785 195.944C349.49 196.329 349.275 196.737 349.139 197.168C349.025 197.599 348.957 197.984 348.935 198.324H356.789ZM348.935 201.384C349.003 202.948 349.399 204.081 350.125 204.784C350.85 205.487 351.893 205.838 353.253 205.838C354.227 205.838 355.066 205.6 355.769 205.124C356.471 204.625 356.902 204.104 357.061 203.56H361.311C360.631 205.668 359.588 207.175 358.183 208.082C356.777 208.989 355.077 209.442 353.083 209.442C351.7 209.442 350.453 209.227 349.343 208.796C348.232 208.343 347.291 207.708 346.521 206.892C345.75 206.076 345.149 205.101 344.719 203.968C344.311 202.835 344.107 201.588 344.107 200.228C344.107 198.913 344.322 197.689 344.753 196.556C345.183 195.423 345.795 194.448 346.589 193.632C347.382 192.793 348.323 192.136 349.411 191.66C350.521 191.184 351.745 190.946 353.083 190.946C354.579 190.946 355.882 191.241 356.993 191.83C358.103 192.397 359.01 193.167 359.713 194.142C360.438 195.117 360.959 196.227 361.277 197.474C361.594 198.721 361.707 200.024 361.617 201.384H348.935ZM364.99 191.422H369.58V193.87H369.682C370.294 192.85 371.088 192.113 372.062 191.66C373.037 191.184 374.034 190.946 375.054 190.946C376.346 190.946 377.4 191.127 378.216 191.49C379.055 191.83 379.712 192.317 380.188 192.952C380.664 193.564 380.993 194.323 381.174 195.23C381.378 196.114 381.48 197.1 381.48 198.188V209H376.652V199.072C376.652 197.621 376.426 196.545 375.972 195.842C375.519 195.117 374.714 194.754 373.558 194.754C372.244 194.754 371.292 195.151 370.702 195.944C370.113 196.715 369.818 197.995 369.818 199.786V209H364.99V191.422ZM391.775 191.422H395.311V194.652H391.775V203.356C391.775 204.172 391.911 204.716 392.183 204.988C392.455 205.26 392.999 205.396 393.815 205.396C394.087 205.396 394.347 205.385 394.597 205.362C394.846 205.339 395.084 205.305 395.311 205.26V209C394.903 209.068 394.449 209.113 393.951 209.136C393.452 209.159 392.965 209.17 392.489 209.17C391.741 209.17 391.027 209.113 390.347 209C389.689 208.909 389.1 208.717 388.579 208.422C388.08 208.127 387.683 207.708 387.389 207.164C387.094 206.62 386.947 205.906 386.947 205.022V194.652H384.023V191.422H386.947V186.152H391.775V191.422ZM198.718 231.212H191.442V226.724H211.332V231.212H204.056V251H198.718V231.212ZM222.178 240.324C221.951 239.1 221.543 238.171 220.954 237.536C220.387 236.901 219.515 236.584 218.336 236.584C217.565 236.584 216.919 236.72 216.398 236.992C215.899 237.241 215.491 237.559 215.174 237.944C214.879 238.329 214.664 238.737 214.528 239.168C214.415 239.599 214.347 239.984 214.324 240.324H222.178ZM214.324 243.384C214.392 244.948 214.789 246.081 215.514 246.784C216.239 247.487 217.282 247.838 218.642 247.838C219.617 247.838 220.455 247.6 221.158 247.124C221.861 246.625 222.291 246.104 222.45 245.56H226.7C226.02 247.668 224.977 249.175 223.572 250.082C222.167 250.989 220.467 251.442 218.472 251.442C217.089 251.442 215.843 251.227 214.732 250.796C213.621 250.343 212.681 249.708 211.91 248.892C211.139 248.076 210.539 247.101 210.108 245.968C209.7 244.835 209.496 243.588 209.496 242.228C209.496 240.913 209.711 239.689 210.142 238.556C210.573 237.423 211.185 236.448 211.978 235.632C212.771 234.793 213.712 234.136 214.8 233.66C215.911 233.184 217.135 232.946 218.472 232.946C219.968 232.946 221.271 233.241 222.382 233.83C223.493 234.397 224.399 235.167 225.102 236.142C225.827 237.117 226.349 238.227 226.666 239.474C226.983 240.721 227.097 242.024 227.006 243.384H214.324ZM242.347 239.61C242.03 237.593 240.84 236.584 238.777 236.584C238.007 236.584 237.361 236.765 236.839 237.128C236.318 237.468 235.887 237.921 235.547 238.488C235.23 239.032 235.003 239.644 234.867 240.324C234.731 240.981 234.663 241.639 234.663 242.296C234.663 242.931 234.731 243.577 234.867 244.234C235.003 244.891 235.219 245.492 235.513 246.036C235.831 246.557 236.25 246.988 236.771 247.328C237.293 247.668 237.927 247.838 238.675 247.838C239.831 247.838 240.715 247.521 241.327 246.886C241.962 246.229 242.359 245.356 242.517 244.268H247.175C246.858 246.603 245.951 248.382 244.455 249.606C242.959 250.83 241.044 251.442 238.709 251.442C237.395 251.442 236.182 251.227 235.071 250.796C233.983 250.343 233.054 249.719 232.283 248.926C231.513 248.133 230.912 247.192 230.481 246.104C230.051 244.993 229.835 243.781 229.835 242.466C229.835 241.106 230.028 239.848 230.413 238.692C230.821 237.513 231.411 236.505 232.181 235.666C232.952 234.805 233.893 234.136 235.003 233.66C236.114 233.184 237.383 232.946 238.811 232.946C239.854 232.946 240.851 233.082 241.803 233.354C242.778 233.626 243.639 234.045 244.387 234.612C245.158 235.156 245.781 235.847 246.257 236.686C246.733 237.502 247.005 238.477 247.073 239.61H242.347ZM250.413 226.724H255.241V235.87H255.343C255.955 234.85 256.737 234.113 257.689 233.66C258.641 233.184 259.57 232.946 260.477 232.946C261.769 232.946 262.823 233.127 263.639 233.49C264.478 233.83 265.135 234.317 265.611 234.952C266.087 235.564 266.416 236.323 266.597 237.23C266.801 238.114 266.903 239.1 266.903 240.188V251H262.075V241.072C262.075 239.621 261.848 238.545 261.395 237.842C260.942 237.117 260.137 236.754 258.981 236.754C257.666 236.754 256.714 237.151 256.125 237.944C255.536 238.715 255.241 239.995 255.241 241.786V251H250.413V226.724ZM271.077 233.422H275.667V235.87H275.769C276.381 234.85 277.175 234.113 278.149 233.66C279.124 233.184 280.121 232.946 281.141 232.946C282.433 232.946 283.487 233.127 284.303 233.49C285.142 233.83 285.799 234.317 286.275 234.952C286.751 235.564 287.08 236.323 287.261 237.23C287.465 238.114 287.567 239.1 287.567 240.188V251H282.739V241.072C282.739 239.621 282.513 238.545 282.059 237.842C281.606 237.117 280.801 236.754 279.645 236.754C278.331 236.754 277.379 237.151 276.789 237.944C276.2 238.715 275.905 239.995 275.905 241.786V251H271.077V233.422ZM296.025 242.228C296.025 242.931 296.093 243.622 296.229 244.302C296.365 244.959 296.592 245.56 296.909 246.104C297.249 246.625 297.691 247.045 298.235 247.362C298.779 247.679 299.459 247.838 300.275 247.838C301.091 247.838 301.771 247.679 302.315 247.362C302.882 247.045 303.324 246.625 303.641 246.104C303.981 245.56 304.219 244.959 304.355 244.302C304.491 243.622 304.559 242.931 304.559 242.228C304.559 241.525 304.491 240.834 304.355 240.154C304.219 239.474 303.981 238.873 303.641 238.352C303.324 237.831 302.882 237.411 302.315 237.094C301.771 236.754 301.091 236.584 300.275 236.584C299.459 236.584 298.779 236.754 298.235 237.094C297.691 237.411 297.249 237.831 296.909 238.352C296.592 238.873 296.365 239.474 296.229 240.154C296.093 240.834 296.025 241.525 296.025 242.228ZM291.197 242.228C291.197 240.823 291.413 239.553 291.843 238.42C292.274 237.264 292.886 236.289 293.679 235.496C294.473 234.68 295.425 234.057 296.535 233.626C297.646 233.173 298.893 232.946 300.275 232.946C301.658 232.946 302.905 233.173 304.015 233.626C305.149 234.057 306.112 234.68 306.905 235.496C307.699 236.289 308.311 237.264 308.741 238.42C309.172 239.553 309.387 240.823 309.387 242.228C309.387 243.633 309.172 244.903 308.741 246.036C308.311 247.169 307.699 248.144 306.905 248.96C306.112 249.753 305.149 250.365 304.015 250.796C302.905 251.227 301.658 251.442 300.275 251.442C298.893 251.442 297.646 251.227 296.535 250.796C295.425 250.365 294.473 249.753 293.679 248.96C292.886 248.144 292.274 247.169 291.843 246.036C291.413 244.903 291.197 243.633 291.197 242.228ZM313.173 226.724H318.001V251H313.173V226.724ZM326.596 242.228C326.596 242.931 326.664 243.622 326.8 244.302C326.936 244.959 327.163 245.56 327.48 246.104C327.82 246.625 328.262 247.045 328.806 247.362C329.35 247.679 330.03 247.838 330.846 247.838C331.662 247.838 332.342 247.679 332.886 247.362C333.453 247.045 333.895 246.625 334.212 246.104C334.552 245.56 334.79 244.959 334.926 244.302C335.062 243.622 335.13 242.931 335.13 242.228C335.13 241.525 335.062 240.834 334.926 240.154C334.79 239.474 334.552 238.873 334.212 238.352C333.895 237.831 333.453 237.411 332.886 237.094C332.342 236.754 331.662 236.584 330.846 236.584C330.03 236.584 329.35 236.754 328.806 237.094C328.262 237.411 327.82 237.831 327.48 238.352C327.163 238.873 326.936 239.474 326.8 240.154C326.664 240.834 326.596 241.525 326.596 242.228ZM321.768 242.228C321.768 240.823 321.984 239.553 322.414 238.42C322.845 237.264 323.457 236.289 324.25 235.496C325.044 234.68 325.996 234.057 327.106 233.626C328.217 233.173 329.464 232.946 330.846 232.946C332.229 232.946 333.476 233.173 334.586 233.626C335.72 234.057 336.683 234.68 337.476 235.496C338.27 236.289 338.882 237.264 339.312 238.42C339.743 239.553 339.958 240.823 339.958 242.228C339.958 243.633 339.743 244.903 339.312 246.036C338.882 247.169 338.27 248.144 337.476 248.96C336.683 249.753 335.72 250.365 334.586 250.796C333.476 251.227 332.229 251.442 330.846 251.442C329.464 251.442 328.217 251.227 327.106 250.796C325.996 250.365 325.044 249.753 324.25 248.96C323.457 248.144 322.845 247.169 322.414 246.036C321.984 244.903 321.768 243.633 321.768 242.228ZM351.801 246.852C352.481 246.852 353.082 246.716 353.603 246.444C354.125 246.172 354.555 245.809 354.895 245.356C355.235 244.903 355.485 244.393 355.643 243.826C355.825 243.237 355.915 242.625 355.915 241.99C355.915 241.265 355.847 240.585 355.711 239.95C355.575 239.293 355.349 238.715 355.031 238.216C354.714 237.717 354.295 237.321 353.773 237.026C353.252 236.731 352.595 236.584 351.801 236.584C351.121 236.584 350.532 236.72 350.033 236.992C349.557 237.264 349.149 237.638 348.809 238.114C348.492 238.567 348.254 239.1 348.095 239.712C347.959 240.301 347.891 240.925 347.891 241.582C347.891 242.217 347.948 242.851 348.061 243.486C348.197 244.098 348.413 244.653 348.707 245.152C349.025 245.651 349.433 246.059 349.931 246.376C350.43 246.693 351.053 246.852 351.801 246.852ZM360.505 249.878C360.505 250.581 360.403 251.385 360.199 252.292C360.018 253.199 359.61 254.037 358.975 254.808C358.341 255.601 357.423 256.27 356.221 256.814C355.02 257.358 353.411 257.63 351.393 257.63C350.532 257.63 349.648 257.517 348.741 257.29C347.857 257.086 347.041 256.757 346.293 256.304C345.568 255.851 344.956 255.261 344.457 254.536C343.981 253.833 343.709 252.983 343.641 251.986H348.435C348.662 252.893 349.104 253.516 349.761 253.856C350.419 254.219 351.178 254.4 352.039 254.4C353.399 254.4 354.385 253.992 354.997 253.176C355.632 252.36 355.938 251.329 355.915 250.082V247.77H355.847C355.326 248.699 354.578 249.391 353.603 249.844C352.651 250.275 351.643 250.49 350.577 250.49C349.263 250.49 348.129 250.263 347.177 249.81C346.225 249.334 345.443 248.699 344.831 247.906C344.219 247.09 343.766 246.149 343.471 245.084C343.199 243.996 343.063 242.851 343.063 241.65C343.063 240.517 343.222 239.429 343.539 238.386C343.879 237.321 344.367 236.391 345.001 235.598C345.636 234.782 346.418 234.136 347.347 233.66C348.299 233.184 349.387 232.946 350.611 232.946C351.767 232.946 352.776 233.161 353.637 233.592C354.521 234.023 355.258 234.748 355.847 235.768H355.915V233.422H360.505V249.878ZM373.573 253.176C373.051 254.604 372.326 255.624 371.397 256.236C370.467 256.848 369.175 257.154 367.521 257.154C367.022 257.154 366.523 257.131 366.025 257.086C365.549 257.063 365.061 257.029 364.563 256.984V253.006C365.016 253.051 365.481 253.097 365.957 253.142C366.433 253.187 366.909 253.199 367.385 253.176C368.019 253.108 368.484 252.859 368.779 252.428C369.096 251.997 369.255 251.521 369.255 251C369.255 250.615 369.187 250.252 369.051 249.912L362.897 233.422H368.031L372.009 245.458H372.077L375.919 233.422H380.917L373.573 253.176Z" fill="#1C304A"/>
<rect x="191" y="279" width="250" height="10" fill="#1C304A"/>
<path d="M192.725 317.15H205.275V320.45H196.65V324.575H204.125V327.625H196.65V335H192.725V317.15ZM215.119 327.15C214.953 326.25 214.653 325.567 214.219 325.1C213.803 324.633 213.161 324.4 212.294 324.4C211.728 324.4 211.253 324.5 210.869 324.7C210.503 324.883 210.203 325.117 209.969 325.4C209.753 325.683 209.594 325.983 209.494 326.3C209.411 326.617 209.361 326.9 209.344 327.15H215.119ZM209.344 329.4C209.394 330.55 209.686 331.383 210.219 331.9C210.753 332.417 211.519 332.675 212.519 332.675C213.236 332.675 213.853 332.5 214.369 332.15C214.886 331.783 215.203 331.4 215.319 331H218.444C217.944 332.55 217.178 333.658 216.144 334.325C215.111 334.992 213.861 335.325 212.394 335.325C211.378 335.325 210.461 335.167 209.644 334.85C208.828 334.517 208.136 334.05 207.569 333.45C207.003 332.85 206.561 332.133 206.244 331.3C205.944 330.467 205.794 329.55 205.794 328.55C205.794 327.583 205.953 326.683 206.269 325.85C206.586 325.017 207.036 324.3 207.619 323.7C208.203 323.083 208.894 322.6 209.694 322.25C210.511 321.9 211.411 321.725 212.394 321.725C213.494 321.725 214.453 321.942 215.269 322.375C216.086 322.792 216.753 323.358 217.269 324.075C217.803 324.792 218.186 325.608 218.419 326.525C218.653 327.442 218.736 328.4 218.669 329.4H209.344ZM229.2 328.5C229.2 327.967 229.15 327.458 229.05 326.975C228.95 326.475 228.775 326.042 228.525 325.675C228.291 325.292 227.983 324.983 227.6 324.75C227.216 324.517 226.733 324.4 226.15 324.4C225.566 324.4 225.075 324.517 224.675 324.75C224.275 324.983 223.95 325.292 223.7 325.675C223.466 326.058 223.291 326.5 223.175 327C223.075 327.483 223.025 327.992 223.025 328.525C223.025 329.025 223.083 329.525 223.2 330.025C223.316 330.525 223.5 330.975 223.75 331.375C224.016 331.758 224.341 332.075 224.725 332.325C225.125 332.558 225.6 332.675 226.15 332.675C226.733 332.675 227.216 332.558 227.6 332.325C228 332.092 228.316 331.783 228.55 331.4C228.783 331 228.95 330.55 229.05 330.05C229.15 329.55 229.2 329.033 229.2 328.5ZM229.25 333.35H229.2C228.783 334.05 228.233 334.558 227.55 334.875C226.883 335.175 226.125 335.325 225.275 335.325C224.308 335.325 223.458 335.142 222.725 334.775C221.991 334.392 221.383 333.883 220.9 333.25C220.433 332.6 220.075 331.858 219.825 331.025C219.591 330.192 219.475 329.325 219.475 328.425C219.475 327.558 219.591 326.725 219.825 325.925C220.075 325.108 220.433 324.392 220.9 323.775C221.383 323.158 221.983 322.667 222.7 322.3C223.416 321.917 224.25 321.725 225.2 321.725C225.966 321.725 226.691 321.892 227.375 322.225C228.075 322.542 228.625 323.017 229.025 323.65H229.075V317.15H232.625V335H229.25V333.35ZM243.258 327.15C243.091 326.25 242.791 325.567 242.358 325.1C241.941 324.633 241.3 324.4 240.433 324.4C239.866 324.4 239.391 324.5 239.008 324.7C238.641 324.883 238.341 325.117 238.108 325.4C237.891 325.683 237.733 325.983 237.633 326.3C237.55 326.617 237.5 326.9 237.483 327.15H243.258ZM237.483 329.4C237.533 330.55 237.825 331.383 238.358 331.9C238.891 332.417 239.658 332.675 240.658 332.675C241.375 332.675 241.991 332.5 242.508 332.15C243.025 331.783 243.341 331.4 243.458 331H246.583C246.083 332.55 245.316 333.658 244.283 334.325C243.25 334.992 242 335.325 240.533 335.325C239.516 335.325 238.6 335.167 237.783 334.85C236.966 334.517 236.275 334.05 235.708 333.45C235.141 332.85 234.7 332.133 234.383 331.3C234.083 330.467 233.933 329.55 233.933 328.55C233.933 327.583 234.091 326.683 234.408 325.85C234.725 325.017 235.175 324.3 235.758 323.7C236.341 323.083 237.033 322.6 237.833 322.25C238.65 321.9 239.55 321.725 240.533 321.725C241.633 321.725 242.591 321.942 243.408 322.375C244.225 322.792 244.891 323.358 245.408 324.075C245.941 324.792 246.325 325.608 246.558 326.525C246.791 327.442 246.875 328.4 246.808 329.4H237.483ZM248.163 322.075H251.538V324.475H251.588C251.755 324.075 251.98 323.708 252.263 323.375C252.547 323.025 252.872 322.733 253.238 322.5C253.605 322.25 253.997 322.058 254.413 321.925C254.83 321.792 255.263 321.725 255.713 321.725C255.947 321.725 256.205 321.767 256.488 321.85V325.15C256.322 325.117 256.122 325.092 255.888 325.075C255.655 325.042 255.43 325.025 255.213 325.025C254.563 325.025 254.013 325.133 253.563 325.35C253.113 325.567 252.747 325.867 252.463 326.25C252.197 326.617 252.005 327.05 251.888 327.55C251.772 328.05 251.713 328.592 251.713 329.175V335H248.163V322.075ZM256.98 326.05C257.03 325.217 257.239 324.525 257.605 323.975C257.972 323.425 258.439 322.983 259.005 322.65C259.572 322.317 260.205 322.083 260.905 321.95C261.622 321.8 262.339 321.725 263.055 321.725C263.705 321.725 264.364 321.775 265.03 321.875C265.697 321.958 266.305 322.133 266.855 322.4C267.405 322.667 267.855 323.042 268.205 323.525C268.555 323.992 268.73 324.617 268.73 325.4V332.125C268.73 332.708 268.764 333.267 268.83 333.8C268.897 334.333 269.014 334.733 269.18 335H265.58C265.514 334.8 265.455 334.6 265.405 334.4C265.372 334.183 265.347 333.967 265.33 333.75C264.764 334.333 264.097 334.742 263.33 334.975C262.564 335.208 261.78 335.325 260.98 335.325C260.364 335.325 259.789 335.25 259.255 335.1C258.722 334.95 258.255 334.717 257.855 334.4C257.455 334.083 257.139 333.683 256.905 333.2C256.689 332.717 256.58 332.142 256.58 331.475C256.58 330.742 256.705 330.142 256.955 329.675C257.222 329.192 257.555 328.808 257.955 328.525C258.372 328.242 258.839 328.033 259.355 327.9C259.889 327.75 260.422 327.633 260.955 327.55C261.489 327.467 262.014 327.4 262.53 327.35C263.047 327.3 263.505 327.225 263.905 327.125C264.305 327.025 264.622 326.883 264.855 326.7C265.089 326.5 265.197 326.217 265.18 325.85C265.18 325.467 265.114 325.167 264.98 324.95C264.864 324.717 264.697 324.542 264.48 324.425C264.28 324.292 264.039 324.208 263.755 324.175C263.489 324.125 263.197 324.1 262.88 324.1C262.18 324.1 261.63 324.25 261.23 324.55C260.83 324.85 260.597 325.35 260.53 326.05H256.98ZM265.18 328.675C265.03 328.808 264.839 328.917 264.605 329C264.389 329.067 264.147 329.125 263.88 329.175C263.63 329.225 263.364 329.267 263.08 329.3C262.797 329.333 262.514 329.375 262.23 329.425C261.964 329.475 261.697 329.542 261.43 329.625C261.18 329.708 260.955 329.825 260.755 329.975C260.572 330.108 260.422 330.283 260.305 330.5C260.189 330.717 260.13 330.992 260.13 331.325C260.13 331.642 260.189 331.908 260.305 332.125C260.422 332.342 260.58 332.517 260.78 332.65C260.98 332.767 261.214 332.85 261.48 332.9C261.747 332.95 262.022 332.975 262.305 332.975C263.005 332.975 263.547 332.858 263.93 332.625C264.314 332.392 264.597 332.117 264.78 331.8C264.964 331.467 265.072 331.133 265.105 330.8C265.155 330.467 265.18 330.2 265.18 330V328.675ZM270.836 317.15H274.386V335H270.836V317.15ZM287.514 328.1H292.139L289.889 321.55H289.839L287.514 328.1ZM287.889 317.15H291.914L298.589 335H294.514L293.164 331.025H286.489L285.089 335H281.139L287.889 317.15ZM305.028 331.95C305.528 331.95 305.97 331.85 306.353 331.65C306.737 331.45 307.053 331.183 307.303 330.85C307.553 330.517 307.737 330.142 307.853 329.725C307.987 329.292 308.053 328.842 308.053 328.375C308.053 327.842 308.003 327.342 307.903 326.875C307.803 326.392 307.637 325.967 307.403 325.6C307.17 325.233 306.862 324.942 306.478 324.725C306.095 324.508 305.612 324.4 305.028 324.4C304.528 324.4 304.095 324.5 303.728 324.7C303.378 324.9 303.078 325.175 302.828 325.525C302.595 325.858 302.42 326.25 302.303 326.7C302.203 327.133 302.153 327.592 302.153 328.075C302.153 328.542 302.195 329.008 302.278 329.475C302.378 329.925 302.537 330.333 302.753 330.7C302.987 331.067 303.287 331.367 303.653 331.6C304.02 331.833 304.478 331.95 305.028 331.95ZM311.428 334.175C311.428 334.692 311.353 335.283 311.203 335.95C311.07 336.617 310.77 337.233 310.303 337.8C309.837 338.383 309.162 338.875 308.278 339.275C307.395 339.675 306.212 339.875 304.728 339.875C304.095 339.875 303.445 339.792 302.778 339.625C302.128 339.475 301.528 339.233 300.978 338.9C300.445 338.567 299.995 338.133 299.628 337.6C299.278 337.083 299.078 336.458 299.028 335.725H302.553C302.72 336.392 303.045 336.85 303.528 337.1C304.012 337.367 304.57 337.5 305.203 337.5C306.203 337.5 306.928 337.2 307.378 336.6C307.845 336 308.07 335.242 308.053 334.325V332.625H308.003C307.62 333.308 307.07 333.817 306.353 334.15C305.653 334.467 304.912 334.625 304.128 334.625C303.162 334.625 302.328 334.458 301.628 334.125C300.928 333.775 300.353 333.308 299.903 332.725C299.453 332.125 299.12 331.433 298.903 330.65C298.703 329.85 298.603 329.008 298.603 328.125C298.603 327.292 298.72 326.492 298.953 325.725C299.203 324.942 299.562 324.258 300.028 323.675C300.495 323.075 301.07 322.6 301.753 322.25C302.453 321.9 303.253 321.725 304.153 321.725C305.003 321.725 305.745 321.883 306.378 322.2C307.028 322.517 307.57 323.05 308.003 323.8H308.053V322.075H311.428V334.175ZM322.237 327.15C322.07 326.25 321.77 325.567 321.337 325.1C320.92 324.633 320.278 324.4 319.412 324.4C318.845 324.4 318.37 324.5 317.987 324.7C317.62 324.883 317.32 325.117 317.087 325.4C316.87 325.683 316.712 325.983 316.612 326.3C316.528 326.617 316.478 326.9 316.462 327.15H322.237ZM316.462 329.4C316.512 330.55 316.803 331.383 317.337 331.9C317.87 332.417 318.637 332.675 319.637 332.675C320.353 332.675 320.97 332.5 321.487 332.15C322.003 331.783 322.32 331.4 322.437 331H325.562C325.062 332.55 324.295 333.658 323.262 334.325C322.228 334.992 320.978 335.325 319.512 335.325C318.495 335.325 317.578 335.167 316.762 334.85C315.945 334.517 315.253 334.05 314.687 333.45C314.12 332.85 313.678 332.133 313.362 331.3C313.062 330.467 312.912 329.55 312.912 328.55C312.912 327.583 313.07 326.683 313.387 325.85C313.703 325.017 314.153 324.3 314.737 323.7C315.32 323.083 316.012 322.6 316.812 322.25C317.628 321.9 318.528 321.725 319.512 321.725C320.612 321.725 321.57 321.942 322.387 322.375C323.203 322.792 323.87 323.358 324.387 324.075C324.92 324.792 325.303 325.608 325.537 326.525C325.77 327.442 325.853 328.4 325.787 329.4H316.462ZM327.142 322.075H330.517V323.875H330.592C331.042 323.125 331.625 322.583 332.342 322.25C333.059 321.9 333.792 321.725 334.542 321.725C335.492 321.725 336.267 321.858 336.867 322.125C337.484 322.375 337.967 322.733 338.317 323.2C338.667 323.65 338.909 324.208 339.042 324.875C339.192 325.525 339.267 326.25 339.267 327.05V335H335.717V327.7C335.717 326.633 335.55 325.842 335.217 325.325C334.884 324.792 334.292 324.525 333.442 324.525C332.475 324.525 331.775 324.817 331.342 325.4C330.909 325.967 330.692 326.908 330.692 328.225V335H327.142V322.075ZM350.011 326.625C349.778 325.142 348.903 324.4 347.386 324.4C346.82 324.4 346.345 324.533 345.961 324.8C345.578 325.05 345.261 325.383 345.011 325.8C344.778 326.2 344.611 326.65 344.511 327.15C344.411 327.633 344.361 328.117 344.361 328.6C344.361 329.067 344.411 329.542 344.511 330.025C344.611 330.508 344.77 330.95 344.986 331.35C345.22 331.733 345.528 332.05 345.911 332.3C346.295 332.55 346.761 332.675 347.311 332.675C348.161 332.675 348.811 332.442 349.261 331.975C349.728 331.492 350.02 330.85 350.136 330.05H353.561C353.328 331.767 352.661 333.075 351.561 333.975C350.461 334.875 349.053 335.325 347.336 335.325C346.37 335.325 345.478 335.167 344.661 334.85C343.861 334.517 343.178 334.058 342.611 333.475C342.045 332.892 341.603 332.2 341.286 331.4C340.97 330.583 340.811 329.692 340.811 328.725C340.811 327.725 340.953 326.8 341.236 325.95C341.536 325.083 341.97 324.342 342.536 323.725C343.103 323.092 343.795 322.6 344.611 322.25C345.428 321.9 346.361 321.725 347.411 321.725C348.178 321.725 348.911 321.825 349.611 322.025C350.328 322.225 350.961 322.533 351.511 322.95C352.078 323.35 352.536 323.858 352.886 324.475C353.236 325.075 353.436 325.792 353.486 326.625H350.011ZM361.192 336.6C360.808 337.65 360.275 338.4 359.592 338.85C358.908 339.3 357.958 339.525 356.742 339.525C356.375 339.525 356.008 339.508 355.642 339.475C355.292 339.458 354.933 339.433 354.567 339.4V336.475C354.9 336.508 355.242 336.542 355.592 336.575C355.942 336.608 356.292 336.617 356.642 336.6C357.108 336.55 357.45 336.367 357.667 336.05C357.9 335.733 358.017 335.383 358.017 335C358.017 334.717 357.967 334.45 357.867 334.2L353.342 322.075H357.117L360.042 330.925H360.092L362.917 322.075H366.592L361.192 336.6ZM192.725 348.15H205.275V351.45H196.65V355.575H204.125V358.625H196.65V366H192.725V348.15ZM210.069 351.075H206.519V348.15H210.069V351.075ZM206.519 353.075H210.069V366H206.519V353.075ZM220.815 358.15C220.648 357.25 220.348 356.567 219.915 356.1C219.498 355.633 218.856 355.4 217.99 355.4C217.423 355.4 216.948 355.5 216.565 355.7C216.198 355.883 215.898 356.117 215.665 356.4C215.448 356.683 215.29 356.983 215.19 357.3C215.106 357.617 215.056 357.9 215.04 358.15H220.815ZM215.04 360.4C215.09 361.55 215.381 362.383 215.915 362.9C216.448 363.417 217.215 363.675 218.215 363.675C218.931 363.675 219.548 363.5 220.065 363.15C220.581 362.783 220.898 362.4 221.015 362H224.14C223.64 363.55 222.873 364.658 221.84 365.325C220.806 365.992 219.556 366.325 218.09 366.325C217.073 366.325 216.156 366.167 215.34 365.85C214.523 365.517 213.831 365.05 213.265 364.45C212.698 363.85 212.256 363.133 211.94 362.3C211.64 361.467 211.49 360.55 211.49 359.55C211.49 358.583 211.648 357.683 211.965 356.85C212.281 356.017 212.731 355.3 213.315 354.7C213.898 354.083 214.59 353.6 215.39 353.25C216.206 352.9 217.106 352.725 218.09 352.725C219.19 352.725 220.148 352.942 220.965 353.375C221.781 353.792 222.448 354.358 222.965 355.075C223.498 355.792 223.881 356.608 224.115 357.525C224.348 358.442 224.431 359.4 224.365 360.4H215.04ZM225.82 348.15H229.37V366H225.82V348.15ZM240.59 359.5C240.59 358.967 240.54 358.458 240.44 357.975C240.34 357.475 240.165 357.042 239.915 356.675C239.682 356.292 239.374 355.983 238.99 355.75C238.607 355.517 238.124 355.4 237.54 355.4C236.957 355.4 236.465 355.517 236.065 355.75C235.665 355.983 235.34 356.292 235.09 356.675C234.857 357.058 234.682 357.5 234.565 358C234.465 358.483 234.415 358.992 234.415 359.525C234.415 360.025 234.474 360.525 234.59 361.025C234.707 361.525 234.89 361.975 235.14 362.375C235.407 362.758 235.732 363.075 236.115 363.325C236.515 363.558 236.99 363.675 237.54 363.675C238.124 363.675 238.607 363.558 238.99 363.325C239.39 363.092 239.707 362.783 239.94 362.4C240.174 362 240.34 361.55 240.44 361.05C240.54 360.55 240.59 360.033 240.59 359.5ZM240.64 364.35H240.59C240.174 365.05 239.624 365.558 238.94 365.875C238.274 366.175 237.515 366.325 236.665 366.325C235.699 366.325 234.849 366.142 234.115 365.775C233.382 365.392 232.774 364.883 232.29 364.25C231.824 363.6 231.465 362.858 231.215 362.025C230.982 361.192 230.865 360.325 230.865 359.425C230.865 358.558 230.982 357.725 231.215 356.925C231.465 356.108 231.824 355.392 232.29 354.775C232.774 354.158 233.374 353.667 234.09 353.3C234.807 352.917 235.64 352.725 236.59 352.725C237.357 352.725 238.082 352.892 238.765 353.225C239.465 353.542 240.015 354.017 240.415 354.65H240.465V348.15H244.015V366H240.64V364.35ZM265.432 363.975C264.732 364.875 263.957 365.508 263.107 365.875C262.257 366.225 261.398 366.4 260.532 366.4C259.165 366.4 257.932 366.167 256.832 365.7C255.748 365.217 254.832 364.558 254.082 363.725C253.332 362.892 252.757 361.917 252.357 360.8C251.957 359.667 251.757 358.45 251.757 357.15C251.757 355.817 251.957 354.583 252.357 353.45C252.757 352.3 253.332 351.3 254.082 350.45C254.832 349.6 255.748 348.933 256.832 348.45C257.932 347.967 259.165 347.725 260.532 347.725C261.448 347.725 262.332 347.867 263.182 348.15C264.048 348.417 264.823 348.817 265.507 349.35C266.207 349.883 266.782 350.542 267.232 351.325C267.682 352.108 267.957 353.008 268.057 354.025H264.307C264.073 353.025 263.623 352.275 262.957 351.775C262.29 351.275 261.482 351.025 260.532 351.025C259.648 351.025 258.898 351.2 258.282 351.55C257.665 351.883 257.165 352.342 256.782 352.925C256.398 353.492 256.115 354.142 255.932 354.875C255.765 355.608 255.682 356.367 255.682 357.15C255.682 357.9 255.765 358.633 255.932 359.35C256.115 360.05 256.398 360.683 256.782 361.25C257.165 361.817 257.665 362.275 258.282 362.625C258.898 362.958 259.648 363.125 260.532 363.125C261.832 363.125 262.832 362.8 263.532 362.15C264.248 361.483 264.665 360.525 264.782 359.275H260.832V356.35H268.332V366H265.832L265.432 363.975ZM282.501 366H279.126V364.2H279.051C278.601 364.95 278.018 365.492 277.301 365.825C276.585 366.158 275.851 366.325 275.101 366.325C274.151 366.325 273.368 366.2 272.751 365.95C272.151 365.7 271.676 365.35 271.326 364.9C270.976 364.433 270.726 363.875 270.576 363.225C270.443 362.558 270.376 361.825 270.376 361.025V353.075H273.926V360.375C273.926 361.442 274.093 362.242 274.426 362.775C274.76 363.292 275.351 363.55 276.201 363.55C277.168 363.55 277.868 363.267 278.301 362.7C278.735 362.117 278.951 361.167 278.951 359.85V353.075H282.501V366ZM288.096 351.075H284.546V348.15H288.096V351.075ZM284.546 353.075H288.096V366H284.546V353.075ZM299.316 359.5C299.316 358.967 299.266 358.458 299.166 357.975C299.066 357.475 298.891 357.042 298.641 356.675C298.408 356.292 298.099 355.983 297.716 355.75C297.333 355.517 296.849 355.4 296.266 355.4C295.683 355.4 295.191 355.517 294.791 355.75C294.391 355.983 294.066 356.292 293.816 356.675C293.583 357.058 293.408 357.5 293.291 358C293.191 358.483 293.141 358.992 293.141 359.525C293.141 360.025 293.199 360.525 293.316 361.025C293.433 361.525 293.616 361.975 293.866 362.375C294.133 362.758 294.458 363.075 294.841 363.325C295.241 363.558 295.716 363.675 296.266 363.675C296.849 363.675 297.333 363.558 297.716 363.325C298.116 363.092 298.433 362.783 298.666 362.4C298.899 362 299.066 361.55 299.166 361.05C299.266 360.55 299.316 360.033 299.316 359.5ZM299.366 364.35H299.316C298.899 365.05 298.349 365.558 297.666 365.875C296.999 366.175 296.241 366.325 295.391 366.325C294.424 366.325 293.574 366.142 292.841 365.775C292.108 365.392 291.499 364.883 291.016 364.25C290.549 363.6 290.191 362.858 289.941 362.025C289.708 361.192 289.591 360.325 289.591 359.425C289.591 358.558 289.708 357.725 289.941 356.925C290.191 356.108 290.549 355.392 291.016 354.775C291.499 354.158 292.099 353.667 292.816 353.3C293.533 352.917 294.366 352.725 295.316 352.725C296.083 352.725 296.808 352.892 297.491 353.225C298.191 353.542 298.741 354.017 299.141 354.65H299.191V348.15H302.741V366H299.366V364.35ZM313.374 358.15C313.208 357.25 312.908 356.567 312.474 356.1C312.058 355.633 311.416 355.4 310.549 355.4C309.983 355.4 309.508 355.5 309.124 355.7C308.758 355.883 308.458 356.117 308.224 356.4C308.008 356.683 307.849 356.983 307.749 357.3C307.666 357.617 307.616 357.9 307.599 358.15H313.374ZM307.599 360.4C307.649 361.55 307.941 362.383 308.474 362.9C309.008 363.417 309.774 363.675 310.774 363.675C311.491 363.675 312.108 363.5 312.624 363.15C313.141 362.783 313.458 362.4 313.574 362H316.699C316.199 363.55 315.433 364.658 314.399 365.325C313.366 365.992 312.116 366.325 310.649 366.325C309.633 366.325 308.716 366.167 307.899 365.85C307.083 365.517 306.391 365.05 305.824 364.45C305.258 363.85 304.816 363.133 304.499 362.3C304.199 361.467 304.049 360.55 304.049 359.55C304.049 358.583 304.208 357.683 304.524 356.85C304.841 356.017 305.291 355.3 305.874 354.7C306.458 354.083 307.149 353.6 307.949 353.25C308.766 352.9 309.666 352.725 310.649 352.725C311.749 352.725 312.708 352.942 313.524 353.375C314.341 353.792 315.008 354.358 315.524 355.075C316.058 355.792 316.441 356.608 316.674 357.525C316.908 358.442 316.991 359.4 316.924 360.4H307.599Z" fill="#1C304A"/>
</g>
<path fill-rule="evenodd" clip-rule="evenodd" d="M7 250C7 384.205 115.795 493 250 493C384.205 493 493 384.205 493 250H481C481 377.578 377.578 481 250 481C122.422 481 19 377.578 19 250H7Z" fill="#B3EFFF"/>
<path fill-rule="evenodd" clip-rule="evenodd" d="M7.04657 247C7.80537 382.994 116.299 493 250.023 493C383.748 493 492.241 382.994 493 247H492.251C482.429 374.482 377.732 474.813 250.023 474.813C122.314 474.813 17.6171 374.482 7.79543 247H7.04657Z" fill="#B3EFFF"/>
</svg>
