<svg id="Layer_1" data-name="Layer 1" xmlns="http://www.w3.org/2000/svg" xmlns:xlink="http://www.w3.org/1999/xlink" viewBox="0 0 315 315"><defs><style>.cls-1,.cls-3{fill:none;}.cls-2{clip-path:url(#clip-path);}.cls-3{stroke:#f3f3f3;stroke-width:12px;}.cls-4{fill:#36c6f4;}</style><clipPath id="clip-path"><rect class="cls-1" x="0.24" y="4.95" width="314" height="305.7"/></clipPath></defs><g class="cls-2"><path class="cls-3" d="M22.44,58.75h254c17.56,0,31.8,13.7,31.8,30.6S294,120,276.44,120H76c-17.56,0-31.8,13.7-31.8,30.6s14.24,30.6,31.8,30.6M110.24,304h169.6m-44.6-61.21h-125c-17.56,0-31.8,13.7-31.8,30.61S92.68,304,110.24,304M76,181.15H176l59.2.39c17.56,0,31.8,13.7,31.8,30.6s-14.24,30.6-31.8,30.6"/><path class="cls-4" d="M23.36,65.05c9-9,23.11-24.22,23.11-37a23.12,23.12,0,0,0-46.23,0c0,12.77,14.08,27.92,23.12,37"/><path class="cls-4" d="M279.54,310.65c8.8-8.8,22.5-23.58,22.5-36a22.5,22.5,0,0,0-45,0c0,12.42,13.7,27.16,22.5,36"/></g></svg>