<svg id="Layer_1" data-name="Layer 1" xmlns="http://www.w3.org/2000/svg" xmlns:xlink="http://www.w3.org/1999/xlink" viewBox="0 0 315 315"><defs><style>.cls-1,.cls-3,.cls-6,.cls-7{fill:none;}.cls-2,.cls-5{fill:#fff;}.cls-3,.cls-5{stroke:#00cfff;}.cls-3{stroke-width:6px;}.cls-4{clip-path:url(#clip-path);}.cls-5{stroke-miterlimit:10;}.cls-6,.cls-7{stroke:#fff;stroke-width:5px;}.cls-6{stroke-dasharray:12.31 12.31;}</style><clipPath id="clip-path"><rect class="cls-1" x="10.09" y="7.9" width="294.3" height="294.2"/></clipPath></defs><rect class="cls-2" x="50.17" y="47.97" width="81.57" height="81.57"/><rect class="cls-3" x="50.17" y="47.97" width="81.57" height="81.57"/><g class="cls-4"><path class="cls-5" d="M251.18,215.64l-48,83.18h96q-24-41.6-48-83.18"/><path class="cls-3" d="M251.18,215.64l-48,83.18h96Q275.2,257.22,251.18,215.64Z"/><path class="cls-2" d="M251.18,46.38,206.25,79l17.16,52.82H279L296.11,79,251.18,46.38"/><path class="cls-3" d="M251.18,46.38,206.25,79l17.16,52.82H279L296.11,79Z"/><path class="cls-6" d="M109.25,165A78.43,78.43,0,0,0,168.35,101"/><path class="cls-6" d="M167.16,70.46a78.43,78.43,0,0,0-63.95-59.1"/><path class="cls-6" d="M72.65,12.55a78.44,78.44,0,0,0-59.1,64"/><path class="cls-6" d="M14.74,107.05a78.44,78.44,0,0,0,64,59.11"/><path class="cls-7" d="M84.8,166.88q3,.23,6.15.23t6.15-.23M12.83,82.61c-.15,2-.24,4.08-.24,6.15s.09,4.12.24,6.14M97.1,10.64q-3-.24-6.15-.24t-6.15.24M169.07,94.9q.24-3,.24-6.14t-.24-6.15"/><path class="cls-2" d="M91,213.26l-35.31,17q-4.35,19.1-8.72,38.2L71.36,299.1h39.18L135,268.46q-4.36-19.09-8.72-38.2L91,213.26"/><path class="cls-3" d="M91,213.26l-35.31,17q-4.35,19.1-8.72,38.2L71.36,299.1h39.18L135,268.46q-4.36-19.09-8.72-38.2Z"/></g></svg>