<svg id="Layer_1" data-name="Layer 1" xmlns="http://www.w3.org/2000/svg" xmlns:xlink="http://www.w3.org/1999/xlink" viewBox="0 0 315 315"><defs><style>.cls-1{fill:none;}.cls-2{clip-path:url(#clip-path);}.cls-3{fill:#f3f3f3;}.cls-4{fill:#00cfff;}</style><clipPath id="clip-path"><rect class="cls-1" x="2.12" y="39.09" width="310.83" height="232.07"/></clipPath></defs><g class="cls-2"><path class="cls-3" d="M238.42,107.22a23.33,23.33,0,1,1,25.65-20.76,23.32,23.32,0,0,1-25.65,20.76M276.53,89l9.68-2.16c0-3.4,0-2.78,0-6.18l-9.7-2c-.62-2.61-.7-3-1.31-5.58l7.78-6.15-2.71-5.55-9.64,2.37L267,59.24l4.35-8.92-4.86-3.82-7.65,6.31-5.17-2.45,0-9.93-6-1.33-4.16,9-5.73,0-4.26-9-6,1.41.17,9.92L222.52,53l-7.73-6.22L210,50.69l4.46,8.87-3.55,4.5-9.66-2.26-2.65,5.59,7.86,6L205.2,79l-9.69,2.16c0,3.4,0,2.78,0,6.18l9.71,2.05c.61,2.61.7,3,1.31,5.58l-7.79,6.14,2.72,5.56,9.63-2.37,3.6,4.46-4.34,8.92,4.85,3.82,7.65-6.31,5.18,2.45,0,9.92,6,1.34,4.15-9,5.73,0,4.27,9,6-1.41-.16-9.92,5.15-2.52,7.72,6.22,4.81-3.88-4.45-8.87c1.66-2.1,1.89-2.39,3.54-4.5l9.67,2.25c1.45-3.07,1.19-2.51,2.65-5.58l-7.86-6.06L276.53,89"/><path class="cls-3" d="M49.28,248.61a28.37,28.37,0,1,1,31.18-25.25,28.38,28.38,0,0,1-31.18,25.25M88.93,235.8l13.84-4.16c.58-6.9.61-7.25,1.18-14.15l-13-6.41c-1.42-3.72-2.27-6-3.7-9.67L92.68,188l-10.32-9.74-13.09,6.13-9.87-3.14-7.14-12.57-14,2-3.37,14.06-8.6,5.75L12,188.22l-7.2,12.23,8.88,11.39c-.33,4-.53,6.35-.86,10.32L2.12,231.92l5.06,13.25,14.45.16,7.53,7.11,1,14.42,13.53,4.3L52.8,260l10.25-1.45,11.89,8.23,11.79-7.89-3.06-14.13,5.26-8.92"/><path class="cls-4" d="M286.8,152.46a11.91,11.91,0,1,1,13.09-10.6,11.9,11.9,0,0,1-13.09,10.6M304.42,148l8-2.42c.24-2.86.26-3,.5-5.88L305.43,136l-1.54-4,3.12-7.79-4.29-4-7.59,3.56L291,122.34l-4.14-7.29-5.84.83-2,8.15-3.58,2.4-8.28-1.31-3,5.08,5.16,6.62c-.14,1.65-.22,2.64-.36,4.29l-6.19,5.66,2.11,5.51,8.38.1c1.21,1.13,1.93,1.82,3.13,3l.57,8.37,5.63,1.79L288,159l4.26-.6,6.9,4.77,4.9-3.28-1.77-8.2,2.18-3.71"/><path class="cls-4" d="M89.4,115A16.46,16.46,0,1,1,112,109.26,16.45,16.45,0,0,1,89.4,115m22.73,2.26,10.09,1.4,3.52-6.24-6.4-7.91c.13-2,.21-3.21.34-5.22l7.38-7c-1.3-3.24-1.37-3.4-2.68-6.64l-10.18.07c-1.49-1.35-2.38-2.16-3.86-3.52l-.88-10.14-6.87-2L96.3,78l-5.16.83-8.48-5.64-5.88,4.09,2.34,9.91-2.57,4.55-9.69,3.11c-.23,3.49-.24,3.67-.47,7.15l9.2,4.35c.76,1.86,1.21,3,2,4.85l-3.61,9.52,5.29,4.82,9.15-4.48,5,1.49,5.19,8.76,7.07-1.13,2.19-10,4.29-3"/><path class="cls-4" d="M162.38,210a35.87,35.87,0,1,1,39.41-31.92A35.87,35.87,0,0,1,162.38,210m57.86-31.28,16.16-6.25c-.64-6-.57-5.39-1.2-11.43l-17.11-2.76-3.86-9.39,10.22-14-7.19-9-15.89,6.93-8.32-5.81,1-17.3-10.9-3.66-9.62,14.42-10.14-.39L154.93,105l-11.14,2.82-.3,17.33-8.74,5.15-15.31-8.12-7.85,8.4,9.12,14.73-4.57,9.07-17.27,1.44-2.06,11.31,15.63,7.46c.47,4.42.6,5.68,1.06,10.1L99.76,195.28l4.37,10.63,17.19-2.17,6.35,7.92L121.81,228l9.43,6.58,13.29-11.12,9.62,3.23L158,243.54l11.48.44,5.17-16.55,9.84-2.48,12.4,12.1,9.9-5.84-4.6-16.71c3-3.24,3.9-4.16,6.93-7.41l17,3.48,5.17-10.26-12.9-11.57c.8-4.38,1-5.62,1.83-10"/></g></svg>