<svg id="Layer_1" data-name="Layer 1" xmlns="http://www.w3.org/2000/svg" viewBox="0 0 315 315"><defs><style>.cls-1{fill:#f3f3f3;}.cls-2{font-size:76px;fill:#1d304a;font-family:Helvetica-Bold, Helvetica;font-weight:700;}.cls-3{fill:#00cfff;}</style></defs><path class="cls-1" d="M203.38,11.61H26.4s-16,0-16,16v80.12h0V170l32.4-30.4-.21-.2H203.38s16,0,16-16V27.61S219.38,11.61,203.38,11.61Z"/><text class="cls-2" transform="translate(45.16 101.01)">???</text><path class="cls-3" d="M305.4,171.61c0-16-16-16-16-16h-177c-16,0-16,16-16,16v95.8c0,16,16,16,16,16H273.2l-.2.2L305.4,314V267.42h0Z"/><rect class="cls-1" x="135.78" y="235.09" width="137.81" height="9.92"/><rect class="cls-1" x="120.6" y="214.15" width="153" height="9.92"/><rect class="cls-1" x="144.95" y="193.21" width="128.65" height="9.92"/></svg>