<?xml version="1.0" encoding="UTF-8"?>
<svg id="Isolation_Mode" data-name="Isolation Mode" xmlns="http://www.w3.org/2000/svg" xmlns:xlink="http://www.w3.org/1999/xlink" viewBox="0 0 500 500">
  <defs>
    <style>
      .cls-1 {
        clip-path: url(#clippath);
      }

      .cls-2 {
        fill: none;
      }

      .cls-2, .cls-3, .cls-4 {
        stroke-width: 0px;
      }

      .cls-3 {
        fill: #fff;
      }

      .cls-4 {
        fill: #046b99;
      }
    </style>
    <clipPath id="clippath">
      <path class="cls-2" d="m355.96,265.5V104.29h-216.09v169.42h.5c-.02.94-.03,1.89-.03,2.84,0,65.81,48.37,119.16,108.04,119.16s108.04-53.35,108.04-119.16c0-3.73-.16-7.41-.47-11.05Z"/>
    </clipPath>
  </defs>
  <path class="cls-4" d="m250,30c29.71,0,58.52,5.81,85.62,17.28,26.19,11.08,49.72,26.95,69.94,47.16,20.21,20.21,36.08,43.74,47.16,69.94,11.46,27.1,17.28,55.91,17.28,85.62s-5.81,58.52-17.28,85.62c-11.08,26.19-26.95,49.72-47.16,69.94-20.21,20.21-43.74,36.08-69.94,47.16-27.1,11.46-55.91,17.28-85.62,17.28s-58.52-5.81-85.62-17.28c-26.19-11.08-49.72-26.95-69.94-47.16-20.21-20.21-36.08-43.74-47.16-69.94-11.46-27.1-17.28-55.91-17.28-85.62s5.81-58.52,17.28-85.62c11.08-26.19,26.95-49.72,47.16-69.94,20.21-20.21,43.74-36.08,69.94-47.16,27.1-11.46,55.91-17.28,85.62-17.28M250,0C111.93,0,0,111.93,0,250s111.93,250,250,250,250-111.93,250-250S388.07,0,250,0h0Z"/>
  <circle class="cls-4" cx="250" cy="250" r="187"/>
  <g>
    <polygon class="cls-3" points="164.37 132.35 170.61 145.01 184.58 147.04 174.47 156.89 176.86 170.79 164.37 164.23 151.88 170.79 154.27 156.89 144.16 147.04 158.12 145.01 164.37 132.35"/>
    <polygon class="cls-3" points="341.19 132.35 347.43 145.01 361.4 147.04 351.29 156.89 353.68 170.79 341.19 164.23 328.7 170.79 331.08 156.89 320.98 147.04 334.94 145.01 341.19 132.35"/>
    <polygon class="cls-3" points="250 104.13 259.17 122.71 279.68 125.69 264.84 140.15 268.34 160.58 250 150.94 231.66 160.58 235.16 140.15 220.32 125.69 240.83 122.71 250 104.13"/>
  </g>
  <g class="cls-1">
    <path class="cls-3" d="m170.24,190.63v205.07h-23.21v-205.07h23.21Zm23.21,0v205.07h23.21v-205.07h-23.21Zm46.43,0v205.07h23.21v-205.07h-23.21Zm46.43,0v205.07h23.21v-205.07h-23.21Zm46.43,0v205.07h23.21v-205.07h-23.21Z"/>
  </g>
</svg>