<?xml version="1.0" encoding="UTF-8"?>
<svg id="Isolation_Mode" data-name="Isolation Mode" xmlns="http://www.w3.org/2000/svg" viewBox="0 0 500 500">
  <defs>
    <style>
      .cls-1 {
        fill: #fff;
      }

      .cls-1, .cls-2 {
        stroke-width: 0px;
      }

      .cls-2 {
        fill: #046b99;
      }
    </style>
  </defs>
  <g>
    <path class="cls-2" d="m250,30c29.71,0,58.52,5.81,85.62,17.28,26.19,11.08,49.72,26.95,69.94,47.16,20.21,20.21,36.08,43.74,47.16,69.94,11.46,27.1,17.28,55.91,17.28,85.62s-5.81,58.52-17.28,85.62c-11.08,26.19-26.95,49.72-47.16,69.94-20.21,20.21-43.74,36.08-69.94,47.16-27.1,11.46-55.91,17.28-85.62,17.28s-58.52-5.81-85.62-17.28c-26.19-11.08-49.72-26.95-69.94-47.16-20.21-20.21-36.08-43.74-47.16-69.94-11.46-27.1-17.28-55.91-17.28-85.62s5.81-58.52,17.28-85.62c11.08-26.19,26.95-49.72,47.16-69.94,20.21-20.21,43.74-36.08,69.94-47.16,27.1-11.46,55.91-17.28,85.62-17.28M250,0C111.93,0,0,111.93,0,250s111.93,250,250,250,250-111.93,250-250S388.07,0,250,0h0Z"/>
    <circle class="cls-2" cx="250" cy="250" r="187"/>
  </g>
  <g>
    <g>
      <g>
        <rect class="cls-1" x="180.73" y="217.3" width="14.51" height="65.09"/>
        <rect class="cls-1" x="212.51" y="217.3" width="14.51" height="65.09"/>
        <rect class="cls-1" x="244.29" y="217.3" width="14.51" height="65.09"/>
        <rect class="cls-1" x="276.07" y="217.3" width="14.51" height="65.09"/>
        <rect class="cls-1" x="307.85" y="217.3" width="14.51" height="65.09"/>
      </g>
      <g>
        <g>
          <rect class="cls-1" x="242.77" y="125.22" width="18.35" height="33.21"/>
          <g>
            <rect class="cls-1" x="249.87" y="103.03" width="3.51" height="22.19"/>
            <rect class="cls-1" x="249.87" y="94.61" width="31.43" height="16.84"/>
          </g>
        </g>
        <g>
          <path class="cls-1" d="m251.55,146.48c-39.11,0-70.82,31.71-70.82,70.82h141.63c0-39.11-31.71-70.82-70.82-70.82Z"/>
          <rect class="cls-1" x="176.86" y="210.49" width="150.17" height="6.8"/>
        </g>
      </g>
      <rect class="cls-1" x="169.64" y="268.03" width="164.4" height="50.4"/>
    </g>
    <rect class="cls-1" x="145.49" y="293.23" width="212.69" height="81.07"/>
  </g>
</svg>