<svg width="248" height="248" viewBox="0 0 248 248" fill="none" xmlns="http://www.w3.org/2000/svg">
<circle cx="150" cy="59" r="50" fill="#B3EFFF"/>
<path fill-rule="evenodd" clip-rule="evenodd" d="M47 129.728C47 98.002 71.2153 75.1854 101 75.1854C130.87 75.1854 155 99.6515 155 129.728C155 139.491 151.742 148.498 147.789 156.576C145.808 160.625 143.613 164.516 141.514 168.184C141.247 168.65 140.982 169.112 140.72 169.57C138.895 172.754 137.181 175.742 135.692 178.634C132.71 184.422 129.369 192.367 125.674 202.534C125.077 204.175 123.517 205.268 121.769 205.268H80.2308C78.5387 205.268 77.0158 204.243 76.3806 202.676C72.2885 192.58 68.7065 184.471 65.6321 178.315C64.2214 175.49 62.57 172.547 60.7932 169.38C60.5642 168.972 60.3332 168.56 60.1003 168.144C58.0835 164.543 55.9569 160.696 54.0315 156.669C50.1864 148.629 47 139.595 47 129.728ZM101 83.4854C75.7262 83.4854 55.3077 102.663 55.3077 129.728C55.3077 137.82 57.923 145.554 61.5276 153.091C63.327 156.854 65.3372 160.497 67.35 164.091C67.5798 164.501 67.8101 164.911 68.0403 165.322C69.8026 168.462 71.5593 171.593 73.0658 174.609C75.9981 180.48 79.318 187.942 83.0235 196.968H118.869C122.239 187.901 125.383 180.506 128.305 174.835C129.887 171.765 131.702 168.6 133.517 165.435C133.779 164.978 134.04 164.521 134.302 164.065C136.396 160.406 138.473 156.717 140.326 152.931C144.04 145.341 146.692 137.664 146.692 129.728C146.692 104.143 126.189 83.4854 101 83.4854ZM96.8462 104.532C96.8462 102.24 98.7059 100.382 101 100.382C119.418 100.382 134.231 115.531 134.231 134.072C134.231 136.364 132.371 138.222 130.077 138.222C127.783 138.222 125.923 136.364 125.923 134.072C125.923 119.984 114.699 108.682 101 108.682C98.7059 108.682 96.8462 106.824 96.8462 104.532ZM80.2308 217.916C80.2308 215.624 82.0905 213.766 84.3846 213.766H117.615C119.909 213.766 121.769 215.624 121.769 217.916C121.769 220.208 119.909 222.066 117.615 222.066H84.3846C82.0905 222.066 80.2308 220.208 80.2308 217.916ZM84.3846 234.713C84.3846 232.421 86.2444 230.563 88.5385 230.563H113.462C115.756 230.563 117.615 232.421 117.615 234.713C117.615 237.005 115.756 238.863 113.462 238.863H88.5385C86.2444 238.863 84.3846 237.005 84.3846 234.713Z" fill="#046B99"/>
<g clip-path="url(#clip0_15_390)">
<path fill-rule="evenodd" clip-rule="evenodd" d="M154.586 22.6207C155.448 22.9886 155.964 23.8867 155.851 24.8224L152.871 49.5159H179.9C180.71 49.5159 181.447 49.9845 181.796 50.7202C182.144 51.456 182.041 52.3279 181.532 52.9612L148.865 93.5555C148.276 94.2879 147.276 94.539 146.414 94.1711C145.552 93.8032 145.036 92.9052 145.149 91.9694L148.129 67.2759H121.1C120.29 67.2759 119.553 66.8074 119.204 66.0716C118.856 65.3359 118.959 64.464 119.468 63.8307L152.135 23.2364C152.724 22.504 153.724 22.2528 154.586 22.6207ZM125.504 63.0474H150.5C151.101 63.0474 151.673 63.3067 152.072 63.7597C152.471 64.2127 152.657 64.816 152.585 65.4167L150.199 85.1804L175.496 53.7445H150.5C149.899 53.7445 149.327 53.4852 148.928 53.0322C148.529 52.5792 148.343 51.9759 148.415 51.3752L150.801 31.6114L125.504 63.0474Z" fill="#046B99"/>
</g>
<defs>
<clipPath id="clip0_15_390">
<rect width="63" height="74" fill="white" transform="translate(119 22)"/>
</clipPath>
</defs>
</svg>
